<svg width="0" height="0" fill="none" style="visibility: hidden; position: absolute;" aria-hidden="true">
    <symbol id="alarm-bell"  viewBox="0 0 30 32" fill="none" xmlns="http://www.w3.org/2000/svg">
        <path d="M13.1823 32C15.5696 32 17.5666 30.2786 18.0252 28H8.33936C8.79818 30.2786 10.7952 32 13.1823 32V32Z" fill="#FFAA00"/>
        <path d="M22.4251 15.9985C22.4198 15.9985 22.4145 15.9997 22.4092 15.9997C17.3225 15.9997 13.1822 11.813 13.1822 6.66649C13.1822 5.2517 13.504 3.9143 14.0642 2.71167C13.7741 2.68384 13.4801 2.6665 13.1822 2.6665C8.0864 2.6665 3.95527 6.84496 3.95527 11.9997V15.717C3.95527 18.3557 2.81243 20.8464 0.807448 22.561C0.13912 23.1384 -0.157512 24.0583 0.0824006 24.9557C0.361896 25.9997 1.38213 26.6664 2.45256 26.6664H23.9054C25.0285 26.6664 26.0871 25.9303 26.3149 24.8171C26.4916 23.9557 26.1884 23.0956 25.5281 22.5344C23.6114 20.9091 22.5029 18.5209 22.4251 15.9985V15.9985Z" fill="#FFAA00"/>
        <path d="M29.1814 6.66673C29.1814 10.3486 26.2308 13.3332 22.5906 13.3332C18.9506 13.3332 16 10.3486 16 6.66673C16 2.98485 18.9506 0 22.5906 0C26.2308 0 29.1814 2.98485 29.1814 6.66673Z" fill="#E63946"/>
    </symbol>
    <symbol id="alarm" viewBox="0 0 27 30" fill="none" xmlns="http://www.w3.org/2000/svg">
        <path d="M13.1823 29.3335C15.5696 29.3335 17.5666 27.6121 18.0252 25.3335H8.33936C8.79818 27.6121 10.7952 29.3335 13.1823 29.3335V29.3335Z" fill="#FFAA00"/>
        <path d="M22.4251 13.332C22.4198 13.332 22.4145 13.3332 22.4092 13.3332C17.3225 13.3332 13.1822 9.14645 13.1822 3.99999C13.1822 2.5852 13.504 1.2478 14.0642 0.0451659C13.7741 0.0173339 13.4801 0 13.1822 0C8.0864 0 3.95527 4.17845 3.95527 9.33322V13.0505C3.95527 15.6892 2.81243 18.1799 0.807448 19.8945C0.13912 20.4719 -0.157512 21.3918 0.0824006 22.2892C0.361896 23.3332 1.38213 23.9999 2.45256 23.9999H23.9054C25.0285 23.9999 26.0871 23.2638 26.3149 22.1506C26.4916 21.2892 26.1884 20.4291 25.5281 19.8679C23.6114 18.2426 22.5029 15.8544 22.4251 13.332V13.332Z" fill="#FFAA00"/>
        <path d="M3.88489 13.332C3.89012 13.332 3.89536 13.3333 3.9006 13.3333C8.91695 13.3333 13 9.14648 13 4C13 2.58521 12.6827 1.2478 12.1303 0.045166C12.4164 0.017334 12.7063 0 13 0C18.0254 0 22.0994 4.17847 22.0994 9.33325V13.0505C22.0994 15.6892 23.2265 18.1799 25.2037 19.8945C25.8628 20.4719 26.1553 21.3918 25.9187 22.2893C25.6431 23.3333 24.637 24 23.5813 24H2.42509C1.31756 24 0.273593 23.2639 0.0488986 22.1506C-0.125335 21.2893 0.173623 20.4292 0.824856 19.8679C2.715 18.2427 3.80824 15.8545 3.88489 13.332V13.332Z" fill="#FFAA00"/>
    </symbol>
    <symbol id="arrow-repeat" viewBox="0 0 24 24" fill="none" xmlns="http://www.w3.org/2000/svg">
        <path d="M17.3009 10.4998H23.1989C23.2701 10.4998 23.3399 10.5201 23.4 10.5584C23.4602 10.5966 23.5081 10.6512 23.5383 10.7158C23.5686 10.7803 23.5798 10.8521 23.5707 10.9228C23.5615 10.9934 23.5325 11.06 23.4869 11.1148L20.5379 14.6548C20.5027 14.697 20.4587 14.7309 20.4089 14.7542C20.3591 14.7775 20.3048 14.7896 20.2499 14.7896C20.1949 14.7896 20.1407 14.7775 20.0909 14.7542C20.0411 14.7309 19.9971 14.697 19.9619 14.6548L17.0129 11.1148C16.9673 11.06 16.9382 10.9934 16.9291 10.9228C16.92 10.8521 16.9312 10.7803 16.9614 10.7158C16.9916 10.6512 17.0396 10.5966 17.0997 10.5584C17.1599 10.5201 17.2296 10.4998 17.3009 10.4998ZM0.800885 13.4998H6.69889C6.77014 13.4998 6.83991 13.4794 6.90003 13.4412C6.96015 13.4029 7.00813 13.3484 7.03835 13.2838C7.06857 13.2193 7.07978 13.1475 7.07066 13.0768C7.06155 13.0062 7.03249 12.9395 6.98689 12.8848L4.03788 9.34479C4.00269 9.30259 3.95865 9.26864 3.90888 9.24534C3.85912 9.22204 3.80484 9.20996 3.74989 9.20996C3.69493 9.20996 3.64065 9.22204 3.59089 9.24534C3.54112 9.26864 3.49708 9.30259 3.46188 9.34479L0.512885 12.8848C0.467282 12.9395 0.438221 13.0062 0.429106 13.0768C0.419992 13.1475 0.4312 13.2193 0.461419 13.2838C0.491638 13.3484 0.539617 13.4029 0.599737 13.4412C0.659857 13.4794 0.72963 13.4998 0.800885 13.4998Z" fill="#858585"/>
        <path fill-rule="evenodd" clip-rule="evenodd" d="M12 4.50011C9.67201 4.50011 7.59001 5.5606 6.21451 7.2271C6.15309 7.30671 6.07629 7.37316 5.98867 7.42249C5.90106 7.47183 5.80442 7.50304 5.7045 7.51427C5.60458 7.52551 5.50342 7.51653 5.40703 7.48789C5.31065 7.45924 5.22101 7.41151 5.14345 7.34753C5.06588 7.28354 5.00198 7.20462 4.95553 7.11544C4.90908 7.02626 4.88103 6.92865 4.87306 6.82842C4.86509 6.72819 4.87736 6.62737 4.90913 6.53198C4.9409 6.43658 4.99153 6.34854 5.05801 6.27311C6.1563 4.9434 7.6134 3.95712 9.25601 3.43159C10.8986 2.90606 12.6576 2.86338 14.3238 3.30864C15.9899 3.7539 17.4932 4.66835 18.6546 5.94324C19.8161 7.21812 20.587 8.79978 20.8755 10.5001H19.35C19.0037 8.80632 18.0831 7.28409 16.7438 6.19082C15.4046 5.09755 13.7288 4.50032 12 4.50011ZM4.65001 13.5001C4.93398 14.887 5.60454 16.1653 6.58423 17.1873C7.56392 18.2093 8.81275 18.9332 10.1865 19.2755C11.5602 19.6178 13.0027 19.5645 14.3473 19.1217C15.692 18.6789 16.884 17.8646 17.7855 16.7731C17.8469 16.6935 17.9237 16.627 18.0113 16.5777C18.099 16.5284 18.1956 16.4972 18.2955 16.4859C18.3954 16.4747 18.4966 16.4837 18.593 16.5123C18.6894 16.541 18.779 16.5887 18.8566 16.6527C18.9341 16.7167 18.998 16.7956 19.0445 16.8848C19.0909 16.974 19.119 17.0716 19.127 17.1718C19.1349 17.272 19.1227 17.3728 19.0909 17.4682C19.0591 17.5636 19.0085 17.6517 18.942 17.7271C17.8437 19.0568 16.3866 20.0431 14.744 20.5686C13.1014 21.0942 11.3424 21.1368 9.67625 20.6916C8.01009 20.2463 6.50687 19.3319 5.3454 18.057C4.18392 16.7821 3.41306 15.2004 3.12451 13.5001H4.65001Z" fill="#6A6A6A"/>
    </symbol>
    <symbol id="calendar-event" viewBox="0 0 24 24" fill="none" xmlns="http://www.w3.org/2000/svg">
        <g clip-path="url(#clip0_1207_2910__calendar-event)">
            <path d="M16.5 9.75C16.5 9.55109 16.579 9.36032 16.7197 9.21967C16.8603 9.07902 17.0511 9 17.25 9H18.75C18.9489 9 19.1397 9.07902 19.2803 9.21967C19.421 9.36032 19.5 9.55109 19.5 9.75V11.25C19.5 11.4489 19.421 11.6397 19.2803 11.7803C19.1397 11.921 18.9489 12 18.75 12H17.25C17.0511 12 16.8603 11.921 16.7197 11.7803C16.579 11.6397 16.5 11.4489 16.5 11.25V9.75Z" fill="black"/>
            <path d="M5.25 0C5.44891 0 5.63968 0.0790176 5.78033 0.21967C5.92098 0.360322 6 0.551088 6 0.75V1.5H18V0.75C18 0.551088 18.079 0.360322 18.2197 0.21967C18.3603 0.0790176 18.5511 0 18.75 0C18.9489 0 19.1397 0.0790176 19.2803 0.21967C19.421 0.360322 19.5 0.551088 19.5 0.75V1.5H21C21.7956 1.5 22.5587 1.81607 23.1213 2.37868C23.6839 2.94129 24 3.70435 24 4.5V21C24 21.7956 23.6839 22.5587 23.1213 23.1213C22.5587 23.6839 21.7956 24 21 24H3C2.20435 24 1.44129 23.6839 0.87868 23.1213C0.316071 22.5587 0 21.7956 0 21V4.5C0 3.70435 0.316071 2.94129 0.87868 2.37868C1.44129 1.81607 2.20435 1.5 3 1.5H4.5V0.75C4.5 0.551088 4.57902 0.360322 4.71967 0.21967C4.86032 0.0790176 5.05109 0 5.25 0V0ZM1.5 6V21C1.5 21.3978 1.65804 21.7794 1.93934 22.0607C2.22064 22.342 2.60218 22.5 3 22.5H21C21.3978 22.5 21.7794 22.342 22.0607 22.0607C22.342 21.7794 22.5 21.3978 22.5 21V6H1.5Z" fill="black"/>
        </g>
        <defs>
            <clipPath id="clip0_1207_2910__calendar-event">
                <rect width="24" height="24" fill="white"/>
            </clipPath>
        </defs>
    </symbol>
    <symbol id="calendar" viewBox="0 0 24 24" fill="none" xmlns="http://www.w3.org/2000/svg">
        <g clip-path="url(#clip0_1359_2404__calendar)">
            <g clip-path="url(#clip1_1359_2404__calendar)">
                <path d="M5.25 0C5.44891 0 5.63968 0.0790176 5.78033 0.21967C5.92098 0.360322 6 0.551088 6 0.75V1.5H18V0.75C18 0.551088 18.079 0.360322 18.2197 0.21967C18.3603 0.0790176 18.5511 0 18.75 0C18.9489 0 19.1397 0.0790176 19.2803 0.21967C19.421 0.360322 19.5 0.551088 19.5 0.75V1.5H21C21.7956 1.5 22.5587 1.81607 23.1213 2.37868C23.6839 2.94129 24 3.70435 24 4.5V21C24 21.7956 23.6839 22.5587 23.1213 23.1213C22.5587 23.6839 21.7956 24 21 24H3C2.20435 24 1.44129 23.6839 0.87868 23.1213C0.316071 22.5587 0 21.7956 0 21V4.5C0 3.70435 0.316071 2.94129 0.87868 2.37868C1.44129 1.81607 2.20435 1.5 3 1.5H4.5V0.75C4.5 0.551088 4.57902 0.360322 4.71967 0.21967C4.86032 0.0790176 5.05109 0 5.25 0V0ZM3 3C2.60218 3 2.22064 3.15804 1.93934 3.43934C1.65804 3.72064 1.5 4.10218 1.5 4.5V6H22.5V4.5C22.5 4.10218 22.342 3.72064 22.0607 3.43934C21.7794 3.15804 21.3978 3 21 3H3ZM22.5 7.5H1.5V21C1.5 21.3978 1.65804 21.7794 1.93934 22.0607C2.22064 22.342 2.60218 22.5 3 22.5H21C21.3978 22.5 21.7794 22.342 22.0607 22.0607C22.342 21.7794 22.5 21.3978 22.5 21V7.5Z" fill="#1C1C1C"/>
                <path d="M13.5 11.25C13.5 11.0511 13.579 10.8603 13.7197 10.7197C13.8603 10.579 14.0511 10.5 14.25 10.5H22.5V13.5H14.25C14.0511 13.5 13.8603 13.421 13.7197 13.2803C13.579 13.1397 13.5 12.9489 13.5 12.75V11.25ZM10.5 15.75V17.25C10.5 17.4489 10.421 17.6397 10.2803 17.7803C10.1397 17.921 9.94891 18 9.75 18H1.5V15H9.75C9.94891 15 10.1397 15.079 10.2803 15.2197C10.421 15.3603 10.5 15.5511 10.5 15.75Z" fill="#1C1C1C"/>
            </g>
        </g>
        <defs>
            <clipPath id="clip0_1359_2404__calendar">
                <rect width="24" height="24" fill="white"/>
            </clipPath>
            <clipPath id="clip1_1359_2404__calendar">
                <rect width="24" height="24" fill="white"/>
            </clipPath>
        </defs>
    </symbol>
    <symbol id="caret-down-fill" viewBox="0 0 24 24" fill="none" xmlns="http://www.w3.org/2000/svg">
        <path d="M8.15289 13.0325L2.75739 6.86525C2.12064 6.13963 2.63814 5 3.60451 5H14.3955C14.6118 4.99981 14.8235 5.06197 15.0054 5.17903C15.1872 5.29609 15.3315 5.46309 15.4209 5.66003C15.5103 5.85697 15.541 6.0755 15.5094 6.28945C15.4778 6.5034 15.3852 6.70371 15.2426 6.86638L9.84714 13.0314C9.74154 13.1522 9.61132 13.2491 9.46521 13.3154C9.3191 13.3818 9.16049 13.4161 9.00001 13.4161C8.83954 13.4161 8.68093 13.3818 8.53482 13.3154C8.38871 13.2491 8.25848 13.1522 8.15289 13.0314V13.0325Z" fill="white"/>
    </symbol>
    <symbol id="chat-dots" viewBox="0 0 30 30" fill="none" xmlns="http://www.w3.org/2000/svg">
        <path d="M9.375 15C9.375 15.4973 9.17746 15.9742 8.82582 16.3258C8.47419 16.6775 7.99728 16.875 7.5 16.875C7.00272 16.875 6.52581 16.6775 6.17417 16.3258C5.82254 15.9742 5.625 15.4973 5.625 15C5.625 14.5027 5.82254 14.0258 6.17417 13.6742C6.52581 13.3225 7.00272 13.125 7.5 13.125C7.99728 13.125 8.47419 13.3225 8.82582 13.6742C9.17746 14.0258 9.375 14.5027 9.375 15ZM16.875 15C16.875 15.4973 16.6775 15.9742 16.3258 16.3258C15.9742 16.6775 15.4973 16.875 15 16.875C14.5027 16.875 14.0258 16.6775 13.6742 16.3258C13.3225 15.9742 13.125 15.4973 13.125 15C13.125 14.5027 13.3225 14.0258 13.6742 13.6742C14.0258 13.3225 14.5027 13.125 15 13.125C15.4973 13.125 15.9742 13.3225 16.3258 13.6742C16.6775 14.0258 16.875 14.5027 16.875 15ZM22.5 16.875C22.9973 16.875 23.4742 16.6775 23.8258 16.3258C24.1775 15.9742 24.375 15.4973 24.375 15C24.375 14.5027 24.1775 14.0258 23.8258 13.6742C23.4742 13.3225 22.9973 13.125 22.5 13.125C22.0027 13.125 21.5258 13.3225 21.1742 13.6742C20.8225 14.0258 20.625 14.5027 20.625 15C20.625 15.4973 20.8225 15.9742 21.1742 16.3258C21.5258 16.6775 22.0027 16.875 22.5 16.875Z" fill="#616161"/>
        <path d="M4.05937 29.6306L4.09687 29.6231C7.52812 28.9425 9.62437 28.0444 10.5994 27.5513C12.0349 27.9341 13.5143 28.127 15 28.125C23.2838 28.125 30 22.2488 30 15C30 7.75125 23.2838 1.875 15 1.875C6.71625 1.875 0 7.75125 0 15C0 18.3 1.39313 21.3188 3.69375 23.625C3.5328 25.1064 3.20316 26.5646 2.71125 27.9713L2.70562 27.9919C2.56583 28.3948 2.41325 28.7931 2.24813 29.1863C2.1 29.535 2.38687 29.925 2.76 29.865C3.19437 29.7939 3.62755 29.7158 4.05937 29.6306ZM5.55937 23.8031C5.58564 23.5286 5.55103 23.2517 5.45802 22.9921C5.365 22.7325 5.21587 22.4966 5.02125 22.3013C3.03375 20.3063 1.875 17.7525 1.875 15C1.875 9.015 7.5075 3.75 15 3.75C22.4925 3.75 28.125 9.015 28.125 15C28.125 20.9869 22.4925 26.25 15 26.25C13.6783 26.2519 12.3621 26.0805 11.085 25.74C10.6387 25.6204 10.164 25.6698 9.75187 25.8788C9.02625 26.2463 7.42688 26.9475 4.81312 27.5531C5.17777 26.329 5.4276 25.0736 5.55937 23.8031Z" fill="#616161"/>
    </symbol>
    <symbol id="check-circle" viewBox="0 0 24 24" fill="none" xmlns="http://www.w3.org/2000/svg">
        <g clip-path="url(#clip0_1659_2342__check-circle)">
            <path d="M12 22.5C9.21523 22.5 6.54451 21.3938 4.57538 19.4246C2.60625 17.4555 1.5 14.7848 1.5 12C1.5 9.21523 2.60625 6.54451 4.57538 4.57538C6.54451 2.60625 9.21523 1.5 12 1.5C14.7848 1.5 17.4555 2.60625 19.4246 4.57538C21.3938 6.54451 22.5 9.21523 22.5 12C22.5 14.7848 21.3938 17.4555 19.4246 19.4246C17.4555 21.3938 14.7848 22.5 12 22.5ZM12 24C15.1826 24 18.2348 22.7357 20.4853 20.4853C22.7357 18.2348 24 15.1826 24 12C24 8.8174 22.7357 5.76516 20.4853 3.51472C18.2348 1.26428 15.1826 0 12 0C8.8174 0 5.76516 1.26428 3.51472 3.51472C1.26428 5.76516 0 8.8174 0 12C0 15.1826 1.26428 18.2348 3.51472 20.4853C5.76516 22.7357 8.8174 24 12 24V24Z" fill="#1C1C1C"/>
            <path d="M16.455 7.45493C16.4443 7.46529 16.4343 7.47631 16.425 7.48793L11.2155 14.1254L8.07602 10.9844C7.86276 10.7857 7.58069 10.6775 7.28924 10.6827C6.99778 10.6878 6.71971 10.8059 6.51359 11.012C6.30747 11.2181 6.1894 11.4962 6.18426 11.7876C6.17911 12.0791 6.2873 12.3612 6.48602 12.5744L10.455 16.5449C10.5619 16.6517 10.6893 16.7358 10.8294 16.7922C10.9695 16.8487 11.1196 16.8763 11.2706 16.8735C11.4217 16.8707 11.5706 16.8375 11.7086 16.7759C11.8465 16.7143 11.9706 16.6256 12.0735 16.5149L18.0615 9.02993C18.2654 8.81593 18.3769 8.53028 18.3719 8.23473C18.3668 7.93919 18.2457 7.6575 18.0346 7.45057C17.8235 7.24364 17.5395 7.1281 17.2439 7.12891C16.9483 7.12973 16.6649 7.24684 16.455 7.45493V7.45493Z" fill="#1C1C1C"/>
        </g>
        <defs>
            <clipPath id="clip0_1659_2342__check-circle">
                <rect width="24" height="24" fill="white"/>
            </clipPath>
        </defs>
    </symbol>
    <symbol id="check-square-fill" viewBox="0 0 24 24" fill="none" xmlns="http://www.w3.org/2000/svg">
        <g clip-path="url(#clip0_1197_2889__check-square-fill)">
            <path d="M3 0C2.20435 0 1.44129 0.316071 0.87868 0.87868C0.316071 1.44129 0 2.20435 0 3L0 21C0 21.7956 0.316071 22.5587 0.87868 23.1213C1.44129 23.6839 2.20435 24 3 24H21C21.7956 24 22.5587 23.6839 23.1213 23.1213C23.6839 22.5587 24 21.7956 24 21V3C24 2.20435 23.6839 1.44129 23.1213 0.87868C22.5587 0.316071 21.7956 0 21 0L3 0ZM18.045 7.455C18.2533 7.66313 18.3718 7.94465 18.3749 8.23913C18.3779 8.53361 18.2654 8.81755 18.0615 9.03L12.0735 16.515C11.9706 16.6258 11.8464 16.7148 11.7083 16.7766C11.5702 16.8383 11.4211 16.8716 11.2699 16.8744C11.1186 16.8772 10.9684 16.8494 10.8281 16.7928C10.6879 16.7363 10.5604 16.652 10.4535 16.545L6.486 12.576C6.37547 12.473 6.28682 12.3488 6.22533 12.2108C6.16384 12.0728 6.13078 11.9238 6.12811 11.7728C6.12545 11.6217 6.15323 11.4717 6.20982 11.3316C6.2664 11.1915 6.35061 11.0643 6.45744 10.9574C6.56427 10.8506 6.69152 10.7664 6.8316 10.7098C6.97169 10.6532 7.12173 10.6254 7.27278 10.6281C7.42384 10.6308 7.57281 10.6638 7.71081 10.7253C7.84881 10.7868 7.97301 10.8755 8.076 10.986L11.217 14.1255L16.4265 7.488C16.5292 7.37695 16.6533 7.28776 16.7912 7.22575C16.9292 7.16375 17.0783 7.1302 17.2295 7.12712C17.3807 7.12404 17.531 7.15149 17.6714 7.20782C17.8118 7.26416 17.9394 7.34823 18.0465 7.455H18.045Z" fill="#FFAA00"/>
        </g>
        <defs>
            <clipPath id="clip0_1197_2889__check-square-fill">
                <rect width="24" height="24" fill="white"/>
            </clipPath>
        </defs>
    </symbol>
    <symbol id="check-square" viewBox="0 0 24 24" fill="none" xmlns="http://www.w3.org/2000/svg">
        <g clip-path="url(#clip0_1197_2892__check-square)">
            <path d="M21 1.5C21.3978 1.5 21.7794 1.65804 22.0607 1.93934C22.342 2.22064 22.5 2.60218 22.5 3V21C22.5 21.3978 22.342 21.7794 22.0607 22.0607C21.7794 22.342 21.3978 22.5 21 22.5H3C2.60218 22.5 2.22064 22.342 1.93934 22.0607C1.65804 21.7794 1.5 21.3978 1.5 21V3C1.5 2.60218 1.65804 2.22064 1.93934 1.93934C2.22064 1.65804 2.60218 1.5 3 1.5H21ZM3 0C2.20435 0 1.44129 0.316071 0.87868 0.87868C0.316071 1.44129 0 2.20435 0 3L0 21C0 21.7956 0.316071 22.5587 0.87868 23.1213C1.44129 23.6839 2.20435 24 3 24H21C21.7956 24 22.5587 23.6839 23.1213 23.1213C23.6839 22.5587 24 21.7956 24 21V3C24 2.20435 23.6839 1.44129 23.1213 0.87868C22.5587 0.316071 21.7956 0 21 0L3 0Z" fill="#BCBCBC"/>
        </g>
        <defs>
            <clipPath id="clip0_1197_2892__check-square">
                <rect width="24" height="24" fill="white"/>
            </clipPath>
        </defs>
    </symbol>
    <symbol id="cheked" viewBox="0 0 24 24" fill="none" xmlns="http://www.w3.org/2000/svg">
        <path d="M19.104 5.9549C19.2063 5.85045 19.3285 5.76747 19.4634 5.71082C19.5982 5.65418 19.743 5.625 19.8892 5.625C20.0355 5.625 20.1803 5.65418 20.3151 5.71082C20.4499 5.76747 20.5721 5.85045 20.6745 5.9549C21.1035 6.3884 21.1095 7.0889 20.6895 7.5299L11.82 18.0149C11.7193 18.1255 11.5971 18.2144 11.4608 18.2761C11.3246 18.3378 11.1772 18.3711 11.0277 18.3739C10.8781 18.3767 10.7296 18.349 10.5912 18.2924C10.4527 18.2358 10.3273 18.1516 10.2225 18.0449L4.82547 12.5759C4.61733 12.3636 4.50073 12.0782 4.50073 11.7809C4.50073 11.4836 4.61733 11.1982 4.82547 10.9859C4.92784 10.8815 5.05002 10.7985 5.18485 10.7418C5.31969 10.6852 5.46447 10.656 5.61072 10.656C5.75697 10.656 5.90175 10.6852 6.03659 10.7418C6.17142 10.7985 6.2936 10.8815 6.39597 10.9859L10.974 15.6254L19.074 5.9879C19.0833 5.97631 19.0933 5.96529 19.104 5.9549Z" fill="#FFAA00"/>
    </symbol>
    <symbol id="chevron-down" viewBox="0 0 24 24" fill="none" xmlns="http://www.w3.org/2000/svg">
        <path fill-rule="evenodd" clip-rule="evenodd" d="M2.46888 6.96912C2.53854 6.89928 2.62131 6.84386 2.71243 6.80605C2.80354 6.76824 2.90122 6.74878 2.99988 6.74878C3.09853 6.74878 3.19621 6.76824 3.28733 6.80605C3.37844 6.84386 3.46121 6.89928 3.53088 6.96912L11.9999 15.4396L20.4689 6.96912C20.6097 6.82829 20.8007 6.74918 20.9999 6.74918C21.199 6.74918 21.39 6.82829 21.5309 6.96912C21.6717 7.10995 21.7508 7.30096 21.7508 7.50012C21.7508 7.69929 21.6717 7.89029 21.5309 8.03112L12.5309 17.0311C12.4612 17.101 12.3784 17.1564 12.2873 17.1942C12.1962 17.232 12.0985 17.2515 11.9999 17.2515C11.9012 17.2515 11.8035 17.232 11.7124 17.1942C11.6213 17.1564 11.5385 17.101 11.4689 17.0311L2.46888 8.03112C2.39903 7.96145 2.34362 7.87869 2.30581 7.78757C2.268 7.69646 2.24854 7.59877 2.24854 7.50012C2.24854 7.40147 2.268 7.30379 2.30581 7.21267C2.34362 7.12156 2.39903 7.03879 2.46888 6.96912Z" fill="black"/>
    </symbol>
    <symbol id="chevron-left" viewBox="0 0 24 24" fill="none" xmlns="http://www.w3.org/2000/svg">
        <path fill-rule="evenodd" clip-rule="evenodd" d="M17.0311 2.46888C17.101 2.53854 17.1564 2.62131 17.1942 2.71243C17.232 2.80354 17.2515 2.90122 17.2515 2.99988C17.2515 3.09853 17.232 3.19621 17.1942 3.28733C17.1564 3.37844 17.101 3.46121 17.0311 3.53088L8.56062 11.9999L17.0311 20.4689C17.172 20.6097 17.2511 20.8007 17.2511 20.9999C17.2511 21.199 17.172 21.39 17.0311 21.5309C16.8903 21.6717 16.6993 21.7508 16.5001 21.7508C16.301 21.7508 16.11 21.6717 15.9691 21.5309L6.96912 12.5309C6.89927 12.4612 6.84386 12.3784 6.80605 12.2873C6.76824 12.1962 6.74878 12.0985 6.74878 11.9999C6.74878 11.9012 6.76824 11.8035 6.80605 11.7124C6.84386 11.6213 6.89927 11.5385 6.96912 11.4689L15.9691 2.46888C16.0388 2.39903 16.1216 2.34362 16.2127 2.30581C16.3038 2.268 16.4015 2.24854 16.5001 2.24854C16.5988 2.24854 16.6965 2.268 16.7876 2.30581C16.8787 2.34362 16.9615 2.39903 17.0311 2.46888Z" fill="black"/>
    </symbol>
    <symbol id="chevron-right" viewBox="0 0 24 24" fill="none" xmlns="http://www.w3.org/2000/svg">
        <path fill-rule="evenodd" clip-rule="evenodd" d="M6.96888 21.5311C6.89903 21.4615 6.84362 21.3787 6.80581 21.2876C6.768 21.1965 6.74854 21.0988 6.74854 21.0001C6.74854 20.9015 6.768 20.8038 6.80581 20.7127C6.84362 20.6216 6.89903 20.5388 6.96888 20.4691L15.4394 12.0001L6.96888 3.53112C6.82805 3.3903 6.74893 3.19929 6.74893 3.00012C6.74893 2.80096 6.82805 2.60995 6.96888 2.46912C7.10971 2.32829 7.30072 2.24918 7.49988 2.24918C7.69904 2.24918 7.89005 2.32829 8.03088 2.46912L17.0309 11.4691C17.1007 11.5388 17.1561 11.6216 17.1939 11.7127C17.2318 11.8038 17.2512 11.9015 17.2512 12.0001C17.2512 12.0988 17.2318 12.1965 17.1939 12.2876C17.1561 12.3787 17.1007 12.4615 17.0309 12.5311L8.03088 21.5311C7.96121 21.601 7.87845 21.6564 7.78733 21.6942C7.69621 21.732 7.59853 21.7515 7.49988 21.7515C7.40123 21.7515 7.30355 21.732 7.21243 21.6942C7.12131 21.6564 7.03855 21.601 6.96888 21.5311Z" fill="black"/>
    </symbol>
    <symbol id="chevron-up" viewBox="0 0 24 24" fill="none" xmlns="http://www.w3.org/2000/svg">
        <path fill-rule="evenodd" clip-rule="evenodd" d="M21.5311 17.0309C21.4615 17.1007 21.3787 17.1561 21.2876 17.1939C21.1965 17.2318 21.0988 17.2512 21.0001 17.2512C20.9015 17.2512 20.8038 17.2318 20.7127 17.1939C20.6216 17.1561 20.5388 17.1007 20.4691 17.0309L12.0001 8.56038L3.53112 17.0309C3.3903 17.1717 3.19929 17.2508 3.00012 17.2508C2.80096 17.2508 2.60995 17.1717 2.46912 17.0309C2.32829 16.89 2.24918 16.699 2.24918 16.4999C2.24918 16.3007 2.32829 16.1097 2.46912 15.9689L11.4691 6.96888C11.5388 6.89903 11.6216 6.84362 11.7127 6.80581C11.8038 6.768 11.9015 6.74854 12.0001 6.74854C12.0988 6.74854 12.1965 6.768 12.2876 6.80581C12.3787 6.84362 12.4615 6.89903 12.5311 6.96888L21.5311 15.9689C21.601 16.0385 21.6564 16.1213 21.6942 16.2124C21.732 16.3035 21.7515 16.4012 21.7515 16.4999C21.7515 16.5985 21.732 16.6962 21.6942 16.7873C21.6564 16.8784 21.601 16.9612 21.5311 17.0309Z" fill="black"/>
    </symbol>
    <symbol id="exclamation-triangle" viewBox="0 0 24 24" fill="none" xmlns="http://www.w3.org/2000/svg">
        <g clip-path="url(#clip0_1336_2390__exclamation-triangle)">
            <path d="M13.473 2.34893C13.3246 2.09027 13.1105 1.87538 12.8524 1.72594C12.5942 1.5765 12.3013 1.4978 12.003 1.4978C11.7048 1.4978 11.4118 1.5765 11.1537 1.72594C10.8956 1.87538 10.6815 2.09027 10.533 2.34893L0.247541 19.8494C-0.437959 21.0164 0.384041 22.4999 1.71754 22.4999H22.287C23.6205 22.4999 24.444 21.0149 23.757 19.8494L13.473 2.34893ZM12 7.49993C12.8025 7.49993 13.431 8.19293 13.35 8.99243L12.825 14.2529C12.8074 14.4596 12.7128 14.6521 12.5601 14.7924C12.4073 14.9327 12.2075 15.0105 12 15.0105C11.7926 15.0105 11.5928 14.9327 11.44 14.7924C11.2872 14.6521 11.1927 14.4596 11.175 14.2529L10.65 8.99243C10.6312 8.80378 10.6521 8.61327 10.7113 8.43318C10.7706 8.25308 10.8669 8.0874 10.9941 7.94679C11.1212 7.80619 11.2765 7.69378 11.4497 7.61682C11.623 7.53985 11.8105 7.50003 12 7.49993V7.49993ZM12.003 16.4999C12.4009 16.4999 12.7824 16.658 13.0637 16.9393C13.345 17.2206 13.503 17.6021 13.503 17.9999C13.503 18.3978 13.345 18.7793 13.0637 19.0606C12.7824 19.3419 12.4009 19.4999 12.003 19.4999C11.6052 19.4999 11.2237 19.3419 10.9424 19.0606C10.6611 18.7793 10.503 18.3978 10.503 17.9999C10.503 17.6021 10.6611 17.2206 10.9424 16.9393C11.2237 16.658 11.6052 16.4999 12.003 16.4999Z" fill="#FFAA00"/>
        </g>
        <defs>
            <clipPath id="clip0_1336_2390__exclamation-triangle">
                <rect width="24" height="24" fill="white"/>
            </clipPath>
        </defs>
    </symbol>
    <symbol id="fill-star" viewBox="0 0 40 40" fill="none" xmlns="http://www.w3.org/2000/svg">
        <rect x="0.5" y="0.5" width="39" height="39" rx="19.5" fill="#D8D8D8"/>
        <rect x="0.5" y="0.5" width="39" height="39" rx="19.5" stroke="#D8D8D8"/>
        <path d="M12.3186 33.1511C11.6431 33.4976 10.8766 32.8904 11.0131 32.1151L12.4656 23.8376L6.30039 17.9646C5.72464 17.4151 6.02389 16.4106 6.79564 16.3021L15.3671 15.0841L19.1891 7.51187C19.5339 6.82938 20.4666 6.82938 20.8114 7.51187L24.6334 15.0841L33.2049 16.3021C33.9766 16.4106 34.2759 17.4151 33.6984 17.9646L27.5349 23.8376L28.9874 32.1151C29.1239 32.8904 28.3574 33.4976 27.6819 33.1511L19.9976 29.2031L12.3169 33.1511H12.3186Z" fill="#FFAA00"/>
    </symbol>
    <symbol id="folder" viewBox="0 0 32 31" fill="none" xmlns="http://www.w3.org/2000/svg">
        <path d="M30.9527 6.55568H1.04824C0.47059 6.55568 0 7.02825 0 7.60686V29.295C0 29.8736 0.47059 30.3462 1.04824 30.3462H30.9527C31.5304 30.3462 32 29.8736 32 29.295V7.60686C32 7.02825 31.5304 6.55568 30.9527 6.55568Z" fill="#FDB813"/>
        <path d="M29.8442 3.27321H2.5681C2.05583 3.27321 1.64136 3.73808 1.64136 4.29974C1.64136 4.86139 2.05583 5.32617 2.5681 5.32617H29.8442C30.3555 5.32617 30.769 4.86139 30.769 4.29974C30.769 3.73808 30.3555 3.27321 29.8442 3.27321ZM5.03453 2.0531H27.7874C28.3035 2.0531 28.7219 1.58822 28.7219 1.02657C28.7219 0.455228 28.3035 0.0001316 27.7874 0.0001316H5.03453C4.51645 0.0001316 4.09716 0.455228 4.09716 1.02657C4.09716 1.58822 4.51645 2.0531 5.03453 2.0531Z" fill="#E89E0A"/>
    </symbol>
    <symbol id="gear" viewBox="0 0 24 24" fill="none" xmlns="http://www.w3.org/2000/svg">
        <g clip-path="url(#clip0_1207_2914__gear)">
            <path d="M12.0001 7.13086C11.3607 7.13086 10.7276 7.2568 10.1368 7.50149C9.54608 7.74618 9.00933 8.10483 8.5572 8.55696C8.10507 9.00908 7.74642 9.54584 7.50173 10.1366C7.25704 10.7273 7.1311 11.3605 7.1311 11.9999C7.1311 12.6393 7.25704 13.2724 7.50173 13.8631C7.74642 14.4539 8.10507 14.9906 8.5572 15.4428C9.00933 15.8949 9.54608 16.2535 10.1368 16.4982C10.7276 16.7429 11.3607 16.8689 12.0001 16.8689C13.2914 16.8689 14.5299 16.3559 15.443 15.4428C16.3561 14.5296 16.8691 13.2912 16.8691 11.9999C16.8691 10.7085 16.3561 9.47007 15.443 8.55696C14.5299 7.64384 13.2914 7.13086 12.0001 7.13086ZM8.6311 11.9999C8.6311 11.1063 8.98605 10.2494 9.61786 9.61762C10.2497 8.98581 11.1066 8.63086 12.0001 8.63086C12.8936 8.63086 13.7505 8.98581 14.3823 9.61762C15.0142 10.2494 15.3691 11.1063 15.3691 11.9999C15.3691 12.8934 15.0142 13.7503 14.3823 14.3821C13.7505 15.0139 12.8936 15.3689 12.0001 15.3689C11.1066 15.3689 10.2497 15.0139 9.61786 14.3821C8.98605 13.7503 8.6311 12.8934 8.6311 11.9999Z" fill="black"/>
            <path d="M14.6937 2.01424C13.9032 -0.670762 10.0962 -0.670762 9.30574 2.01424L9.16474 2.49274C9.10953 2.68017 9.01308 2.85287 8.88246 2.99818C8.75184 3.14349 8.59036 3.25772 8.40985 3.33252C8.22934 3.40731 8.03439 3.44076 7.83927 3.43041C7.64415 3.42007 7.45383 3.3662 7.28224 3.27274L6.84424 3.03274C4.38424 1.69474 1.69474 4.38574 3.03424 6.84424L3.27274 7.28224C3.3662 7.45383 3.42007 7.64415 3.43041 7.83927C3.44076 8.03439 3.40731 8.22934 3.33252 8.40985C3.25772 8.59036 3.14349 8.75184 2.99818 8.88246C2.85287 9.01308 2.68017 9.10953 2.49274 9.16474L2.01424 9.30574C-0.670762 10.0962 -0.670762 13.9032 2.01424 14.6937L2.49274 14.8347C2.68017 14.8899 2.85287 14.9864 2.99818 15.117C3.14349 15.2476 3.25772 15.4091 3.33252 15.5896C3.40731 15.7701 3.44076 15.9651 3.43041 16.1602C3.42007 16.3553 3.3662 16.5457 3.27274 16.7172L3.03274 17.1552C1.69474 19.6152 4.38424 22.3062 6.84424 20.9652L7.28224 20.7267C7.45383 20.6333 7.64415 20.5794 7.83927 20.5691C8.03439 20.5587 8.22934 20.5922 8.40985 20.667C8.59036 20.7418 8.75184 20.856 8.88246 21.0013C9.01308 21.1466 9.10953 21.3193 9.16474 21.5067L9.30574 21.9852C10.0962 24.6702 13.9032 24.6702 14.6937 21.9852L14.8347 21.5067C14.8899 21.3193 14.9864 21.1466 15.117 21.0013C15.2476 20.856 15.4091 20.7418 15.5896 20.667C15.7701 20.5922 15.9651 20.5587 16.1602 20.5691C16.3553 20.5794 16.5457 20.6333 16.7172 20.7267L17.1552 20.9667C19.6152 22.3062 22.3062 19.6137 20.9652 17.1552L20.7267 16.7172C20.6333 16.5457 20.5794 16.3553 20.5691 16.1602C20.5587 15.9651 20.5922 15.7701 20.667 15.5896C20.7418 15.4091 20.856 15.2476 21.0013 15.117C21.1466 14.9864 21.3193 14.8899 21.5067 14.8347L21.9852 14.6937C24.6702 13.9032 24.6702 10.0962 21.9852 9.30574L21.5067 9.16474C21.3193 9.10953 21.1466 9.01308 21.0013 8.88246C20.856 8.75184 20.7418 8.59036 20.667 8.40985C20.5922 8.22934 20.5587 8.03439 20.5691 7.83927C20.5794 7.64415 20.6333 7.45383 20.7267 7.28224L20.9667 6.84424C22.3062 4.38424 19.6137 1.69474 17.1552 3.03424L16.7172 3.27274C16.5457 3.3662 16.3553 3.42007 16.1602 3.43041C15.9651 3.44076 15.7701 3.40731 15.5896 3.33252C15.4091 3.25772 15.2476 3.14349 15.117 2.99818C14.9864 2.85287 14.8899 2.68017 14.8347 2.49274L14.6937 2.01424ZM10.7442 2.43874C11.1132 1.18624 12.8862 1.18624 13.2552 2.43874L13.3962 2.91724C13.5148 3.31937 13.7218 3.68987 14.0021 4.00159C14.2825 4.3133 14.629 4.55833 15.0164 4.71871C15.4037 4.87908 15.822 4.95074 16.2407 4.92842C16.6593 4.90611 17.0676 4.79038 17.4357 4.58974L17.8722 4.34974C19.0182 3.72724 20.2722 4.97974 19.6482 6.12724L19.4097 6.56524C19.2094 6.93338 19.094 7.34168 19.0719 7.76022C19.0498 8.17876 19.1217 8.59694 19.2822 8.98411C19.4427 9.37129 19.6878 9.71764 19.9995 9.9978C20.3112 10.278 20.6817 10.4848 21.0837 10.6032L21.5607 10.7442C22.8132 11.1132 22.8132 12.8862 21.5607 13.2552L21.0822 13.3962C20.6801 13.5148 20.3096 13.7218 19.9979 14.0021C19.6862 14.2825 19.4411 14.629 19.2808 15.0164C19.1204 15.4037 19.0487 15.822 19.0711 16.2407C19.0934 16.6593 19.2091 17.0676 19.4097 17.4357L19.6497 17.8722C20.2722 19.0182 19.0197 20.2722 17.8722 19.6482L17.4357 19.4097C17.0675 19.2091 16.6591 19.0934 16.2404 19.0712C15.8217 19.049 15.4033 19.1208 15.0159 19.2813C14.6285 19.4418 14.282 19.687 14.0018 19.9989C13.7215 20.3108 13.5146 20.6815 13.3962 21.0837L13.2552 21.5607C12.8862 22.8132 11.1132 22.8132 10.7442 21.5607L10.6032 21.0822C10.4847 20.6803 10.2777 20.31 9.99743 19.9985C9.7172 19.6869 9.37082 19.442 8.98367 19.2816C8.59652 19.1213 8.1784 19.0495 7.75994 19.0717C7.34148 19.0939 6.93328 19.2094 6.56524 19.4097L6.12724 19.6497C4.98124 20.2722 3.72724 19.0197 4.35124 17.8722L4.58974 17.4357C4.79067 17.0676 4.90661 16.6591 4.92908 16.2403C4.95154 15.8215 4.87995 15.4029 4.71955 15.0154C4.55916 14.6279 4.31403 14.2812 4.00216 14.0007C3.69028 13.7203 3.31958 13.5132 2.91724 13.3947L2.43874 13.2537C1.18624 12.8847 1.18624 11.1117 2.43874 10.7427L2.91724 10.6017C3.31895 10.4831 3.68905 10.2761 4.00045 9.99602C4.31186 9.71589 4.55668 9.36968 4.71702 8.98272C4.87735 8.59576 4.94913 8.17785 4.92711 7.75957C4.90509 7.34129 4.78982 6.93322 4.58974 6.56524L4.34974 6.12724C3.72724 4.98124 4.97974 3.72724 6.12724 4.35124L6.56524 4.58974C6.93328 4.7901 7.34148 4.9056 7.75994 4.92777C8.1784 4.94994 8.59652 4.87822 8.98367 4.71786C9.37082 4.55751 9.7172 4.31258 9.99743 4.00102C10.2777 3.68946 10.4847 3.31916 10.6032 2.91724L10.7442 2.43874Z" fill="black"/>
        </g>
        <defs>
            <clipPath id="clip0_1207_2914__gear">
                <rect width="24" height="24" fill="white"/>
            </clipPath>
        </defs>
    </symbol>
    <symbol id="home" viewBox="0 0 24 24" fill="none" xmlns="http://www.w3.org/2000/svg">
        <path fill-rule="evenodd" clip-rule="evenodd" d="M12.0001 4.32703L21.5993 13.8972V20.6075C21.5993 21.2421 21.3464 21.8506 20.8964 22.2993C20.4463 22.748 19.8359 23.0001 19.1995 23.0001H4.80068C4.16421 23.0001 3.55381 22.748 3.10376 22.2993C2.65371 21.8506 2.40088 21.2421 2.40088 20.6075V13.8972L12.0001 4.32703ZM19.9994 3.06217V8.64479L16.7997 5.45472V3.06217C16.7997 2.85065 16.8839 2.6478 17.034 2.49824C17.184 2.34867 17.3874 2.26465 17.5996 2.26465H19.1995C19.4116 2.26465 19.6151 2.34867 19.7651 2.49824C19.9151 2.6478 19.9994 2.85065 19.9994 3.06217Z" fill="#1C1C1C"/>
        <path fill-rule="evenodd" clip-rule="evenodd" d="M10.8689 1.467C11.1689 1.16798 11.5758 1 12 1C12.4242 1 12.8311 1.16798 13.1311 1.467L23.7654 12.0676C23.9156 12.2174 24 12.4205 24 12.6322C24 12.844 23.9156 13.0471 23.7654 13.1969C23.6152 13.3466 23.4115 13.4308 23.1991 13.4308C22.9866 13.4308 22.7829 13.3466 22.6327 13.1969L12 2.59469L1.3673 13.1969C1.21709 13.3466 1.01337 13.4308 0.800943 13.4308C0.58852 13.4308 0.384797 13.3466 0.234591 13.1969C0.0843849 13.0471 0 12.844 0 12.6322C0 12.4205 0.0843849 12.2174 0.234591 12.0676L10.8689 1.467Z" fill="#1C1C1C"/>
    </symbol>
    <symbol id="honeykeep-logo" viewBox="0 0 114 145" fill="none" xmlns="http://www.w3.org/2000/svg">
        <path d="M28.9129 25.3645C28.9129 28.8796 25.4681 27.9852 20.2214 27.9852C14.9747 27.9852 9.91291 28.8796 9.91291 25.3645C9.91291 21.8495 14.1662 19 19.4129 19C24.6596 19 28.9129 21.8495 28.9129 25.3645Z" fill="#FFAA00"/>
        <path d="M9.91321 120.027C9.91321 116.512 13.358 117.406 18.6047 117.406C23.8514 117.406 28.9132 116.512 28.9132 120.027C28.9132 123.542 24.6599 126.391 19.4132 126.391C14.1665 126.391 9.91321 123.542 9.91321 120.027Z" fill="#FFAA00"/>
        <rect x="4.95672" y="38" width="28.913" height="9.91303" rx="3" fill="#FFAA00"/>
        <path d="M4.95672 100.478C4.95672 98.8209 6.29986 97.4778 7.95672 97.4778H30.8697C32.5266 97.4778 33.8697 98.8209 33.8697 100.478V104.391C33.8697 106.048 32.5266 107.391 30.8697 107.391H7.95672C6.29986 107.391 4.95672 106.048 4.95672 104.391V100.478Z" fill="#FFAA00"/>
        <rect y="57.8262" width="38.826" height="9.91303" rx="3" fill="#FFAA00"/>
        <rect y="77.6516" width="38.826" height="9.91303" rx="3" fill="#FFAA00"/>
        <path d="M41.3402 75.3271C39.9518 73.6088 39.9518 70.8228 41.3402 69.1045L80.3412 20.8362C81.0368 19.9753 81.9895 19.5096 82.9727 19.5499L105.808 20.485C108.917 20.6124 110.404 25.2714 108.204 27.9939L58.1633 89.9252C56.7749 91.6435 54.5238 91.6435 53.1354 89.9252L41.3402 75.3271Z" fill="#FFAA00"/>
        <path d="M41.3402 69.4605C39.9518 71.1788 39.9518 73.9647 41.3402 75.6831L80.3412 123.951C81.0368 124.812 81.9895 125.278 82.9727 125.238L105.808 124.303C108.917 124.175 110.404 119.516 108.204 116.794L58.1633 54.8624C56.7749 53.1441 54.5238 53.1441 53.1354 54.8624L41.3402 69.4605Z" fill="#FFAA00"/>
    </symbol>
    <symbol id="information" viewBox="0 0 24 24" fill="none" xmlns="http://www.w3.org/2000/svg">
        <g clip-path="url(#clip0_1359_2412__information)">
            <path d="M12 12C13.5913 12 15.1174 11.3679 16.2426 10.2426C17.3679 9.11742 18 7.5913 18 6C18 4.4087 17.3679 2.88258 16.2426 1.75736C15.1174 0.632141 13.5913 0 12 0C10.4087 0 8.88258 0.632141 7.75736 1.75736C6.63214 2.88258 6 4.4087 6 6C6 7.5913 6.63214 9.11742 7.75736 10.2426C8.88258 11.3679 10.4087 12 12 12ZM16 6C16 7.06087 15.5786 8.07828 14.8284 8.82843C14.0783 9.57857 13.0609 10 12 10C10.9391 10 9.92172 9.57857 9.17157 8.82843C8.42143 8.07828 8 7.06087 8 6C8 4.93913 8.42143 3.92172 9.17157 3.17157C9.92172 2.42143 10.9391 2 12 2C13.0609 2 14.0783 2.42143 14.8284 3.17157C15.5786 3.92172 16 4.93913 16 6ZM24 22C24 24 22 24 22 24H2C2 24 0 24 0 22C0 20 2 14 12 14C22 14 24 20 24 22ZM22 21.992C21.998 21.5 21.692 20.02 20.336 18.664C19.032 17.36 16.578 16 12 16C7.42 16 4.968 17.36 3.664 18.664C2.308 20.02 2.004 21.5 2 21.992H22Z" fill="#1C1C1C"/>
        </g>
        <defs>
            <clipPath id="clip0_1359_2412__information">
                <rect width="24" height="24" fill="white"/>
            </clipPath>
        </defs>
    </symbol>
    <symbol id="link-chain" viewBox="0 0 24 24" fill="none" xmlns="http://www.w3.org/2000/svg">
        <path d="M6.02522 10.7976L3.57155 13.1644C2.5653 14.1351 2 15.4515 2 16.8242C2 18.1969 2.5653 19.5134 3.57155 20.4841C4.5778 21.4547 5.94257 22 7.36562 22C8.78867 22 10.1534 21.4547 11.1597 20.4841L14.4288 17.3288C15.0356 16.7434 15.488 16.0262 15.7479 15.2372C16.0079 14.4483 16.0679 13.6107 15.9228 12.7948C15.7777 11.9789 15.4319 11.2084 14.9143 10.5481C14.3967 9.88782 13.7224 9.35692 12.9481 9L11.9001 10.0109C11.7937 10.1137 11.7011 10.2291 11.6247 10.3542C12.2229 10.5201 12.7659 10.8338 13.2 11.2641C13.6341 11.6945 13.9443 12.2267 14.0998 12.8081C14.2553 13.3896 14.2508 14.0001 14.0868 14.5793C13.9227 15.1586 13.6048 15.6865 13.1645 16.1109L9.89708 19.2644C9.22593 19.9118 8.31566 20.2755 7.36651 20.2755C6.41736 20.2755 5.50709 19.9118 4.83594 19.2644C4.16479 18.617 3.78775 17.7389 3.78775 16.8234C3.78775 15.9078 4.16479 15.0297 4.83594 14.3823L6.25413 13.0161C6.05404 12.2928 5.97673 11.543 6.02522 10.7958V10.7976Z" fill="black"/>
        <path d="M9.57115 6.67007C8.96436 7.25555 8.512 7.97292 8.25205 8.76196C7.9921 9.551 7.93214 10.3887 8.0772 11.2047C8.22226 12.0207 8.56812 12.7913 9.08573 13.4517C9.60334 14.1121 10.2776 14.643 11.0519 15L12.4379 13.6611C11.8316 13.5042 11.2787 13.1961 10.8349 12.7678C10.3911 12.3394 10.0719 11.8059 9.90953 11.2209C9.74714 10.6358 9.74723 10.0198 9.90977 9.43483C10.0723 8.84983 10.3916 8.3164 10.8355 7.88816L14.1029 4.73424C14.7741 4.08675 15.6843 3.72299 16.6335 3.72299C17.5826 3.72299 18.4929 4.08675 19.1641 4.73424C19.8352 5.38172 20.2123 6.25991 20.2123 7.17559C20.2123 8.09128 19.8352 8.96946 19.1641 9.61694L17.7459 10.9834C17.9462 11.7081 18.0231 12.4586 17.9748 13.2039L20.4284 10.8368C21.4347 9.86598 22 8.54933 22 7.17645C22 5.80357 21.4347 4.48692 20.4284 3.51615C19.4222 2.54537 18.0574 2 16.6344 2C15.2113 2 13.8466 2.54537 12.8403 3.51615L9.57115 6.67007Z" fill="black"/>
    </symbol>
    <symbol id="money-bag" viewBox="0 0 32 32" fill="none" xmlns="http://www.w3.org/2000/svg">
        <path d="M9.78756 1.46067C11.0763 1.25641 13.2872 1 16.2658 1C19.2444 1 21.4552 1.25641 22.744 1.46067C23.6724 1.60781 24.2991 2.4165 24.2991 3.33039C24.2991 4.80837 23.6965 6.14527 22.724 7.1092C22.7017 7.1136 22.6785 7.11813 22.6544 7.1228C22.3498 7.1818 21.8899 7.26193 21.2851 7.34253C20.0754 7.50387 18.2864 7.66713 16.0006 7.66713C13.7148 7.66713 11.9258 7.50387 10.7161 7.34253C10.4184 7.30287 10.1558 7.26327 9.92956 7.22627C8.88569 6.25507 8.23242 4.86921 8.23242 3.33039C8.23242 2.4165 8.85922 1.60781 9.78756 1.46067Z" fill="#FFAA00"/>
        <path d="M8.94628 9.0826C8.95308 9.08394 8.95988 9.08527 8.96675 9.0866C9.30801 9.15267 9.80648 9.2392 10.4517 9.3252C11.742 9.49727 13.6196 9.66734 16.0005 9.66734C18.3814 9.66734 20.259 9.49727 21.5493 9.3252C22.1945 9.2392 22.693 9.15267 23.0343 9.0866C23.2049 9.05354 23.3363 9.02567 23.4271 9.00547C23.4404 9.00254 23.4529 8.99974 23.4645 8.99707C25.2199 10.2288 26.7345 11.8425 27.9097 13.6225C29.5951 16.1751 30.599 19.0952 30.599 21.7621C30.599 25.1735 28.9557 27.5055 26.327 28.9649C23.7217 30.4113 20.1558 31.0002 16.2657 31.0002C12.3756 31.0002 8.80968 30.4113 6.20441 28.9649C3.5757 27.5055 1.93237 25.1735 1.93237 21.7621C1.93237 19.0952 2.93625 16.1751 4.62164 13.6225C5.76985 11.8833 7.24201 10.3031 8.94628 9.0826Z" fill="#FFAA00"/>
    </symbol>
    <symbol id="naver-logo" viewBox="0 0 32 32" fill="none" xmlns="http://www.w3.org/2000/svg">
        <rect width="32" height="32" fill="#03C75A" rx="4"/>
        <path d="M19.52 16.33L11.72 7H7v18h5.28v-9.33L20.28 25H25V7h-5.48v9.33z" fill="white"/>
    </symbol>
    <symbol id="non-fill-star" viewBox="0 0 40 40" fill="none" xmlns="http://www.w3.org/2000/svg">
        <rect x="0.5" y="0.5" width="39" height="39" rx="19.5" fill="#D8D8D8"/>
        <rect x="0.5" y="0.5" width="39" height="39" rx="19.5" stroke="#D8D8D8"/>
        <path d="M11.0131 31.8734C10.8766 32.643 11.643 33.2444 12.3185 32.9012L20.0009 28.9911L27.6815 32.9012C28.357 33.2444 29.1235 32.643 28.987 31.8752L27.5345 23.6771L33.6979 17.8605C34.2754 17.3163 33.9779 16.3214 33.2044 16.2139L24.6331 15.0076L20.8111 7.50808C20.7383 7.35606 20.6235 7.22762 20.4799 7.13768C20.3363 7.04774 20.1699 7 20 7C19.8301 7 19.6637 7.04774 19.5202 7.13768C19.3766 7.22762 19.2617 7.35606 19.1889 7.50808L15.367 15.0094L6.79563 16.2157C6.02389 16.3231 5.72465 17.318 6.30039 17.8622L12.4655 23.6788L11.0131 31.8769V31.8734ZM20.0009 20.9756V21C20.0293 20.8421 20.0506 21.1526 20.0009 21C19.9512 20.8474 20.1172 21.0872 20.0009 20.9756C20.1477 20.9536 19.8811 21.0869 20.0009 21C20.1207 20.9131 19.9355 21.1077 20.0009 20.9756V21C20.0663 21.1321 19.8811 20.8887 20.0009 20.9756C20.1207 21.0625 19.8541 20.9536 20.0009 20.9756V21L20.0082 21.0155C19.8916 21.1273 20.0506 20.8471 20.0009 21C19.9511 21.1529 19.9794 20.8573 20.0082 21.0155L20.0009 21C19.8762 20.9363 20.1412 21 20.0009 21C19.8606 21 20.1256 20.9119 20.0009 20.9756Z" fill="#F5F5F5"/>
    </symbol>
    <symbol id="notice" viewBox="0 0 24 24" fill="none" xmlns="http://www.w3.org/2000/svg">
        <g clip-path="url(#clip0_1369_2384__notice)">
            <path d="M12 19C10.1435 19 8.36301 18.2625 7.05025 16.9497C5.7375 15.637 5 13.8565 5 12C5 10.1435 5.7375 8.36301 7.05025 7.05025C8.36301 5.7375 10.1435 5 12 5C13.8565 5 15.637 5.7375 16.9497 7.05025C18.2625 8.36301 19 10.1435 19 12C19 13.8565 18.2625 15.637 16.9497 16.9497C15.637 18.2625 13.8565 19 12 19ZM12 20C14.1217 20 16.1566 19.1571 17.6569 17.6569C19.1571 16.1566 20 14.1217 20 12C20 9.87827 19.1571 7.84344 17.6569 6.34315C16.1566 4.84285 14.1217 4 12 4C9.87827 4 7.84344 4.84285 6.34315 6.34315C4.84285 7.84344 4 9.87827 4 12C4 14.1217 4.84285 16.1566 6.34315 17.6569C7.84344 19.1571 9.87827 20 12 20V20Z" fill="#2196F3"/>
            <path d="M11.002 15.0001C11.002 14.8688 11.0278 14.7388 11.0781 14.6174C11.1283 14.4961 11.202 14.3859 11.2948 14.293C11.3877 14.2002 11.4979 14.1265 11.6193 14.0762C11.7406 14.026 11.8706 14.0001 12.002 14.0001C12.1333 14.0001 12.2633 14.026 12.3846 14.0762C12.506 14.1265 12.6162 14.2002 12.7091 14.293C12.8019 14.3859 12.8756 14.4961 12.9258 14.6174C12.9761 14.7388 13.002 14.8688 13.002 15.0001C13.002 15.2653 12.8966 15.5197 12.7091 15.7072C12.5215 15.8948 12.2672 16.0001 12.002 16.0001C11.7367 16.0001 11.4824 15.8948 11.2948 15.7072C11.1073 15.5197 11.002 15.2653 11.002 15.0001V15.0001ZM11.1 8.99512C11.0866 8.86896 11.1 8.74141 11.1392 8.62075C11.1783 8.50008 11.2424 8.389 11.3273 8.2947C11.4121 8.20041 11.5159 8.12501 11.6318 8.0734C11.7477 8.02179 11.8731 7.99512 12 7.99512C12.1268 7.99512 12.2523 8.02179 12.3681 8.0734C12.484 8.12501 12.5878 8.20041 12.6726 8.2947C12.7575 8.389 12.8216 8.50008 12.8608 8.62075C12.8999 8.74141 12.9133 8.86896 12.9 8.99512L12.55 12.5021C12.5382 12.6399 12.4752 12.7682 12.3733 12.8618C12.2715 12.9553 12.1382 13.0072 12 13.0072C11.8617 13.0072 11.7284 12.9553 11.6266 12.8618C11.5248 12.7682 11.4617 12.6399 11.45 12.5021L11.1 8.99512Z" fill="#2196F3"/>
        </g>
        <defs>
            <clipPath id="clip0_1369_2384__notice">
                <rect width="16" height="16" fill="white" transform="translate(4 4)"/>
            </clipPath>
        </defs>
    </symbol>
    <symbol id="plus-circle-fill" viewBox="0 0 24 24" fill="none" xmlns="http://www.w3.org/2000/svg">
        <g clip-path="url(#clip0_1197_2898__plus-circle-fill)">
            <path d="M24 12C24 15.1826 22.7357 18.2348 20.4853 20.4853C18.2348 22.7357 15.1826 24 12 24C8.8174 24 5.76516 22.7357 3.51472 20.4853C1.26428 18.2348 0 15.1826 0 12C0 8.8174 1.26428 5.76516 3.51472 3.51472C5.76516 1.26428 8.8174 0 12 0C15.1826 0 18.2348 1.26428 20.4853 3.51472C22.7357 5.76516 24 8.8174 24 12V12ZM12.75 6.75C12.75 6.55109 12.671 6.36032 12.5303 6.21967C12.3897 6.07902 12.1989 6 12 6C11.8011 6 11.6103 6.07902 11.4697 6.21967C11.329 6.36032 11.25 6.55109 11.25 6.75V11.25H6.75C6.55109 11.25 6.36032 11.329 6.21967 11.4697C6.07902 11.6103 6 11.8011 6 12C6 12.1989 6.07902 12.3897 6.21967 12.5303C6.36032 12.671 6.55109 12.75 6.75 12.75H11.25V17.25C11.25 17.4489 11.329 17.6397 11.4697 17.7803C11.6103 17.921 11.8011 18 12 18C12.1989 18 12.3897 17.921 12.5303 17.7803C12.671 17.6397 12.75 17.4489 12.75 17.25V12.75H17.25C17.4489 12.75 17.6397 12.671 17.7803 12.5303C17.921 12.3897 18 12.1989 18 12C18 11.8011 17.921 11.6103 17.7803 11.4697C17.6397 11.329 17.4489 11.25 17.25 11.25H12.75V6.75Z" fill="#FFAA00"/>
        </g>
        <defs>
            <clipPath id="clip0_1197_2898__plus-circle-fill">
                <rect width="24" height="24" fill="white"/>
            </clipPath>
        </defs>
    </symbol>
    <symbol id="plus-square" viewBox="0 0 24 24" fill="none" xmlns="http://www.w3.org/2000/svg">
        <g clip-path="url(#clip0_1336_2394__plus-square)">
            <path d="M21 1.5C21.3978 1.5 21.7794 1.65804 22.0607 1.93934C22.342 2.22064 22.5 2.60218 22.5 3V21C22.5 21.3978 22.342 21.7794 22.0607 22.0607C21.7794 22.342 21.3978 22.5 21 22.5H3C2.60218 22.5 2.22064 22.342 1.93934 22.0607C1.65804 21.7794 1.5 21.3978 1.5 21V3C1.5 2.60218 1.65804 2.22064 1.93934 1.93934C2.22064 1.65804 2.60218 1.5 3 1.5H21ZM3 0C2.20435 0 1.44129 0.316071 0.87868 0.87868C0.316071 1.44129 0 2.20435 0 3L0 21C0 21.7956 0.316071 22.5587 0.87868 23.1213C1.44129 23.6839 2.20435 24 3 24H21C21.7956 24 22.5587 23.6839 23.1213 23.1213C23.6839 22.5587 24 21.7956 24 21V3C24 2.20435 23.6839 1.44129 23.1213 0.87868C22.5587 0.316071 21.7956 0 21 0L3 0Z" fill="black"/>
            <path d="M12 6C12.1989 6 12.3897 6.07902 12.5303 6.21967C12.671 6.36032 12.75 6.55109 12.75 6.75V11.25H17.25C17.4489 11.25 17.6397 11.329 17.7803 11.4697C17.921 11.6103 18 11.8011 18 12C18 12.1989 17.921 12.3897 17.7803 12.5303C17.6397 12.671 17.4489 12.75 17.25 12.75H12.75V17.25C12.75 17.4489 12.671 17.6397 12.5303 17.7803C12.3897 17.921 12.1989 18 12 18C11.8011 18 11.6103 17.921 11.4697 17.7803C11.329 17.6397 11.25 17.4489 11.25 17.25V12.75H6.75C6.55109 12.75 6.36032 12.671 6.21967 12.5303C6.07902 12.3897 6 12.1989 6 12C6 11.8011 6.07902 11.6103 6.21967 11.4697C6.36032 11.329 6.55109 11.25 6.75 11.25H11.25V6.75C11.25 6.55109 11.329 6.36032 11.4697 6.21967C11.6103 6.07902 11.8011 6 12 6Z" fill="black"/>
        </g>
        <defs>
            <clipPath id="clip0_1336_2394__plus-square">
                <rect width="24" height="24" fill="white"/>
            </clipPath>
        </defs>
    </symbol>
    <symbol id="pocket" viewBox="0 0 24 24" fill="none" xmlns="http://www.w3.org/2000/svg">
        <g clip-path="url(#clip0_1359_2400__pocket)">
            <path d="M8.6355 1.60669C8.72002 1.6573 8.79374 1.72406 8.85245 1.80317C8.91116 1.88228 8.95371 1.97218 8.97767 2.06774C9.00163 2.16329 9.00652 2.26263 8.99208 2.36008C8.97764 2.45753 8.94414 2.55118 8.8935 2.63569L5.0745 9.00019H18.9255L15.105 2.63569C15.0028 2.46502 14.9725 2.26073 15.0209 2.06775C15.0693 1.87478 15.1923 1.70893 15.363 1.60669C15.5337 1.50444 15.738 1.47419 15.9309 1.52257C16.1239 1.57096 16.2898 1.69402 16.392 1.86469L20.6745 9.00019H22.5C22.8978 9.00019 23.2794 9.15822 23.5607 9.43953C23.842 9.72083 24 10.1024 24 10.5002V12.0002C24 12.398 23.842 12.7795 23.5607 13.0608C23.2794 13.3421 22.8978 13.5002 22.5 13.5002V20.2502C22.5 21.2447 22.1049 22.1986 21.4016 22.9018C20.6984 23.6051 19.7446 24.0002 18.75 24.0002H5.25C4.25544 24.0002 3.30161 23.6051 2.59835 22.9018C1.89509 22.1986 1.5 21.2447 1.5 20.2502V13.5002C1.10218 13.5002 0.720644 13.3421 0.43934 13.0608C0.158035 12.7795 0 12.398 0 12.0002V10.5002C0 10.1024 0.158035 9.72083 0.43934 9.43953C0.720644 9.15822 1.10218 9.00019 1.5 9.00019H3.3255L7.605 1.86469C7.65561 1.78017 7.72238 1.70645 7.80149 1.64774C7.8806 1.58903 7.9705 1.54648 8.06605 1.52252C8.16161 1.49856 8.26095 1.49366 8.3584 1.5081C8.45585 1.52254 8.5495 1.55604 8.634 1.60669H8.6355ZM3 13.5002V20.2502C3 20.8469 3.23705 21.4192 3.65901 21.8412C4.08097 22.2631 4.65326 22.5002 5.25 22.5002H18.75C19.3467 22.5002 19.919 22.2631 20.341 21.8412C20.7629 21.4192 21 20.8469 21 20.2502V13.5002H3ZM1.5 10.5002V12.0002H22.5V10.5002H1.5ZM6 15.0002C6.19891 15.0002 6.38968 15.0792 6.53033 15.2199C6.67098 15.3605 6.75 15.5513 6.75 15.7502V20.2502C6.75 20.4491 6.67098 20.6399 6.53033 20.7805C6.38968 20.9212 6.19891 21.0002 6 21.0002C5.80109 21.0002 5.61032 20.9212 5.46967 20.7805C5.32902 20.6399 5.25 20.4491 5.25 20.2502V15.7502C5.25 15.5513 5.32902 15.3605 5.46967 15.2199C5.61032 15.0792 5.80109 15.0002 6 15.0002ZM9 15.0002C9.19891 15.0002 9.38968 15.0792 9.53033 15.2199C9.67098 15.3605 9.75 15.5513 9.75 15.7502V20.2502C9.75 20.4491 9.67098 20.6399 9.53033 20.7805C9.38968 20.9212 9.19891 21.0002 9 21.0002C8.80109 21.0002 8.61032 20.9212 8.46967 20.7805C8.32902 20.6399 8.25 20.4491 8.25 20.2502V15.7502C8.25 15.5513 8.32902 15.3605 8.46967 15.2199C8.61032 15.0792 8.80109 15.0002 9 15.0002ZM12 15.0002C12.1989 15.0002 12.3897 15.0792 12.5303 15.2199C12.671 15.3605 12.75 15.5513 12.75 15.7502V20.2502C12.75 20.4491 12.671 20.6399 12.5303 20.7805C12.3897 20.9212 12.1989 21.0002 12 21.0002C11.8011 21.0002 11.6103 20.9212 11.4697 20.7805C11.329 20.6399 11.25 20.4491 11.25 20.2502V15.7502C11.25 15.5513 11.329 15.3605 11.4697 15.2199C11.6103 15.0792 11.8011 15.0002 12 15.0002ZM15 15.0002C15.1989 15.0002 15.3897 15.0792 15.5303 15.2199C15.671 15.3605 15.75 15.5513 15.75 15.7502V20.2502C15.75 20.4491 15.671 20.6399 15.5303 20.7805C15.3897 20.9212 15.1989 21.0002 15 21.0002C14.8011 21.0002 14.6103 20.9212 14.4697 20.7805C14.329 20.6399 14.25 20.4491 14.25 20.2502V15.7502C14.25 15.5513 14.329 15.3605 14.4697 15.2199C14.6103 15.0792 14.8011 15.0002 15 15.0002ZM18 15.0002C18.1989 15.0002 18.3897 15.0792 18.5303 15.2199C18.671 15.3605 18.75 15.5513 18.75 15.7502V20.2502C18.75 20.4491 18.671 20.6399 18.5303 20.7805C18.3897 20.9212 18.1989 21.0002 18 21.0002C17.8011 21.0002 17.6103 20.9212 17.4697 20.7805C17.329 20.6399 17.25 20.4491 17.25 20.2502V15.7502C17.25 15.5513 17.329 15.3605 17.4697 15.2199C17.6103 15.0792 17.8011 15.0002 18 15.0002Z" fill="#1C1C1C"/>
        </g>
        <defs>
            <clipPath id="clip0_1359_2400__pocket">
                <rect width="24" height="24" fill="white"/>
            </clipPath>
        </defs>
    </symbol>
    <symbol id="qr-code" viewBox="0 0 32 32" fill="none" xmlns="http://www.w3.org/2000/svg">
        <rect width="32" height="32" rx="8" fill="#F7F9FF"/>
        <path d="M7 10C7 8.58579 7 7.87868 7.43934 7.43934C7.87868 7 8.58579 7 10 7C11.4142 7 12.1213 7 12.5607 7.43934C13 7.87868 13 8.58579 13 10C13 11.4142 13 12.1213 12.5607 12.5607C12.1213 13 11.4142 13 10 13C8.58579 13 7.87868 13 7.43934 12.5607C7 12.1213 7 11.4142 7 10Z" stroke="#141B34" stroke-width="2"/>
        <path d="M7 22.0002C7 20.586 7 19.8789 7.43934 19.4396C7.87868 19.0002 8.58579 19.0002 10 19.0002C11.4142 19.0002 12.1213 19.0002 12.5607 19.4396C13 19.8789 13 20.586 13 22.0002C13 23.4145 13 24.1216 12.5607 24.5609C12.1213 25.0002 11.4142 25.0002 10 25.0002C8.58579 25.0002 7.87868 25.0002 7.43934 24.5609C7 24.1216 7 23.4145 7 22.0002Z" stroke="#141B34" stroke-width="2"/>
        <path d="M7 16L13 16" stroke="#141B34" stroke-width="2" stroke-linecap="round" stroke-linejoin="round"/>
        <path d="M16 7V12" stroke="#141B34" stroke-width="2" stroke-linecap="round" stroke-linejoin="round"/>
        <path d="M19 10C19 8.58579 19 7.87868 19.4393 7.43934C19.8787 7 20.5858 7 22 7C23.4142 7 24.1213 7 24.5607 7.43934C25 7.87868 25 8.58579 25 10C25 11.4142 25 12.1213 24.5607 12.5607C24.1213 13 23.4142 13 22 13C20.5858 13 19.8787 13 19.4393 12.5607C19 12.1213 19 11.4142 19 10Z" stroke="#141B34" stroke-width="2"/>
        <path d="M25 16H19C17.5858 16 16.8787 16 16.4393 16.4393C16 16.8787 16 17.5858 16 19M16 21.7692V24.5385M19 19V20.5C19 21.9464 19.7837 22 21 22C21.5523 22 22 22.4477 22 23M20 25H19M22 19C23.4142 19 24.1213 19 24.5607 19.44C25 19.8799 25 20.5881 25 22.0043C25 23.4206 25 24.1287 24.5607 24.5687C24.24 24.8898 23.7767 24.9766 23 25" stroke="#141B34" stroke-width="2" stroke-linecap="round"/>
    </symbol>
    <symbol id="receipt-cutoff" width="24" height="24" viewBox="0 0 24 24" fill="none" xmlns="http://www.w3.org/2000/svg">
        <g clip-path="url(#clip0_1336_2402__receipt-cutoff)">
            <path d="M4.5 6.75C4.5 6.55109 4.57902 6.36032 4.71967 6.21967C4.86032 6.07902 5.05109 6 5.25 6H14.25C14.4489 6 14.6397 6.07902 14.7803 6.21967C14.921 6.36032 15 6.55109 15 6.75C15 6.94891 14.921 7.13968 14.7803 7.28033C14.6397 7.42098 14.4489 7.5 14.25 7.5H5.25C5.05109 7.5 4.86032 7.42098 4.71967 7.28033C4.57902 7.13968 4.5 6.94891 4.5 6.75ZM4.5 9.75C4.5 9.55109 4.57902 9.36032 4.71967 9.21967C4.86032 9.07902 5.05109 9 5.25 9H14.25C14.4489 9 14.6397 9.07902 14.7803 9.21967C14.921 9.36032 15 9.55109 15 9.75C15 9.94891 14.921 10.1397 14.7803 10.2803C14.6397 10.421 14.4489 10.5 14.25 10.5H5.25C5.05109 10.5 4.86032 10.421 4.71967 10.2803C4.57902 10.1397 4.5 9.94891 4.5 9.75ZM4.5 12.75C4.5 12.5511 4.57902 12.3603 4.71967 12.2197C4.86032 12.079 5.05109 12 5.25 12H14.25C14.4489 12 14.6397 12.079 14.7803 12.2197C14.921 12.3603 15 12.5511 15 12.75C15 12.9489 14.921 13.1397 14.7803 13.2803C14.6397 13.421 14.4489 13.5 14.25 13.5H5.25C5.05109 13.5 4.86032 13.421 4.71967 13.2803C4.57902 13.1397 4.5 12.9489 4.5 12.75ZM4.5 15.75C4.5 15.5511 4.57902 15.3603 4.71967 15.2197C4.86032 15.079 5.05109 15 5.25 15H14.25C14.4489 15 14.6397 15.079 14.7803 15.2197C14.921 15.3603 15 15.5511 15 15.75C15 15.9489 14.921 16.1397 14.7803 16.2803C14.6397 16.421 14.4489 16.5 14.25 16.5H5.25C5.05109 16.5 4.86032 16.421 4.71967 16.2803C4.57902 16.1397 4.5 15.9489 4.5 15.75ZM4.5 18.75C4.5 18.5511 4.57902 18.3603 4.71967 18.2197C4.86032 18.079 5.05109 18 5.25 18H14.25C14.4489 18 14.6397 18.079 14.7803 18.2197C14.921 18.3603 15 18.5511 15 18.75C15 18.9489 14.921 19.1397 14.7803 19.2803C14.6397 19.421 14.4489 19.5 14.25 19.5H5.25C5.05109 19.5 4.86032 19.421 4.71967 19.2803C4.57902 19.1397 4.5 18.9489 4.5 18.75ZM17.25 6C17.0511 6 16.8603 6.07902 16.7197 6.21967C16.579 6.36032 16.5 6.55109 16.5 6.75C16.5 6.94891 16.579 7.13968 16.7197 7.28033C16.8603 7.42098 17.0511 7.5 17.25 7.5H18.75C18.9489 7.5 19.1397 7.42098 19.2803 7.28033C19.421 7.13968 19.5 6.94891 19.5 6.75C19.5 6.55109 19.421 6.36032 19.2803 6.21967C19.1397 6.07902 18.9489 6 18.75 6H17.25ZM17.25 9C17.0511 9 16.8603 9.07902 16.7197 9.21967C16.579 9.36032 16.5 9.55109 16.5 9.75C16.5 9.94891 16.579 10.1397 16.7197 10.2803C16.8603 10.421 17.0511 10.5 17.25 10.5H18.75C18.9489 10.5 19.1397 10.421 19.2803 10.2803C19.421 10.1397 19.5 9.94891 19.5 9.75C19.5 9.55109 19.421 9.36032 19.2803 9.21967C19.1397 9.07902 18.9489 9 18.75 9H17.25ZM17.25 12C17.0511 12 16.8603 12.079 16.7197 12.2197C16.579 12.3603 16.5 12.5511 16.5 12.75C16.5 12.9489 16.579 13.1397 16.7197 13.2803C16.8603 13.421 17.0511 13.5 17.25 13.5H18.75C18.9489 13.5 19.1397 13.421 19.2803 13.2803C19.421 13.1397 19.5 12.9489 19.5 12.75C19.5 12.5511 19.421 12.3603 19.2803 12.2197C19.1397 12.079 18.9489 12 18.75 12H17.25ZM17.25 15C17.0511 15 16.8603 15.079 16.7197 15.2197C16.579 15.3603 16.5 15.5511 16.5 15.75C16.5 15.9489 16.579 16.1397 16.7197 16.2803C16.8603 16.421 17.0511 16.5 17.25 16.5H18.75C18.9489 16.5 19.1397 16.421 19.2803 16.2803C19.421 16.1397 19.5 15.9489 19.5 15.75C19.5 15.5511 19.421 15.3603 19.2803 15.2197C19.1397 15.079 18.9489 15 18.75 15H17.25ZM17.25 18C17.0511 18 16.8603 18.079 16.7197 18.2197C16.579 18.3603 16.5 18.5511 16.5 18.75C16.5 18.9489 16.579 19.1397 16.7197 19.2803C16.8603 19.421 17.0511 19.5 17.25 19.5H18.75C18.9489 19.5 19.1397 19.421 19.2803 19.2803C19.421 19.1397 19.5 18.9489 19.5 18.75C19.5 18.5511 19.421 18.3603 19.2803 18.2197C19.1397 18.079 18.9489 18 18.75 18H17.25Z" fill="black"/>
            <path d="M3.531 0.968876C3.44696 0.884775 3.34414 0.821857 3.231 0.785311C3.11787 0.748766 2.99767 0.73964 2.88031 0.758686C2.76296 0.777733 2.65181 0.824406 2.55604 0.894856C2.46027 0.965306 2.38262 1.05751 2.3295 1.16388L1.5795 2.66388C1.52723 2.76817 1.50001 2.88322 1.5 2.99988V22.4999H0.75C0.551088 22.4999 0.360322 22.5789 0.21967 22.7195C0.0790176 22.8602 0 23.051 0 23.2499C0 23.4488 0.0790176 23.6396 0.21967 23.7802C0.360322 23.9209 0.551088 23.9999 0.75 23.9999H23.25C23.4489 23.9999 23.6397 23.9209 23.7803 23.7802C23.921 23.6396 24 23.4488 24 23.2499C24 23.051 23.921 22.8602 23.7803 22.7195C23.6397 22.5789 23.4489 22.4999 23.25 22.4999H22.5V2.99988C22.5 2.88322 22.4728 2.76817 22.4205 2.66388L21.6705 1.16388C21.6173 1.05778 21.5397 0.965829 21.4441 0.895568C21.3484 0.825306 21.2375 0.778744 21.1203 0.759709C21.0032 0.740674 20.8832 0.749708 20.7702 0.786071C20.6573 0.822433 20.5545 0.885084 20.4705 0.968876L19.5 1.93938L18.531 0.968876C18.4613 0.899031 18.3786 0.843617 18.2874 0.805807C18.1963 0.767997 18.0987 0.748535 18 0.748535C17.9013 0.748535 17.8037 0.767997 17.7126 0.805807C17.6214 0.843617 17.5387 0.899031 17.469 0.968876L16.5 1.93938L15.531 0.968876C15.4613 0.899031 15.3786 0.843617 15.2874 0.805807C15.1963 0.767997 15.0987 0.748535 15 0.748535C14.9013 0.748535 14.8037 0.767997 14.7126 0.805807C14.6214 0.843617 14.5387 0.899031 14.469 0.968876L13.5 1.93938L12.531 0.968876C12.4613 0.899031 12.3786 0.843617 12.2874 0.805807C12.1963 0.767997 12.0987 0.748535 12 0.748535C11.9013 0.748535 11.8037 0.767997 11.7125 0.805807C11.6214 0.843617 11.5387 0.899031 11.469 0.968876L10.5 1.93938L9.531 0.968876C9.46133 0.899031 9.37857 0.843617 9.28745 0.805807C9.19633 0.767997 9.09865 0.748535 9 0.748535C8.90135 0.748535 8.80367 0.767997 8.71255 0.805807C8.62143 0.843617 8.53867 0.899031 8.469 0.968876L7.5 1.93938L6.531 0.968876C6.46133 0.899031 6.37857 0.843617 6.28745 0.805807C6.19633 0.767997 6.09865 0.748535 6 0.748535C5.90135 0.748535 5.80367 0.767997 5.71255 0.805807C5.62143 0.843617 5.53867 0.899031 5.469 0.968876L4.5 1.93938L3.531 0.968876ZM3.2055 2.76588L3.9705 3.53088C4.11115 3.67148 4.30188 3.75047 4.50075 3.75047C4.69962 3.75047 4.89035 3.67148 5.031 3.53088L6 2.56038L6.969 3.53088C7.03867 3.60072 7.12143 3.65614 7.21255 3.69394C7.30367 3.73175 7.40135 3.75122 7.5 3.75122C7.59865 3.75122 7.69633 3.73175 7.78745 3.69394C7.87857 3.65614 7.96133 3.60072 8.031 3.53088L9 2.56038L9.969 3.53088C10.0387 3.60072 10.1214 3.65614 10.2125 3.69394C10.3037 3.73175 10.4013 3.75122 10.5 3.75122C10.5987 3.75122 10.6963 3.73175 10.7875 3.69394C10.8786 3.65614 10.9613 3.60072 11.031 3.53088L12 2.56038L12.969 3.53088C13.0387 3.60072 13.1214 3.65614 13.2126 3.69394C13.3037 3.73175 13.4013 3.75122 13.5 3.75122C13.5987 3.75122 13.6963 3.73175 13.7874 3.69394C13.8786 3.65614 13.9613 3.60072 14.031 3.53088L15 2.56038L15.969 3.53088C16.0387 3.60072 16.1214 3.65614 16.2126 3.69394C16.3037 3.73175 16.4013 3.75122 16.5 3.75122C16.5987 3.75122 16.6963 3.73175 16.7874 3.69394C16.8786 3.65614 16.9613 3.60072 17.031 3.53088L18 2.56038L18.969 3.53088C19.0387 3.60072 19.1214 3.65614 19.2126 3.69394C19.3037 3.73175 19.4013 3.75122 19.5 3.75122C19.5987 3.75122 19.6963 3.73175 19.7874 3.69394C19.8786 3.65614 19.9613 3.60072 20.031 3.53088L20.7945 2.76588L21 3.17688V22.4999H3V3.17688L3.2055 2.76588Z" fill="black"/>
        </g>
        <defs>
            <clipPath id="clip0_1336_2402__receipt-cutoff">
                <rect width="24" height="24" fill="white"/>
            </clipPath>
        </defs>
    </symbol>
    <symbol id="search" viewBox="0 0 24 24" fill="none" xmlns="http://www.w3.org/2000/svg">
        <g clip-path="url(#clip0_1197_2873__search)">
            <path d="M17.6134 15.5152C19.0658 13.5332 19.7163 11.0759 19.4348 8.6349C19.1533 6.19389 17.9605 3.94918 16.095 2.34987C14.2295 0.750556 11.829 -0.0854205 9.37362 0.00918925C6.91825 0.103799 4.58915 1.12202 2.85227 2.86014C1.1154 4.59825 0.098846 6.92809 0.00599324 9.38352C-0.0868595 11.839 0.750834 14.2389 2.35148 16.1032C3.95213 17.9676 6.19769 19.1588 8.6389 19.4386C11.0801 19.7183 13.5369 19.066 15.5179 17.6122H15.5164C15.5614 17.6722 15.6094 17.7292 15.6634 17.7847L21.4384 23.5597C21.7196 23.8411 22.1012 23.9993 22.4991 23.9995C22.897 23.9996 23.2787 23.8417 23.5601 23.5604C23.8416 23.2792 23.9998 22.8976 23.9999 22.4997C24.0001 22.1018 23.8421 21.7201 23.5609 21.4387L17.7859 15.6637C17.7322 15.6094 17.6746 15.5592 17.6134 15.5137V15.5152ZM18.0004 9.74917C18.0004 10.8326 17.787 11.9054 17.3724 12.9063C16.9578 13.9072 16.3501 14.8167 15.584 15.5828C14.8179 16.3489 13.9084 16.9566 12.9075 17.3712C11.9066 17.7858 10.8338 17.9992 9.75037 17.9992C8.66696 17.9992 7.59417 17.7858 6.59323 17.3712C5.5923 16.9566 4.68282 16.3489 3.91674 15.5828C3.15066 14.8167 2.54297 13.9072 2.12836 12.9063C1.71376 11.9054 1.50037 10.8326 1.50037 9.74917C1.50037 7.56114 2.36956 5.46272 3.91674 3.91554C5.46391 2.36837 7.56233 1.49917 9.75037 1.49917C11.9384 1.49917 14.0368 2.36837 15.584 3.91554C17.1312 5.46272 18.0004 7.56114 18.0004 9.74917Z" fill="black"/>
        </g>
        <defs>
            <clipPath id="clip0_1197_2873__search">
                <rect width="24" height="24" fill="white"/>
            </clipPath>
        </defs>
    </symbol>
    <symbol id="send-plane" viewBox="0 0 24 24" fill="none" xmlns="http://www.w3.org/2000/svg">
        <path d="M16.1401 2.96004L7.11012 5.96004C1.04012 7.99004 1.04012 11.3 7.11012 13.32L9.79012 14.21L10.6801 16.89C12.7001 22.96 16.0201 22.96 18.0401 16.89L21.0501 7.87004C22.3901 3.82004 20.1901 1.61004 16.1401 2.96004V2.96004ZM16.4601 8.34004L12.6601 12.16C12.5101 12.31 12.3201 12.38 12.1301 12.38C11.9401 12.38 11.7501 12.31 11.6001 12.16C11.4606 12.0189 11.3824 11.8285 11.3824 11.63C11.3824 11.4316 11.4606 11.2412 11.6001 11.1L15.4001 7.28004C15.6901 6.99004 16.1701 6.99004 16.4601 7.28004C16.7501 7.57004 16.7501 8.05004 16.4601 8.34004Z" fill="#FFAA00"/>
    </symbol>
    <symbol id="three-dots-vertical" viewBox="0 0 24 24" fill="none" xmlns="http://www.w3.org/2000/svg">
        <path d="M14.5 19.5C14.5 20.0967 14.2629 20.669 13.841 21.091C13.419 21.5129 12.8467 21.75 12.25 21.75C11.6533 21.75 11.081 21.5129 10.659 21.091C10.2371 20.669 10 20.0967 10 19.5C10 18.9033 10.2371 18.331 10.659 17.909C11.081 17.4871 11.6533 17.25 12.25 17.25C12.8467 17.25 13.419 17.4871 13.841 17.909C14.2629 18.331 14.5 18.9033 14.5 19.5ZM14.5 12C14.5 12.5967 14.2629 13.169 13.841 13.591C13.419 14.0129 12.8467 14.25 12.25 14.25C11.6533 14.25 11.081 14.0129 10.659 13.591C10.2371 13.169 10 12.5967 10 12C10 11.4033 10.2371 10.831 10.659 10.409C11.081 9.98705 11.6533 9.75 12.25 9.75C12.8467 9.75 13.419 9.98705 13.841 10.409C14.2629 10.831 14.5 11.4033 14.5 12V12ZM14.5 4.5C14.5 5.09674 14.2629 5.66903 13.841 6.09099C13.419 6.51295 12.8467 6.75 12.25 6.75C11.6533 6.75 11.081 6.51295 10.659 6.09099C10.2371 5.66903 10 5.09674 10 4.5C10 3.90326 10.2371 3.33097 10.659 2.90901C11.081 2.48705 11.6533 2.25 12.25 2.25C12.8467 2.25 13.419 2.48705 13.841 2.90901C14.2629 3.33097 14.5 3.90326 14.5 4.5V4.5Z" fill="#858585"/>
    </symbol>
    <symbol id="trash" viewBox="0 0 24 24" fill="none" xmlns="http://www.w3.org/2000/svg">
        <path d="M8.25 8.25C8.44891 8.25 8.63968 8.32902 8.78033 8.46967C8.92098 8.61032 9 8.80109 9 9V18C9 18.1989 8.92098 18.3897 8.78033 18.5303C8.63968 18.671 8.44891 18.75 8.25 18.75C8.05109 18.75 7.86032 18.671 7.71967 18.5303C7.57902 18.3897 7.5 18.1989 7.5 18V9C7.5 8.80109 7.57902 8.61032 7.71967 8.46967C7.86032 8.32902 8.05109 8.25 8.25 8.25ZM12 8.25C12.1989 8.25 12.3897 8.32902 12.5303 8.46967C12.671 8.61032 12.75 8.80109 12.75 9V18C12.75 18.1989 12.671 18.3897 12.5303 18.5303C12.3897 18.671 12.1989 18.75 12 18.75C11.8011 18.75 11.6103 18.671 11.4697 18.5303C11.329 18.3897 11.25 18.1989 11.25 18V9C11.25 8.80109 11.329 8.61032 11.4697 8.46967C11.6103 8.32902 11.8011 8.25 12 8.25ZM16.5 9C16.5 8.80109 16.421 8.61032 16.2803 8.46967C16.1397 8.32902 15.9489 8.25 15.75 8.25C15.5511 8.25 15.3603 8.32902 15.2197 8.46967C15.079 8.61032 15 8.80109 15 9V18C15 18.1989 15.079 18.3897 15.2197 18.5303C15.3603 18.671 15.5511 18.75 15.75 18.75C15.9489 18.75 16.1397 18.671 16.2803 18.5303C16.421 18.3897 16.5 18.1989 16.5 18V9Z" fill="black"/>
        <path fill-rule="evenodd" clip-rule="evenodd" d="M21.75 4.5C21.75 4.89782 21.592 5.27936 21.3107 5.56066C21.0294 5.84196 20.6478 6 20.25 6H19.5V19.5C19.5 20.2956 19.1839 21.0587 18.6213 21.6213C18.0587 22.1839 17.2956 22.5 16.5 22.5H7.5C6.70435 22.5 5.94129 22.1839 5.37868 21.6213C4.81607 21.0587 4.5 20.2956 4.5 19.5V6H3.75C3.35218 6 2.97064 5.84196 2.68934 5.56066C2.40804 5.27936 2.25 4.89782 2.25 4.5V3C2.25 2.60218 2.40804 2.22064 2.68934 1.93934C2.97064 1.65804 3.35218 1.5 3.75 1.5H9C9 1.10218 9.15804 0.720644 9.43934 0.43934C9.72064 0.158035 10.1022 0 10.5 0L13.5 0C13.8978 0 14.2794 0.158035 14.5607 0.43934C14.842 0.720644 15 1.10218 15 1.5H20.25C20.6478 1.5 21.0294 1.65804 21.3107 1.93934C21.592 2.22064 21.75 2.60218 21.75 3V4.5ZM6.177 6L6 6.0885V19.5C6 19.8978 6.15804 20.2794 6.43934 20.5607C6.72064 20.842 7.10218 21 7.5 21H16.5C16.8978 21 17.2794 20.842 17.5607 20.5607C17.842 20.2794 18 19.8978 18 19.5V6.0885L17.823 6H6.177ZM3.75 4.5V3H20.25V4.5H3.75Z" fill="black"/>
    </symbol>
    <symbol id="unchecked" viewBox="0 0 24 24" fill="none" xmlns="http://www.w3.org/2000/svg">
        <path d="M19.104 5.9549C19.2063 5.85045 19.3285 5.76747 19.4634 5.71082C19.5982 5.65418 19.743 5.625 19.8892 5.625C20.0355 5.625 20.1803 5.65418 20.3151 5.71082C20.4499 5.76747 20.5721 5.85045 20.6745 5.9549C21.1035 6.3884 21.1095 7.0889 20.6895 7.5299L11.82 18.0149C11.7193 18.1255 11.5971 18.2144 11.4608 18.2761C11.3246 18.3378 11.1772 18.3711 11.0277 18.3739C10.8781 18.3767 10.7296 18.349 10.5912 18.2924C10.4527 18.2358 10.3273 18.1516 10.2225 18.0449L4.82547 12.5759C4.61733 12.3636 4.50073 12.0782 4.50073 11.7809C4.50073 11.4836 4.61733 11.1982 4.82547 10.9859C4.92784 10.8815 5.05002 10.7985 5.18485 10.7418C5.31969 10.6852 5.46447 10.656 5.61072 10.656C5.75697 10.656 5.90175 10.6852 6.03659 10.7418C6.17142 10.7985 6.2936 10.8815 6.39597 10.9859L10.974 15.6254L19.074 5.9879C19.0833 5.97631 19.0933 5.96529 19.104 5.9549Z" fill="#BCBCBC"/>
    </symbol>
    <symbol id="vector" viewBox="0 0 40 40" fill="none" xmlns="http://www.w3.org/2000/svg">
        <path opacity="0.988" fill-rule="evenodd" clip-rule="evenodd" d="M16.5864 0.00531605C18.8637 -0.00886079 21.1408 0.00531605 23.4177 0.0478636C24.1984 0.276548 24.6629 0.772933 24.8109 1.53703C24.8259 5.02627 24.8708 8.51516 24.9457 12.0037C28.1487 10.2054 31.3846 8.46095 34.6533 6.77037C35.5752 6.60472 36.3093 6.87419 36.8555 7.57877C37.8215 9.20953 38.8103 10.8263 39.8218 12.4292C40.2004 13.3884 39.9757 14.1968 39.1476 14.8544C36.0168 16.549 32.9008 18.2651 29.7995 20.0026C32.9008 21.7402 36.0168 23.4563 39.1476 25.1509C39.9757 25.8085 40.2004 26.6169 39.8218 27.5761C38.7731 29.278 37.7245 30.9799 36.6758 32.6818C36.0119 33.2678 35.2478 33.4237 34.3837 33.1498C31.2377 31.4337 28.0917 29.7177 24.9457 28.0016C24.8708 31.4901 24.8259 34.979 24.8109 38.4683C24.6629 39.2323 24.1984 39.7288 23.4177 39.9574C21.1406 40.0142 18.8635 40.0142 16.5864 39.9574C15.8056 39.7288 15.3412 39.2323 15.1932 38.4683C15.1781 34.979 15.1332 31.4901 15.0583 28.0016C11.8554 29.7999 8.61948 31.5443 5.35071 33.2349C4.57123 33.3764 3.89709 33.192 3.32829 32.6818C2.22693 30.9087 1.14831 29.1217 0.0924177 27.3208C-0.156754 26.4401 0.0979277 25.7168 0.856443 25.1509C3.9872 23.4563 7.10321 21.7402 10.2045 20.0026C7.10321 18.2651 3.9872 16.549 0.856443 14.8544C0.0283654 14.1968 -0.196348 13.3884 0.182303 12.4292C1.23097 10.7273 2.27963 9.02539 3.32829 7.32349C3.98498 6.72845 4.74901 6.57245 5.62037 6.85547C8.76636 8.57158 11.9123 10.2876 15.0583 12.0037C15.1332 8.51516 15.1781 5.02627 15.1932 1.53703C15.3585 0.771435 15.8229 0.260865 16.5864 0.00531605Z" fill="black"/>
    </symbol>
    <symbol id="wallet" viewBox="0 0 24 24" fill="none" xmlns="http://www.w3.org/2000/svg">
        <path d="M0 5C0 4.20435 0.316071 3.44129 0.87868 2.87868C1.44129 2.31607 2.20435 2 3 2H23.25C23.4489 2 23.6397 2.07902 23.7803 2.21967C23.921 2.36032 24 2.55109 24 2.75C24 2.94891 23.921 3.13968 23.7803 3.28033C23.6397 3.42098 23.4489 3.5 23.25 3.5H22.5V6.5C22.8978 6.5 23.2794 6.65804 23.5607 6.93934C23.842 7.22064 24 7.60218 24 8V20.75C24 21.3467 23.7629 21.919 23.341 22.341C22.919 22.7629 22.3467 23 21.75 23H3.75C2.75544 23 1.80161 22.6049 1.09835 21.9016C0.395088 21.1984 0 20.2446 0 19.25L0 5ZM1.5 7.598V19.25C1.5 19.8467 1.73705 20.419 2.15901 20.841C2.58097 21.2629 3.15326 21.5 3.75 21.5H21.75C21.9489 21.5 22.1397 21.421 22.2803 21.2803C22.421 21.1397 22.5 20.9489 22.5 20.75V8H3C2.47329 8.00069 1.95578 7.86199 1.5 7.598ZM1.5 5C1.5 5.39782 1.65804 5.77936 1.93934 6.06066C2.22064 6.34196 2.60218 6.5 3 6.5H21V3.5H3C2.60218 3.5 2.22064 3.65804 1.93934 3.93934C1.65804 4.22064 1.5 4.60218 1.5 5Z" fill="#1C1C1C"/>
    </symbol>
    <symbol id="x-lg" viewBox="0 0 24 24" fill="none" xmlns="http://www.w3.org/2000/svg">
        <path fill-rule="evenodd" clip-rule="evenodd" d="M20.781 3.21888C20.8508 3.28854 20.9062 3.37131 20.944 3.46243C20.9818 3.55354 21.0013 3.65122 21.0013 3.74988C21.0013 3.84853 20.9818 3.94621 20.944 4.03733C20.9062 4.12844 20.8508 4.21121 20.781 4.28088L4.28097 20.7809C4.14014 20.9217 3.94913 21.0008 3.74997 21.0008C3.55081 21.0008 3.3598 20.9217 3.21897 20.7809C3.07814 20.64 2.99902 20.449 2.99902 20.2499C2.99902 20.0507 3.07814 19.8597 3.21897 19.7189L19.719 3.21888C19.7886 3.14903 19.8714 3.09362 19.9625 3.05581C20.0536 3.018 20.1513 2.99854 20.25 2.99854C20.3486 2.99854 20.4463 3.018 20.5374 3.05581C20.6285 3.09362 20.7113 3.14903 20.781 3.21888Z" fill="black"/>
        <path fill-rule="evenodd" clip-rule="evenodd" d="M3.21888 3.21888C3.14903 3.28854 3.09362 3.37131 3.05581 3.46243C3.018 3.55354 2.99854 3.65122 2.99854 3.74988C2.99854 3.84853 3.018 3.94621 3.05581 4.03733C3.09362 4.12844 3.14903 4.21121 3.21888 4.28088L19.7189 20.7809C19.8597 20.9217 20.0507 21.0008 20.2499 21.0008C20.449 21.0008 20.64 20.9217 20.7809 20.7809C20.9217 20.64 21.0008 20.449 21.0008 20.2499C21.0008 20.0507 20.9217 19.8597 20.7809 19.7189L4.28088 3.21888C4.21121 3.14903 4.12844 3.09362 4.03733 3.05581C3.94621 3.018 3.84853 2.99854 3.74988 2.99854C3.65122 2.99854 3.55354 3.018 3.46243 3.05581C3.37131 3.09362 3.28854 3.14903 3.21888 3.21888Z" fill="black"/>
    </symbol>
    <symbol id="yellow-dropdown" viewBox="0 0 24 24" fill="none" xmlns="http://www.w3.org/2000/svg">
        <path d="M10.443 17.9075L0.516111 8.38117C-0.655407 7.26033 0.29671 5.5 2.07469 5.5H21.9284C22.3263 5.49971 22.7159 5.59573 23.0505 5.77655C23.3851 5.95736 23.6505 6.21532 23.8149 6.51952C23.9794 6.82372 24.0359 7.16128 23.9778 7.49176C23.9196 7.82224 23.7492 8.13164 23.487 8.38291L13.5601 17.9057C13.3658 18.0924 13.1263 18.242 12.8574 18.3445C12.5886 18.447 12.2968 18.5 12.0015 18.5C11.7063 18.5 11.4145 18.447 11.1457 18.3445C10.8768 18.242 10.6372 18.0924 10.443 17.9057V17.9075Z" fill="#FFAA00"/>
    </symbol>
</svg>