<svg width="30" height="32" viewBox="0 0 30 32" fill="none" xmlns="http://www.w3.org/2000/svg">
<path d="M13.1823 32C15.5696 32 17.5666 30.2786 18.0252 28H8.33936C8.79818 30.2786 10.7952 32 13.1823 32V32Z" fill="#FFAA00"/>
<path d="M22.4251 15.9985C22.4198 15.9985 22.4145 15.9997 22.4092 15.9997C17.3225 15.9997 13.1822 11.813 13.1822 6.66649C13.1822 5.2517 13.504 3.9143 14.0642 2.71167C13.7741 2.68384 13.4801 2.6665 13.1822 2.6665C8.0864 2.6665 3.95527 6.84496 3.95527 11.9997V15.717C3.95527 18.3557 2.81243 20.8464 0.807448 22.561C0.13912 23.1384 -0.157512 24.0583 0.0824006 24.9557C0.361896 25.9997 1.38213 26.6664 2.45256 26.6664H23.9054C25.0285 26.6664 26.0871 25.9303 26.3149 24.8171C26.4916 23.9557 26.1884 23.0956 25.5281 22.5344C23.6114 20.9091 22.5029 18.5209 22.4251 15.9985V15.9985Z" fill="#FFAA00"/>
<path d="M29.1814 6.66673C29.1814 10.3486 26.2308 13.3332 22.5906 13.3332C18.9506 13.3332 16 10.3486 16 6.66673C16 2.98485 18.9506 0 22.5906 0C26.2308 0 29.1814 2.98485 29.1814 6.66673Z" fill="#E63946"/>
</svg>
