<svg width="27" height="30" viewBox="0 0 27 30" fill="none" xmlns="http://www.w3.org/2000/svg">
<path d="M13.1823 29.3335C15.5696 29.3335 17.5666 27.6121 18.0252 25.3335H8.33936C8.79818 27.6121 10.7952 29.3335 13.1823 29.3335V29.3335Z" fill="#FFAA00"/>
<path d="M22.4251 13.332C22.4198 13.332 22.4145 13.3332 22.4092 13.3332C17.3225 13.3332 13.1822 9.14645 13.1822 3.99999C13.1822 2.5852 13.504 1.2478 14.0642 0.0451659C13.7741 0.0173339 13.4801 0 13.1822 0C8.0864 0 3.95527 4.17845 3.95527 9.33322V13.0505C3.95527 15.6892 2.81243 18.1799 0.807448 19.8945C0.13912 20.4719 -0.157512 21.3918 0.0824006 22.2892C0.361896 23.3332 1.38213 23.9999 2.45256 23.9999H23.9054C25.0285 23.9999 26.0871 23.2638 26.3149 22.1506C26.4916 21.2892 26.1884 20.4291 25.5281 19.8679C23.6114 18.2426 22.5029 15.8544 22.4251 13.332V13.332Z" fill="#FFAA00"/>
<path d="M3.88489 13.332C3.89012 13.332 3.89536 13.3333 3.9006 13.3333C8.91695 13.3333 13 9.14648 13 4C13 2.58521 12.6827 1.2478 12.1303 0.045166C12.4164 0.017334 12.7063 0 13 0C18.0254 0 22.0994 4.17847 22.0994 9.33325V13.0505C22.0994 15.6892 23.2265 18.1799 25.2037 19.8945C25.8628 20.4719 26.1553 21.3918 25.9187 22.2893C25.6431 23.3333 24.637 24 23.5813 24H2.42509C1.31756 24 0.273593 23.2639 0.0488986 22.1506C-0.125335 21.2893 0.173623 20.4292 0.824856 19.8679C2.715 18.2427 3.80824 15.8545 3.88489 13.332V13.332Z" fill="#FFAA00"/>
</svg>
