<svg width="18" height="19" viewBox="0 0 18 19" fill="none" xmlns="http://www.w3.org/2000/svg">
<path d="M8.15289 13.0325L2.75739 6.86525C2.12064 6.13963 2.63814 5 3.60451 5H14.3955C14.6118 4.99981 14.8235 5.06197 15.0054 5.17903C15.1872 5.29609 15.3315 5.46309 15.4209 5.66003C15.5103 5.85697 15.541 6.0755 15.5094 6.28945C15.4778 6.5034 15.3852 6.70371 15.2426 6.86638L9.84714 13.0314C9.74154 13.1522 9.61132 13.2491 9.46521 13.3154C9.3191 13.3818 9.16049 13.4161 9.00001 13.4161C8.83954 13.4161 8.68093 13.3818 8.53482 13.3154C8.38871 13.2491 8.25848 13.1522 8.15289 13.0314V13.0325Z" fill="white"/>
</svg>
