<svg width="24" height="24" viewBox="0 0 24 24" fill="none" xmlns="http://www.w3.org/2000/svg">
<g clip-path="url(#clip0_1336_2390)">
<path d="M11.907 3.02417C11.9364 3.00805 11.9695 2.99978 12.003 3.00017C12.0361 3.00004 12.0686 3.0083 12.0975 3.02417C12.1318 3.04474 12.1599 3.07431 12.1785 3.10967L22.464 20.6102C22.518 20.7002 22.5165 20.7962 22.467 20.8847C22.448 20.921 22.4202 20.9519 22.386 20.9747C22.3563 20.9929 22.3218 21.0018 22.287 21.0002H1.71904C1.68422 21.0019 1.64971 20.993 1.62004 20.9747C1.58592 20.9519 1.55807 20.921 1.53904 20.8847C1.51432 20.843 1.50153 20.7954 1.50206 20.747C1.50259 20.6986 1.51642 20.6513 1.54204 20.6102L11.826 3.10967C11.8448 3.07435 11.8728 3.0448 11.907 3.02417ZM13.473 2.34917C13.3246 2.09052 13.1105 1.87562 12.8524 1.72618C12.5942 1.57674 12.3013 1.49805 12.003 1.49805C11.7048 1.49805 11.4118 1.57674 11.1537 1.72618C10.8956 1.87562 10.6815 2.09052 10.533 2.34917L0.247541 19.8497C-0.437959 21.0167 0.384041 22.5002 1.71754 22.5002H22.287C23.6205 22.5002 24.444 21.0152 23.757 19.8497L13.473 2.34917Z" fill="black"/>
<path d="M10.5029 18.0002C10.5029 17.8032 10.5417 17.6081 10.6171 17.4261C10.6925 17.2442 10.803 17.0788 10.9423 16.9395C11.0816 16.8002 11.2469 16.6897 11.4289 16.6144C11.6109 16.539 11.8059 16.5002 12.0029 16.5002C12.1999 16.5002 12.395 16.539 12.577 16.6144C12.7589 16.6897 12.9243 16.8002 13.0636 16.9395C13.2029 17.0788 13.3134 17.2442 13.3887 17.4261C13.4641 17.6081 13.5029 17.8032 13.5029 18.0002C13.5029 18.398 13.3449 18.7795 13.0636 19.0608C12.7823 19.3421 12.4008 19.5002 12.0029 19.5002C11.6051 19.5002 11.2236 19.3421 10.9423 19.0608C10.661 18.7795 10.5029 18.398 10.5029 18.0002ZM10.6499 8.99268C10.63 8.80344 10.65 8.61211 10.7087 8.43112C10.7675 8.25012 10.8636 8.0835 10.9909 7.94206C11.1182 7.80062 11.2738 7.68752 11.4476 7.6101C11.6215 7.53268 11.8096 7.49268 11.9999 7.49268C12.1902 7.49268 12.3784 7.53268 12.5522 7.6101C12.726 7.68752 12.8817 7.80062 13.009 7.94206C13.1362 8.0835 13.2324 8.25012 13.2911 8.43112C13.3499 8.61211 13.3699 8.80344 13.3499 8.99268L12.8249 14.2532C12.8073 14.4598 12.7127 14.6523 12.56 14.7926C12.4072 14.9329 12.2073 15.0108 11.9999 15.0108C11.7925 15.0108 11.5927 14.9329 11.4399 14.7926C11.2871 14.6523 11.1926 14.4598 11.1749 14.2532L10.6499 8.99268Z" fill="black"/>
</g>
<defs>
<clipPath id="clip0_1336_2390">
<rect width="24" height="24" fill="white"/>
</clipPath>
</defs>
</svg>
