<svg width="40" height="40" viewBox="0 0 40 40" fill="none" xmlns="http://www.w3.org/2000/svg">
<rect x="0.5" y="0.5" width="39" height="39" rx="19.5" fill="#D8D8D8"/>
<rect x="0.5" y="0.5" width="39" height="39" rx="19.5" stroke="#D8D8D8"/>
<path d="M12.3186 33.1511C11.6431 33.4976 10.8766 32.8904 11.0131 32.1151L12.4656 23.8376L6.30039 17.9646C5.72464 17.4151 6.02389 16.4106 6.79564 16.3021L15.3671 15.0841L19.1891 7.51187C19.5339 6.82938 20.4666 6.82938 20.8114 7.51187L24.6334 15.0841L33.2049 16.3021C33.9766 16.4106 34.2759 17.4151 33.6984 17.9646L27.5349 23.8376L28.9874 32.1151C29.1239 32.8904 28.3574 33.4976 27.6819 33.1511L19.9976 29.2031L12.3169 33.1511H12.3186Z" fill="#FFAA00"/>
</svg>
