<svg width="32" height="31" viewBox="0 0 32 31" fill="none" xmlns="http://www.w3.org/2000/svg">
<path d="M30.9527 6.55568H1.04824C0.47059 6.55568 0 7.02825 0 7.60686V29.295C0 29.8736 0.47059 30.3462 1.04824 30.3462H30.9527C31.5304 30.3462 32 29.8736 32 29.295V7.60686C32 7.02825 31.5304 6.55568 30.9527 6.55568Z" fill="#FDB813"/>
<path d="M29.8442 3.27321H2.5681C2.05583 3.27321 1.64136 3.73808 1.64136 4.29974C1.64136 4.86139 2.05583 5.32617 2.5681 5.32617H29.8442C30.3555 5.32617 30.769 4.86139 30.769 4.29974C30.769 3.73808 30.3555 3.27321 29.8442 3.27321ZM5.03453 2.0531H27.7874C28.3035 2.0531 28.7219 1.58822 28.7219 1.02657C28.7219 0.455228 28.3035 0.0001316 27.7874 0.0001316H5.03453C4.51645 0.0001316 4.09716 0.455228 4.09716 1.02657C4.09716 1.58822 4.51645 2.0531 5.03453 2.0531Z" fill="#E89E0A"/>
</svg>
