<svg width="24" height="24" viewBox="0 0 24 24" fill="none" xmlns="http://www.w3.org/2000/svg">
<path fill-rule="evenodd" clip-rule="evenodd" d="M12.0001 4.32703L21.5993 13.8972V20.6075C21.5993 21.2421 21.3464 21.8506 20.8964 22.2993C20.4463 22.748 19.8359 23.0001 19.1995 23.0001H4.80068C4.16421 23.0001 3.55381 22.748 3.10376 22.2993C2.65371 21.8506 2.40088 21.2421 2.40088 20.6075V13.8972L12.0001 4.32703ZM19.9994 3.06217V8.64479L16.7997 5.45472V3.06217C16.7997 2.85065 16.8839 2.6478 17.034 2.49824C17.184 2.34867 17.3874 2.26465 17.5996 2.26465H19.1995C19.4116 2.26465 19.6151 2.34867 19.7651 2.49824C19.9151 2.6478 19.9994 2.85065 19.9994 3.06217Z" fill="#1C1C1C"/>
<path fill-rule="evenodd" clip-rule="evenodd" d="M10.8689 1.467C11.1689 1.16798 11.5758 1 12 1C12.4242 1 12.8311 1.16798 13.1311 1.467L23.7654 12.0676C23.9156 12.2174 24 12.4205 24 12.6322C24 12.844 23.9156 13.0471 23.7654 13.1969C23.6152 13.3466 23.4115 13.4308 23.1991 13.4308C22.9866 13.4308 22.7829 13.3466 22.6327 13.1969L12 2.59469L1.3673 13.1969C1.21709 13.3466 1.01337 13.4308 0.800943 13.4308C0.58852 13.4308 0.384797 13.3466 0.234591 13.1969C0.0843849 13.0471 0 12.844 0 12.6322C0 12.4205 0.0843849 12.2174 0.234591 12.0676L10.8689 1.467Z" fill="#1C1C1C"/>
</svg>
