<svg width="24" height="24" viewBox="0 0 24 24" fill="none" xmlns="http://www.w3.org/2000/svg">
<path d="M6.02522 10.7976L3.57155 13.1644C2.5653 14.1351 2 15.4515 2 16.8242C2 18.1969 2.5653 19.5134 3.57155 20.4841C4.5778 21.4547 5.94257 22 7.36562 22C8.78867 22 10.1534 21.4547 11.1597 20.4841L14.4288 17.3288C15.0356 16.7434 15.488 16.0262 15.7479 15.2372C16.0079 14.4483 16.0679 13.6107 15.9228 12.7948C15.7777 11.9789 15.4319 11.2084 14.9143 10.5481C14.3967 9.88782 13.7224 9.35692 12.9481 9L11.9001 10.0109C11.7937 10.1137 11.7011 10.2291 11.6247 10.3542C12.2229 10.5201 12.7659 10.8338 13.2 11.2641C13.6341 11.6945 13.9443 12.2267 14.0998 12.8081C14.2553 13.3896 14.2508 14.0001 14.0868 14.5793C13.9227 15.1586 13.6048 15.6865 13.1645 16.1109L9.89708 19.2644C9.22593 19.9118 8.31566 20.2755 7.36651 20.2755C6.41736 20.2755 5.50709 19.9118 4.83594 19.2644C4.16479 18.617 3.78775 17.7389 3.78775 16.8234C3.78775 15.9078 4.16479 15.0297 4.83594 14.3823L6.25413 13.0161C6.05404 12.2928 5.97673 11.543 6.02522 10.7958V10.7976Z" fill="black"/>
<path d="M9.57115 6.67007C8.96436 7.25555 8.512 7.97292 8.25205 8.76196C7.9921 9.551 7.93214 10.3887 8.0772 11.2047C8.22226 12.0207 8.56812 12.7913 9.08573 13.4517C9.60334 14.1121 10.2776 14.643 11.0519 15L12.4379 13.6611C11.8316 13.5042 11.2787 13.1961 10.8349 12.7678C10.3911 12.3394 10.0719 11.8059 9.90953 11.2209C9.74714 10.6358 9.74723 10.0198 9.90977 9.43483C10.0723 8.84983 10.3916 8.3164 10.8355 7.88816L14.1029 4.73424C14.7741 4.08675 15.6843 3.72299 16.6335 3.72299C17.5826 3.72299 18.4929 4.08675 19.1641 4.73424C19.8352 5.38172 20.2123 6.25991 20.2123 7.17559C20.2123 8.09128 19.8352 8.96946 19.1641 9.61694L17.7459 10.9834C17.9462 11.7081 18.0231 12.4586 17.9748 13.2039L20.4284 10.8368C21.4347 9.86598 22 8.54933 22 7.17645C22 5.80357 21.4347 4.48692 20.4284 3.51615C19.4222 2.54537 18.0574 2 16.6344 2C15.2113 2 13.8466 2.54537 12.8403 3.51615L9.57115 6.67007Z" fill="black"/>
</svg>
