<svg width="32" height="32" viewBox="0 0 32 32" fill="none" xmlns="http://www.w3.org/2000/svg">
<path d="M9.78756 1.46067C11.0763 1.25641 13.2872 1 16.2658 1C19.2444 1 21.4552 1.25641 22.744 1.46067C23.6724 1.60781 24.2991 2.4165 24.2991 3.33039C24.2991 4.80837 23.6965 6.14527 22.724 7.1092C22.7017 7.1136 22.6785 7.11813 22.6544 7.1228C22.3498 7.1818 21.8899 7.26193 21.2851 7.34253C20.0754 7.50387 18.2864 7.66713 16.0006 7.66713C13.7148 7.66713 11.9258 7.50387 10.7161 7.34253C10.4184 7.30287 10.1558 7.26327 9.92956 7.22627C8.88569 6.25507 8.23242 4.86921 8.23242 3.33039C8.23242 2.4165 8.85922 1.60781 9.78756 1.46067Z" fill="#FFAA00"/>
<path d="M8.94628 9.0826C8.95308 9.08394 8.95988 9.08527 8.96675 9.0866C9.30801 9.15267 9.80648 9.2392 10.4517 9.3252C11.742 9.49727 13.6196 9.66734 16.0005 9.66734C18.3814 9.66734 20.259 9.49727 21.5493 9.3252C22.1945 9.2392 22.693 9.15267 23.0343 9.0866C23.2049 9.05354 23.3363 9.02567 23.4271 9.00547C23.4404 9.00254 23.4529 8.99974 23.4645 8.99707C25.2199 10.2288 26.7345 11.8425 27.9097 13.6225C29.5951 16.1751 30.599 19.0952 30.599 21.7621C30.599 25.1735 28.9557 27.5055 26.327 28.9649C23.7217 30.4113 20.1558 31.0002 16.2657 31.0002C12.3756 31.0002 8.80968 30.4113 6.20441 28.9649C3.5757 27.5055 1.93237 25.1735 1.93237 21.7621C1.93237 19.0952 2.93625 16.1751 4.62164 13.6225C5.76985 11.8833 7.24201 10.3031 8.94628 9.0826Z" fill="#FFAA00"/>
</svg>
