<svg width="40" height="40" viewBox="0 0 40 40" fill="none" xmlns="http://www.w3.org/2000/svg">
<rect x="0.5" y="0.5" width="39" height="39" rx="19.5" fill="#D8D8D8"/>
<rect x="0.5" y="0.5" width="39" height="39" rx="19.5" stroke="#D8D8D8"/>
<path d="M11.0131 31.8734C10.8766 32.643 11.643 33.2444 12.3185 32.9012L20.0009 28.9911L27.6815 32.9012C28.357 33.2444 29.1235 32.643 28.987 31.8752L27.5345 23.6771L33.6979 17.8605C34.2754 17.3163 33.9779 16.3214 33.2044 16.2139L24.6331 15.0076L20.8111 7.50808C20.7383 7.35606 20.6235 7.22762 20.4799 7.13768C20.3363 7.04774 20.1699 7 20 7C19.8301 7 19.6637 7.04774 19.5202 7.13768C19.3766 7.22762 19.2617 7.35606 19.1889 7.50808L15.367 15.0094L6.79563 16.2157C6.02389 16.3231 5.72465 17.318 6.30039 17.8622L12.4655 23.6788L11.0131 31.8769V31.8734ZM20.0009 20.9756V21C20.0293 20.8421 20.0506 21.1526 20.0009 21C19.9512 20.8474 20.1172 21.0872 20.0009 20.9756C20.1477 20.9536 19.8811 21.0869 20.0009 21C20.1207 20.9131 19.9355 21.1077 20.0009 20.9756V21C20.0663 21.1321 19.8811 20.8887 20.0009 20.9756C20.1207 21.0625 19.8541 20.9536 20.0009 20.9756V21L20.0082 21.0155C19.8916 21.1273 20.0506 20.8471 20.0009 21C19.9511 21.1529 19.9794 20.8573 20.0082 21.0155L20.0009 21C19.8762 20.9363 20.1412 21 20.0009 21C19.8606 21 20.1256 20.9119 20.0009 20.9756Z" fill="#F5F5F5"/>
</svg>
