<svg width="40" height="40" viewBox="0 0 40 40" fill="none" xmlns="http://www.w3.org/2000/svg">
<rect x="0.5" y="0.5" width="39" height="39" rx="19.5" stroke="#D8D8D8"/>
<path d="M11.0131 31.8734C10.8766 32.643 11.643 33.2444 12.3185 32.9012L20.0009 28.9911L27.6815 32.9012C28.357 33.2444 29.1235 32.643 28.987 31.8752L27.5345 23.6771L33.6979 17.8605C34.2754 17.3163 33.9779 16.3214 33.2044 16.2139L24.6331 15.0076L20.8111 7.50808C20.7383 7.35606 20.6235 7.22762 20.4799 7.13768C20.3363 7.04774 20.1699 7 20 7C19.8301 7 19.6637 7.04774 19.5202 7.13768C19.3766 7.22762 19.2617 7.35606 19.1889 7.50808L15.367 15.0094L6.79563 16.2157C6.02389 16.3231 5.72465 17.318 6.30039 17.8622L12.4655 23.6788L11.0131 31.8769V31.8734ZM19.5966 27.0777L13.1463 30.3603L14.3607 23.5021C14.3892 23.3442 14.3781 23.1818 14.3283 23.0292C14.2786 22.8766 14.1918 22.7384 14.0755 22.6268L8.99009 17.8258L16.081 16.8275C16.2278 16.8055 16.3671 16.7487 16.4868 16.6617C16.6066 16.5748 16.7033 16.4604 16.7687 16.3283L19.9974 9.98829L23.2296 16.3283C23.2949 16.4604 23.3917 16.5748 23.5114 16.6617C23.6312 16.7487 23.7705 16.8055 23.9173 16.8275L31.0082 17.8241L25.9228 22.6251C25.8062 22.7368 25.7193 22.8753 25.6695 23.0283C25.6198 23.1812 25.6088 23.3439 25.6375 23.5021L26.852 30.3603L20.4016 27.0777C20.2769 27.014 20.1386 26.9807 19.9983 26.9807C19.8579 26.9807 19.7196 27.014 19.5949 27.0777H19.5966Z" fill="#D8D8D8"/>
</svg>
