<svg width="24" height="24" viewBox="0 0 24 24" fill="none" xmlns="http://www.w3.org/2000/svg">
<g clip-path="url(#clip0_1369_2384)">
<path d="M12 19C10.1435 19 8.36301 18.2625 7.05025 16.9497C5.7375 15.637 5 13.8565 5 12C5 10.1435 5.7375 8.36301 7.05025 7.05025C8.36301 5.7375 10.1435 5 12 5C13.8565 5 15.637 5.7375 16.9497 7.05025C18.2625 8.36301 19 10.1435 19 12C19 13.8565 18.2625 15.637 16.9497 16.9497C15.637 18.2625 13.8565 19 12 19ZM12 20C14.1217 20 16.1566 19.1571 17.6569 17.6569C19.1571 16.1566 20 14.1217 20 12C20 9.87827 19.1571 7.84344 17.6569 6.34315C16.1566 4.84285 14.1217 4 12 4C9.87827 4 7.84344 4.84285 6.34315 6.34315C4.84285 7.84344 4 9.87827 4 12C4 14.1217 4.84285 16.1566 6.34315 17.6569C7.84344 19.1571 9.87827 20 12 20V20Z" fill="#2196F3"/>
<path d="M11.002 15.0001C11.002 14.8688 11.0278 14.7388 11.0781 14.6174C11.1283 14.4961 11.202 14.3859 11.2948 14.293C11.3877 14.2002 11.4979 14.1265 11.6193 14.0762C11.7406 14.026 11.8706 14.0001 12.002 14.0001C12.1333 14.0001 12.2633 14.026 12.3846 14.0762C12.506 14.1265 12.6162 14.2002 12.7091 14.293C12.8019 14.3859 12.8756 14.4961 12.9258 14.6174C12.9761 14.7388 13.002 14.8688 13.002 15.0001C13.002 15.2653 12.8966 15.5197 12.7091 15.7072C12.5215 15.8948 12.2672 16.0001 12.002 16.0001C11.7367 16.0001 11.4824 15.8948 11.2948 15.7072C11.1073 15.5197 11.002 15.2653 11.002 15.0001V15.0001ZM11.1 8.99512C11.0866 8.86896 11.1 8.74141 11.1392 8.62075C11.1783 8.50008 11.2424 8.389 11.3273 8.2947C11.4121 8.20041 11.5159 8.12501 11.6318 8.0734C11.7477 8.02179 11.8731 7.99512 12 7.99512C12.1268 7.99512 12.2523 8.02179 12.3681 8.0734C12.484 8.12501 12.5878 8.20041 12.6726 8.2947C12.7575 8.389 12.8216 8.50008 12.8608 8.62075C12.8999 8.74141 12.9133 8.86896 12.9 8.99512L12.55 12.5021C12.5382 12.6399 12.4752 12.7682 12.3733 12.8618C12.2715 12.9553 12.1382 13.0072 12 13.0072C11.8617 13.0072 11.7284 12.9553 11.6266 12.8618C11.5248 12.7682 11.4617 12.6399 11.45 12.5021L11.1 8.99512Z" fill="#2196F3"/>
</g>
<defs>
<clipPath id="clip0_1369_2384">
<rect width="16" height="16" fill="white" transform="translate(4 4)"/>
</clipPath>
</defs>
</svg>
