<svg width="32" height="32" viewBox="0 0 32 32" fill="none" xmlns="http://www.w3.org/2000/svg">
<rect x="0.5" y="0.5" width="31" height="31" rx="7.5" fill="#F7F9FF"/>
<rect x="0.5" y="0.5" width="31" height="31" rx="7.5" stroke="#C1BCBC"/>
<path d="M7 10C7 8.58579 7 7.87868 7.43934 7.43934C7.87868 7 8.58579 7 10 7C11.4142 7 12.1213 7 12.5607 7.43934C13 7.87868 13 8.58579 13 10C13 11.4142 13 12.1213 12.5607 12.5607C12.1213 13 11.4142 13 10 13C8.58579 13 7.87868 13 7.43934 12.5607C7 12.1213 7 11.4142 7 10Z" stroke="#141B34" stroke-width="2"/>
<path d="M7 22C7 20.5858 7 19.8787 7.43934 19.4393C7.87868 19 8.58579 19 10 19C11.4142 19 12.1213 19 12.5607 19.4393C13 19.8787 13 20.5858 13 22C13 23.4142 13 24.1213 12.5607 24.5607C12.1213 25 11.4142 25 10 25C8.58579 25 7.87868 25 7.43934 24.5607C7 24.1213 7 23.4142 7 22Z" stroke="#141B34" stroke-width="2"/>
<path d="M7 16L13 16" stroke="#141B34" stroke-width="2" stroke-linecap="round" stroke-linejoin="round"/>
<path d="M16 7V12" stroke="#141B34" stroke-width="2" stroke-linecap="round" stroke-linejoin="round"/>
<path d="M19 10C19 8.58579 19 7.87868 19.4393 7.43934C19.8787 7 20.5858 7 22 7C23.4142 7 24.1213 7 24.5607 7.43934C25 7.87868 25 8.58579 25 10C25 11.4142 25 12.1213 24.5607 12.5607C24.1213 13 23.4142 13 22 13C20.5858 13 19.8787 13 19.4393 12.5607C19 12.1213 19 11.4142 19 10Z" stroke="#141B34" stroke-width="2"/>
<path d="M25 16H19C17.5858 16 16.8787 16 16.4393 16.4393C16 16.8787 16 17.5858 16 19M16 21.7692V24.5385M19 19V20.5C19 21.9464 19.7837 22 21 22C21.5523 22 22 22.4477 22 23M20 25H19M22 19C23.4142 19 24.1213 19 24.5607 19.44C25 19.8799 25 20.5881 25 22.0043C25 23.4206 25 24.1287 24.5607 24.5687C24.24 24.8898 23.7767 24.9766 23 25" stroke="#141B34" stroke-width="2" stroke-linecap="round"/>
</svg>
