<svg width="24" height="24" viewBox="0 0 24 24" fill="none" xmlns="http://www.w3.org/2000/svg">
<path d="M14.5 19.5C14.5 20.0967 14.2629 20.669 13.841 21.091C13.419 21.5129 12.8467 21.75 12.25 21.75C11.6533 21.75 11.081 21.5129 10.659 21.091C10.2371 20.669 10 20.0967 10 19.5C10 18.9033 10.2371 18.331 10.659 17.909C11.081 17.4871 11.6533 17.25 12.25 17.25C12.8467 17.25 13.419 17.4871 13.841 17.909C14.2629 18.331 14.5 18.9033 14.5 19.5ZM14.5 12C14.5 12.5967 14.2629 13.169 13.841 13.591C13.419 14.0129 12.8467 14.25 12.25 14.25C11.6533 14.25 11.081 14.0129 10.659 13.591C10.2371 13.169 10 12.5967 10 12C10 11.4033 10.2371 10.831 10.659 10.409C11.081 9.98705 11.6533 9.75 12.25 9.75C12.8467 9.75 13.419 9.98705 13.841 10.409C14.2629 10.831 14.5 11.4033 14.5 12V12ZM14.5 4.5C14.5 5.09674 14.2629 5.66903 13.841 6.09099C13.419 6.51295 12.8467 6.75 12.25 6.75C11.6533 6.75 11.081 6.51295 10.659 6.09099C10.2371 5.66903 10 5.09674 10 4.5C10 3.90326 10.2371 3.33097 10.659 2.90901C11.081 2.48705 11.6533 2.25 12.25 2.25C12.8467 2.25 13.419 2.48705 13.841 2.90901C14.2629 3.33097 14.5 3.90326 14.5 4.5V4.5Z" fill="#858585"/>
</svg>
