<svg width="40" height="40" viewBox="0 0 40 40" fill="none" xmlns="http://www.w3.org/2000/svg">
<path opacity="0.988" fill-rule="evenodd" clip-rule="evenodd" d="M16.5864 0.00531605C18.8637 -0.00886079 21.1408 0.00531605 23.4177 0.0478636C24.1984 0.276548 24.6629 0.772933 24.8109 1.53703C24.8259 5.02627 24.8708 8.51516 24.9457 12.0037C28.1487 10.2054 31.3846 8.46095 34.6533 6.77037C35.5752 6.60472 36.3093 6.87419 36.8555 7.57877C37.8215 9.20953 38.8103 10.8263 39.8218 12.4292C40.2004 13.3884 39.9757 14.1968 39.1476 14.8544C36.0168 16.549 32.9008 18.2651 29.7995 20.0026C32.9008 21.7402 36.0168 23.4563 39.1476 25.1509C39.9757 25.8085 40.2004 26.6169 39.8218 27.5761C38.7731 29.278 37.7245 30.9799 36.6758 32.6818C36.0119 33.2678 35.2478 33.4237 34.3837 33.1498C31.2377 31.4337 28.0917 29.7177 24.9457 28.0016C24.8708 31.4901 24.8259 34.979 24.8109 38.4683C24.6629 39.2323 24.1984 39.7288 23.4177 39.9574C21.1406 40.0142 18.8635 40.0142 16.5864 39.9574C15.8056 39.7288 15.3412 39.2323 15.1932 38.4683C15.1781 34.979 15.1332 31.4901 15.0583 28.0016C11.8554 29.7999 8.61948 31.5443 5.35071 33.2349C4.57123 33.3764 3.89709 33.192 3.32829 32.6818C2.22693 30.9087 1.14831 29.1217 0.0924177 27.3208C-0.156754 26.4401 0.0979277 25.7168 0.856443 25.1509C3.9872 23.4563 7.10321 21.7402 10.2045 20.0026C7.10321 18.2651 3.9872 16.549 0.856443 14.8544C0.0283654 14.1968 -0.196348 13.3884 0.182303 12.4292C1.23097 10.7273 2.27963 9.02539 3.32829 7.32349C3.98498 6.72845 4.74901 6.57245 5.62037 6.85547C8.76636 8.57158 11.9123 10.2876 15.0583 12.0037C15.1332 8.51516 15.1781 5.02627 15.1932 1.53703C15.3585 0.771435 15.8229 0.260865 16.5864 0.00531605Z" fill="black"/>
</svg>
