<svg width="24" height="24" viewBox="0 0 24 24" fill="none" xmlns="http://www.w3.org/2000/svg">
<path d="M10.443 17.9075L0.516111 8.38117C-0.655407 7.26033 0.29671 5.5 2.07469 5.5H21.9284C22.3263 5.49971 22.7159 5.59573 23.0505 5.77655C23.3851 5.95736 23.6505 6.21532 23.8149 6.51952C23.9794 6.82372 24.0359 7.16128 23.9778 7.49176C23.9196 7.82224 23.7492 8.13164 23.487 8.38291L13.5601 17.9057C13.3658 18.0924 13.1263 18.242 12.8574 18.3445C12.5886 18.447 12.2968 18.5 12.0015 18.5C11.7063 18.5 11.4145 18.447 11.1457 18.3445C10.8768 18.242 10.6372 18.0924 10.443 17.9057V17.9075Z" fill="#FFAA00"/>
</svg>
