<svg width="0" height="0" fill="none" style="visibility: hidden; position: absolute;" aria-hidden="true">
    <symbol id="citi" width="20" height="20" viewBox="0 0 20 20" fill="none" xmlns="http://www.w3.org/2000/svg">
        <g clip-path="url(#clip0_1344_2917__citi)">
            <path fill-rule="evenodd" clip-rule="evenodd" d="M17.5797 7.13876C16.9335 6.16929 16.075 5.37792 15.0768 4.83158C14.0786 4.28523 12.9701 4 11.8451 4C10.7201 4 9.61157 4.28523 8.6134 4.83158C7.61522 5.37792 6.75673 6.16929 6.11055 7.13876L6.04346 7.24037H7.70326L7.72209 7.2193C8.25123 6.62656 8.89009 6.15418 9.59929 5.83128C10.3085 5.50837 11.073 5.34178 11.8457 5.34178C12.6184 5.34178 13.3829 5.50837 14.0921 5.83128C14.8013 6.15418 15.4402 6.62656 15.9693 7.2193L15.987 7.24037H17.6468L17.5797 7.13876Z" fill="#E60012"/>
            <path d="M5.38441 13.6776L5.35381 13.7111C4.84292 14.2575 4.25316 14.5475 3.64574 14.5475C2.37676 14.5475 1.45504 13.545 1.45504 12.1634C1.45504 10.7817 2.37676 9.7755 3.64574 9.7755C4.25316 9.7755 4.84292 10.0655 5.35381 10.6132L5.38441 10.6466L6.20019 9.60821L6.179 9.57971C5.49978 8.73585 4.68518 8.32568 3.68459 8.32568C2.684 8.32568 1.76111 8.68132 1.09483 9.31701C0.375585 10.0122 -0.00463867 10.9924 -0.00463867 12.1547C-0.00463867 13.317 0.375585 14.2972 1.09483 14.9924C1.7564 15.6367 2.67458 15.9911 3.68459 15.9911C4.6946 15.9911 5.49978 15.5797 6.179 14.7358L6.20019 14.7086L5.38441 13.6776Z" fill="#004187"/>
            <path d="M8.46624 8.44971H7.02539V15.8586H8.46624V8.44971Z" fill="#004187"/>
            <path d="M14.1153 14.2461C13.801 14.4694 13.4347 14.5979 13.0559 14.6178C12.585 14.6178 12.379 14.3588 12.379 13.7826V9.85078H13.8481V8.45549H12.3743V6.14941L10.9617 6.94619V8.45549H9.74219V9.85078H10.9617V14.0329C10.9617 15.1717 11.6033 15.9511 12.5603 15.971C13.0094 15.9942 13.4549 15.876 13.8399 15.6314L13.854 15.6203L14.2013 14.1928L14.1153 14.2461Z" fill="#004187"/>
            <path d="M16.7511 8.44971H15.3091V15.8586H16.7511V8.44971Z" fill="#004187"/>
            <path d="M19.8763 7.52841C19.8763 7.66252 19.8385 7.79362 19.7677 7.90511C19.6969 8.0166 19.5962 8.10348 19.4785 8.15475C19.3608 8.20601 19.2312 8.21936 19.1063 8.19311C18.9814 8.16686 18.8666 8.10217 18.7766 8.00726C18.6866 7.91234 18.6254 7.79145 18.6007 7.65988C18.576 7.52832 18.5889 7.39199 18.6378 7.26816C18.6867 7.14432 18.7694 7.03855 18.8755 6.96422C18.9815 6.88989 19.1061 6.85034 19.2335 6.85059C19.3185 6.8489 19.4029 6.86529 19.4817 6.89877C19.5604 6.93225 19.632 6.98214 19.692 7.04543C19.752 7.10873 19.7993 7.18414 19.8309 7.26713C19.8626 7.35012 19.878 7.43899 19.8763 7.52841V7.52841ZM19.9999 7.52841C20.0001 7.36851 19.9553 7.21213 19.871 7.07908C19.7868 6.94603 19.6669 6.84228 19.5266 6.78097C19.3863 6.71967 19.2319 6.70357 19.0829 6.7347C18.9339 6.76584 18.7971 6.84281 18.6896 6.95587C18.5822 7.06894 18.5091 7.21301 18.4795 7.36985C18.45 7.52669 18.4653 7.68924 18.5235 7.83692C18.5817 7.9846 18.6803 8.11077 18.8067 8.19945C18.9331 8.28813 19.0816 8.33534 19.2335 8.3351C19.3347 8.33712 19.4352 8.31763 19.529 8.27781C19.6229 8.23798 19.7081 8.17863 19.7797 8.10332C19.8512 8.02801 19.9076 7.93827 19.9454 7.83949C19.9833 7.7407 20.0018 7.6349 19.9999 7.52841V7.52841ZM19.5831 7.33757C19.5844 7.30045 19.578 7.26349 19.5644 7.2292C19.5509 7.19492 19.5304 7.16413 19.5045 7.13895C19.4785 7.11376 19.4477 7.09477 19.4142 7.08329C19.3806 7.0718 19.3451 7.06809 19.31 7.0724H18.9428V7.9522H19.084V7.61267H19.2453L19.4089 7.9522H19.5773L19.4054 7.59656C19.4593 7.5824 19.5067 7.54864 19.5392 7.50125C19.5717 7.45385 19.5873 7.39588 19.5831 7.33757V7.33757ZM19.4395 7.33757C19.4395 7.42555 19.3819 7.46149 19.3053 7.46149H19.084V7.21366H19.3053C19.3221 7.21116 19.3392 7.21251 19.3555 7.21761C19.3717 7.2227 19.3867 7.23143 19.3995 7.2432C19.4122 7.25497 19.4224 7.26949 19.4293 7.28578C19.4362 7.30207 19.4397 7.31973 19.4395 7.33757Z" fill="#004187"/>
        </g>
        <defs>
            <clipPath id="clip0_1344_2917__citi">
                <rect width="20" height="12" fill="white" transform="translate(0 4)"/>
            </clipPath>
        </defs>
    </symbol>
    <symbol id="daegu" width="20" height="20" viewBox="0 0 20 20" fill="none" xmlns="http://www.w3.org/2000/svg">
        <path d="M3.5487 8.5498H0V14.9994H3.5487V8.5498Z" fill="#00C4A6"/>
        <mask id="mask0_1344_2945__daegu" style="mask-type:luminance" maskUnits="userSpaceOnUse" x="3" y="5" width="11" height="10">
            <path d="M3.54858 8.54967C5.25854 8.55154 6.89793 9.23164 8.10705 10.4408C9.31617 11.6499 9.99628 13.2893 9.99814 14.9992H13.5468C13.5468 13.6862 13.2882 12.3861 12.7858 11.1731C12.2833 9.96002 11.5468 8.85782 10.6184 7.9294C9.68999 7.00097 8.58779 6.26451 7.37475 5.76205C6.1617 5.25959 4.86157 5.00098 3.54858 5.00098V8.54967Z" fill="white"/>
        </mask>
        <g mask="url(#mask0_1344_2945__daegu)">
            <path d="M13.5468 5.00195H3.54858V15.0002H13.5468V5.00195Z" fill="url(#paint0_linear_1344_2945__daegu)"/>
        </g>
        <path d="M20.0001 5.00098V8.54967C18.2901 8.55154 16.6507 9.23164 15.4416 10.4408C14.2325 11.6499 13.5524 13.2893 13.5505 14.9992H9.99829C9.99829 13.6859 10.257 12.3855 10.7597 11.1722C11.2624 9.95898 11.9992 8.85662 12.928 7.92816C13.8567 6.99969 14.9594 6.26329 16.1728 5.76104C17.3863 5.25879 18.6868 5.00052 20.0001 5.00098Z" fill="#00C4A6"/>
        <defs>
            <linearGradient id="paint0_linear_1344_2945__daegu" x1="3.57456" y1="10.1644" x2="13.5616" y2="10.1644" gradientUnits="userSpaceOnUse">
                <stop stop-color="#00C4A6"/>
                <stop offset="0.11" stop-color="#0FC7A1"/>
                <stop offset="0.31" stop-color="#38CE94"/>
                <stop offset="0.6" stop-color="#78DB7F"/>
                <stop offset="0.95" stop-color="#D1EB63"/>
                <stop offset="1" stop-color="#DFEE5E"/>
            </linearGradient>
        </defs>
    </symbol>
    <symbol id="gwanjoo" width="20" height="20" viewBox="0 0 20 20" fill="none" xmlns="http://www.w3.org/2000/svg">
        <g clip-path="url(#clip0_1344_2925__gwanjoo)">
            <path d="M20 0H0V20H20V0Z" fill="#0091D0"/>
            <path d="M0 0L4.99894 5.00317L9.99788 0H0Z" fill="#0091D0"/>
            <path d="M0 0V9.99788L4.99894 5.00317L0 0Z" fill="#009CD8"/>
            <path d="M9.99788 9.99796L5.00317 4.99902L0 9.99796H9.99788Z" fill="#0091D0"/>
            <path d="M9.99789 9.99788V0L5.00317 4.99894L9.99789 9.99788Z" fill="#0082C9"/>
            <path d="M9.9978 0V9.99788L14.9967 5.00317L9.9978 0Z" fill="#0070BB"/>
            <path d="M20.0001 9.99796L15.0011 4.99902L10.0022 9.99796H20.0001Z" fill="#004C98"/>
            <path d="M0 10.002L4.99894 15.0009L9.99788 10.002H0Z" fill="#0082C9"/>
            <path d="M0 10.002V19.9998L4.99894 15.0009L0 10.002Z" fill="#0070BB"/>
            <path d="M9.99788 20.0002L5.00317 14.9971L0 20.0002H9.99788Z" fill="#0060AF"/>
            <path d="M9.99789 19.9998V10.002L5.00317 14.9967L9.99789 19.9998Z" fill="#00529C"/>
            <path d="M9.9978 10.002L14.9967 15.0009L19.9999 10.002H9.9978Z" fill="#1C378A"/>
            <path d="M9.9978 10.002V19.9998L14.9967 15.0009L9.9978 10.002Z" fill="#004C98"/>
            <path d="M20.0001 20.0002L15.0011 14.9971L10.0022 20.0002H20.0001Z" fill="#1C378A"/>
            <path d="M19.9999 19.9998V10.002L15.001 14.9967L19.9999 19.9998Z" fill="#1C378A"/>
            <path d="M9.9978 0L14.9967 5.00317L19.9999 0H9.9978Z" fill="#0060AF"/>
            <path d="M19.9999 9.99788V0L15.001 4.99894L19.9999 9.99788Z" fill="#00529C"/>
            <path d="M20 12.5019L13.5969 6.40332L3.87817 16.1432L7.42226 19.6915L13.5969 13.6099L20 19.9791V12.5019Z" fill="white"/>
        </g>
        <defs>
            <clipPath id="clip0_1344_2925__gwanjoo">
                <rect width="20" height="20" fill="white"/>
            </clipPath>
        </defs>
    </symbol>
    <symbol id="ibk" width="20" height="20" viewBox="0 0 20 20" fill="none" xmlns="http://www.w3.org/2000/svg">
        <g clip-path="url(#clip0_1344_2975__ibk)">
            <path d="M4.86663 0.552552C4.60048 0.684676 4.36329 0.868456 4.16888 1.09318C3.97448 1.3179 3.82674 1.57907 3.7343 1.86147L0.115634 12.7304C-0.0737189 13.2997 -0.0291889 13.921 0.23943 14.4574C0.508049 14.9939 0.978759 15.4017 1.54803 15.5912L13.4092 19.5735C13.9782 19.7609 14.5984 19.7155 15.134 19.4471C15.6696 19.1787 16.0773 18.7092 16.2678 18.1411L19.8849 7.27218C20.0736 6.70296 20.029 6.08219 19.7609 5.54578C19.4928 5.00936 19.0232 4.60102 18.4547 4.41016L6.59354 0.43123C6.31202 0.335992 6.01437 0.297673 5.71791 0.318501C5.42144 0.339329 5.13208 0.418888 4.86663 0.552552V0.552552Z" fill="white"/>
            <path d="M8.0256 1.74143C10.1007 2.51073 11.6156 4.72725 11.4683 7.1438C11.4162 8.04456 11.1393 8.91791 10.6629 9.68415C10.0096 8.95256 9.19223 8.38616 8.27782 8.03134L7.74777 7.82327V12.8645L8.28554 12.6558C9.19826 12.2975 10.0129 11.7278 10.6626 10.9934C11.2985 12.0127 11.5797 13.2136 11.4624 14.4092C11.3452 15.6049 10.8361 16.7283 10.0143 17.6047L10.0195 17.6006L10.0143 17.6068L1.78447 14.8547C1.41165 14.732 1.10252 14.4668 0.924598 14.117C0.746676 13.7672 0.714426 13.3612 0.834891 12.9876L4.46282 2.11126C4.58145 1.74223 4.84178 1.43541 5.18657 1.25827C5.53136 1.08113 5.93238 1.04816 6.30147 1.16662L6.31321 1.17063L8.0256 1.74143Z" fill="#0092D8"/>
            <path d="M5.9025 13.1692H5.08813V7.52197H5.9025V13.1692Z" fill="white"/>
            <path d="M10.1879 10.3385C9.72953 9.79191 9.16748 9.34149 8.53418 9.01318V11.6681C9.16706 11.3373 9.72892 10.8855 10.1879 10.3385V10.3385Z" fill="#E43D30"/>
            <path d="M18.1931 5.13316L10.636 2.61133C11.5862 3.64757 12.1575 4.975 12.257 6.37742C12.3564 7.77983 11.9781 9.1746 11.1836 10.3346C11.9587 11.4566 12.3434 12.8022 12.2786 14.1644C12.2138 15.5265 11.703 16.8295 10.8249 17.8729L13.6619 18.8203C13.8451 18.8805 14.0383 18.904 14.2305 18.8894C14.4227 18.8749 14.6102 18.8226 14.7822 18.7356C14.9542 18.6486 15.1074 18.5286 15.233 18.3823C15.3586 18.2361 15.4541 18.0666 15.5142 17.8834V17.8794L19.1421 7.00361C19.2626 6.6297 19.2305 6.22332 19.0528 5.87298C18.875 5.52264 18.566 5.25673 18.1931 5.13316V5.13316ZM16.1865 13.1524H15.1678L13.0686 10.3346L15.2024 7.50989H16.2365L14.0954 10.3346L16.1865 13.1524Z" fill="#004B9D"/>
        </g>
        <defs>
            <clipPath id="clip0_1344_2975__ibk">
                <rect width="20" height="20" fill="white"/>
            </clipPath>
        </defs>
    </symbol>
    <symbol id="kb" width="20" height="20" viewBox="0 0 20 20" fill="none" xmlns="http://www.w3.org/2000/svg">
        <g clip-path="url(#clip0_1344_2972__kb)">
            <path d="M19.6781 10.1837L19.5041 10.0769C18.9136 9.49879 18.0904 9.24769 16.9943 9.30966C16.0808 9.36523 15.3555 9.72105 14.802 10.0576C14.802 10.0491 14.802 10.0405 14.802 10.032C14.8083 9.73692 14.8297 9.44234 14.8662 9.14938C14.9038 8.85151 14.9256 8.55191 14.9314 8.25181C14.9414 7.9737 14.8944 7.69646 14.7933 7.43651C14.7809 7.40603 14.7592 7.38009 14.7312 7.36228C14.7031 7.34448 14.6701 7.33569 14.6367 7.33714C14.341 7.34355 13.7668 7.5423 13.6243 7.66304L13.5482 7.82653C13.5482 8.14709 13.4721 9.04574 13.3992 9.15473L13.3601 9.26158C13.2365 10.3836 13.2325 11.5153 13.3481 12.6382C13.3612 12.7343 13.5504 12.8807 13.6972 12.9331C13.844 12.9854 14.3594 12.8594 14.6487 12.7514L14.7574 12.7354C14.7794 12.7324 14.8005 12.7251 14.8196 12.714C14.8386 12.7029 14.8552 12.6881 14.8684 12.6706C14.8816 12.6531 14.891 12.6332 14.8963 12.612C14.9015 12.5908 14.9023 12.5688 14.8988 12.5473C14.8988 12.5473 14.9042 12.2684 14.9042 12.2684C15.1141 11.4329 15.9612 10.438 16.9617 10.2874C17.5282 10.1998 17.9751 10.3408 18.3275 10.7148C18.3753 10.7821 18.4786 11.3826 18.11 12.074C17.8316 12.5858 17.277 13.0154 16.5463 13.2857C15.8547 13.5432 15.0935 13.6479 14.1539 13.6148L13.2698 13.0303C12.526 12.5163 11.6006 11.8763 10.76 11.5632C10.6132 11.5087 10.3479 11.2929 10.1902 11.1636L10.1032 11.0941C9.61933 10.7116 8.69828 10.1089 7.95774 9.62488L7.55865 9.36202V9.27974C7.57932 9.25731 8.04365 8.98376 8.04365 8.98376C8.69611 8.60977 8.99515 8.42598 9.05931 8.33088C9.04626 8.34584 9.1463 8.28066 9.1463 8.28066L10.759 7.38416C12.3064 6.54749 14.0615 5.59863 14.9836 4.66152L15.0282 4.51833L15.0478 4.39118C15.1084 4.21877 15.1133 4.03218 15.0619 3.85691C15.0538 3.82771 15.038 3.80114 15.016 3.77993C14.994 3.75871 14.9667 3.74361 14.9369 3.73616C14.2181 3.66671 13.2894 4.08985 12.4445 4.86775C12.2892 5.00904 12.1142 5.12778 11.9247 5.22036L11.7953 5.29089C10.8644 5.81127 8.7657 7.09031 7.66305 7.78165C7.76733 6.37634 7.95432 4.97813 8.22307 3.59405L8.19263 3.42949L8.08388 3.21578L7.99798 3.06726L7.97297 3.06085C7.89134 3.021 7.80237 2.99771 7.71139 2.99239C7.6204 2.98707 7.52925 2.99981 7.44339 3.02986L7.2259 3.10786L6.93447 3.21472C6.90627 3.22013 6.88008 3.23291 6.85864 3.25171C6.83721 3.27052 6.82133 3.29465 6.81268 3.32157C6.28854 4.56749 5.85139 6.61908 5.75352 8.25609C4.9466 7.75862 4.11155 7.30661 3.25244 6.90224L3.2383 6.89476L3.18066 6.88301C3.01103 6.86057 2.80224 6.73769 2.60106 6.61801L2.20307 6.36477L1.59737 5.97796C1.60389 5.97796 1.43752 5.9427 1.43752 5.9427C1.17545 5.98651 0.676315 6.31882 0.525162 6.54322C0.506295 6.57218 0.496815 6.60609 0.497977 6.64045C0.50054 6.68846 0.509684 6.7359 0.525162 6.7815L0.552348 6.90331L0.580621 6.97704C0.872052 7.27089 1.60824 7.76135 2.33138 8.14389L3.1687 8.57985L4.44861 9.2712C4.44861 9.27654 4.66609 9.44109 4.66609 9.44109L4.81725 9.52658L4.84334 9.5426L2.51625 11.0728L1.29506 11.871C1.0663 11.9949 0.830688 12.1062 0.589321 12.2043C0.356308 12.2822 0.16026 12.4411 0.0379941 12.651L0.00537109 12.7204L0.0390816 12.7664L0.131513 12.8358L0.258742 12.9171L0.392496 13.0079L0.520813 13.0271C0.738298 13.0357 1.05583 12.9149 1.65283 12.6585C2.19654 12.4191 3.68958 11.5376 4.32573 11.1625L4.59759 11.0022C4.70633 11.0108 4.83356 10.9178 4.94339 10.8355C5.12316 10.7037 5.31586 10.5899 5.51864 10.4957C5.51864 10.4957 5.62086 10.4412 5.71003 10.3889C5.71003 10.4177 5.71003 10.4615 5.71003 10.4615C5.7383 12.3742 5.85139 13.7644 6.06344 14.8361V14.8565L6.0841 14.8992C6.19284 15.0509 6.30811 15.504 6.41033 15.9036L6.65283 16.7018C6.65283 16.7114 6.72242 16.7777 6.72242 16.7777C6.86053 16.8685 7.28136 17.0277 7.56409 16.9914L7.63369 16.9828L7.67827 16.8856C7.70142 16.7652 7.71235 16.6427 7.7109 16.5202C7.7109 16.3738 7.70002 16.2124 7.68588 16.0158L7.6674 15.7273C7.57823 14.397 7.49341 12.4672 7.49341 11.185C7.49341 11.1497 7.49341 11.1176 7.49341 11.0781C7.72286 11.2213 8.73417 11.8464 8.73417 11.8464C10.4534 12.9416 13.0502 14.5979 14.6193 15.036C14.6584 15.048 14.7001 15.0497 14.7401 15.0406C14.78 15.0316 14.8168 15.0123 14.8466 14.9847C14.8466 14.9847 15.0891 14.8319 15.0891 14.8319L15.1326 14.8137C15.2239 14.772 15.2848 14.6224 15.2946 14.46C16.618 14.3959 18.4634 13.8948 19.4497 12.6756C19.8039 12.234 19.9989 11.6894 20.0043 11.1272C20.0043 10.7223 19.889 10.3707 19.6781 10.1784" fill="#F8B500"/>
        </g>
        <defs>
            <clipPath id="clip0_1344_2972__kb">
                <rect width="20" height="14" fill="white" transform="translate(0 3)"/>
            </clipPath>
        </defs>
    </symbol>
    <symbol id="korea" width="20" height="20" viewBox="0 0 20 20" fill="none" xmlns="http://www.w3.org/2000/svg">
        <g clip-path="url(#clip0_1344_2954__korea)">
            <path d="M10.0985 7.63853C11.3346 6.09024 13.1297 5.77097 14.4327 6.51793C16.4315 7.66451 16.3809 11.7308 13.6533 14.2661C12.9777 14.8947 10.4815 16.8869 6.92687 16.0749C3.33546 15.2543 0.839888 12.1112 0.574898 8.69447L0.575702 8.69415C0.461261 7.60081 0.693681 6.36376 1.24304 5.17102C0.447509 6.61146 -0.00494539 8.26703 4.0781e-05 10.0292C0.016286 15.5521 4.50617 20.016 10.0292 20C15.5523 19.9839 20.016 15.4938 20 9.97101C19.9998 9.93417 19.9973 9.89734 19.9967 9.86051C19.6965 7.07364 18.1379 5.15847 15.1789 4.99972C15.0912 4.99506 15.0024 4.99264 14.9126 4.99264C13.3639 4.99264 11.5088 5.70462 10.0985 7.63853Z" fill="url(#paint0_linear_1344_2954__korea)"/>
            <path d="M9.97088 6.76242e-05C6.20986 0.0111659 2.94151 2.09788 1.24292 5.1712C0.693552 6.36394 0.461133 7.601 0.575573 8.69433C0.740036 10.2601 1.61808 11.5321 3.30791 11.9534C5.75411 12.5645 7.68721 11.1848 9.93959 7.86438C9.99163 7.78725 10.0447 7.71246 10.0983 7.63871C11.5905 5.59262 13.5804 4.91433 15.1788 4.9999C18.1377 5.15866 19.6964 7.07383 19.9966 9.86069C19.9213 4.39947 15.4724 0.000308321 10.0006 -1.33673e-05C9.9905 -1.33673e-05 9.98093 6.76242e-05 9.97088 6.76242e-05Z" fill="url(#paint1_linear_1344_2954__korea)"/>
            <path d="M10.0985 7.63861C10.0449 7.71236 9.99181 7.78715 9.93977 7.86428C7.68739 11.1847 5.75429 12.5644 3.30809 11.9533C1.61827 11.532 0.740218 10.26 0.575755 8.69423L0.574951 8.69455C0.839942 12.1113 3.33552 15.2544 6.92692 16.075C10.4816 16.887 12.9778 14.8948 13.6533 14.2662C16.3809 11.7309 16.4315 7.66459 14.4327 6.51801C13.9879 6.26299 13.4857 6.13223 12.9681 6.13223C11.9693 6.13223 10.9127 6.61886 10.0985 7.63861Z" fill="url(#paint2_linear_1344_2954__korea)"/>
        </g>
        <defs>
            <linearGradient id="paint0_linear_1344_2954__korea" x1="16.1833" y1="4.05367" x2="3.08633" y2="17.2276" gradientUnits="userSpaceOnUse">
                <stop stop-color="white"/>
                <stop offset="0.1" stop-color="white"/>
                <stop offset="0.763267" stop-color="#00A9DE"/>
                <stop offset="1" stop-color="#00A9DE"/>
            </linearGradient>
            <linearGradient id="paint1_linear_1344_2954__korea" x1="6.99844" y1="14.0131" x2="13.661" y2="2.05946" gradientUnits="userSpaceOnUse">
                <stop stop-color="white"/>
                <stop offset="1" stop-color="#00A9DE"/>
            </linearGradient>
            <linearGradient id="paint2_linear_1344_2954__korea" x1="3.85225" y1="14.7653" x2="13.2144" y2="5.34824" gradientUnits="userSpaceOnUse">
                <stop stop-color="white"/>
                <stop offset="0.05" stop-color="white"/>
                <stop offset="0.538844" stop-color="#00A9DE"/>
                <stop offset="1" stop-color="#00A9DE"/>
            </linearGradient>
            <clipPath id="clip0_1344_2954__korea">
                <rect width="20" height="20" fill="white"/>
            </clipPath>
        </defs>
    </symbol>
    <symbol id="nh" width="20" height="20" viewBox="0 0 20 20" fill="none" xmlns="http://www.w3.org/2000/svg">
        <g clip-path="url(#clip0_1344_2835__nh)">
            <path d="M13.8994 0L9.99993 1.98133L6.10596 0L9.99993 7.49895L13.8994 0Z" fill="#FDB913"/>
            <path d="M15.2626 5.79352L15.202 5.74336L17.9834 4.5618V0.618652L13.1669 2.68915C13.1669 2.68915 10.548 7.70518 10.4901 7.81943C11.5197 7.94239 12.4639 8.4588 13.1297 9.26301C13.7954 10.0672 14.1323 11.0984 14.0714 12.1457C14.0105 13.1929 13.5565 14.1771 12.8022 14.8968C12.048 15.6165 11.0504 16.0174 10.0137 16.0174C8.97698 16.0174 7.97944 15.6165 7.22515 14.8968C6.47087 14.1771 6.01686 13.1929 5.956 12.1457C5.89514 11.0984 6.23203 10.0672 6.89775 9.26301C7.56347 8.4588 8.50771 7.94239 9.53728 7.81943L6.86602 2.68915L2.02472 0.618652V4.57574L4.80338 5.75729L4.74279 5.80745C3.51573 6.89096 2.64468 8.32762 2.24605 9.92545C1.84742 11.5233 1.94019 13.2061 2.51196 14.7492C3.08374 16.2922 4.10729 17.622 5.44582 18.5607C6.78436 19.4993 8.37413 20.0023 10.0027 20.0023C11.6312 20.0023 13.221 19.4993 14.5595 18.5607C15.8981 17.622 16.9216 16.2922 17.4934 14.7492C18.0652 13.2061 18.158 11.5233 17.7593 9.92545C17.3607 8.32762 16.4896 6.89096 15.2626 5.80745V5.79352Z" fill="#FDB913"/>
        </g>
        <defs>
            <clipPath id="clip0_1344_2835__nh">
                <rect width="16" height="20" fill="white" transform="translate(2)"/>
            </clipPath>
        </defs>
    </symbol>
    <symbol id="sanup" width="20" height="20" viewBox="0 0 20 20" fill="none" xmlns="http://www.w3.org/2000/svg">
        <path d="M3.51643 5.10645C3.12386 5.88408 3.52488 7.48913 4.01889 8.26207L10.8194 18.9376H5.85122C5.06701 18.9376 4.29877 18.4897 3.96348 17.9722L0.254677 12.1493C-0.0937559 11.6055 -0.0759117 10.7405 0.254677 10.2193L3.51643 5.10645Z" fill="url(#paint0_radial_1344_2829__sanup)"/>
        <path d="M6.38843 10.3659C6.20811 10.6476 6.04188 11.322 6.31705 11.8686L4.01984 8.26307C3.52584 7.49013 3.12481 5.88509 3.51739 5.10745L3.92686 4.46693C4.29502 3.88277 4.98155 3.50146 5.84747 3.50146H10.7312L6.38843 10.3659Z" fill="url(#paint1_radial_1344_2829__sanup)"/>
        <path d="M16.4827 14.8937C16.8743 14.1151 16.4752 12.5101 15.9812 11.7381L9.17969 1.0625H14.1489C14.9331 1.0625 15.7013 1.50955 16.0366 2.02703L19.7454 7.8499C20.0938 8.39368 20.076 9.25866 19.7454 9.78084L16.4827 14.8937Z" fill="url(#paint2_radial_1344_2829__sanup)"/>
        <path d="M13.6125 9.63354C13.7938 9.35178 13.9581 8.6784 13.6839 8.13086L15.9811 11.7373C16.4751 12.5093 16.8743 14.1143 16.4826 14.8929L16.075 15.5325C15.7059 16.1176 15.0194 16.4989 14.1535 16.4989H9.26978L13.6125 9.63354Z" fill="url(#paint3_radial_1344_2829__sanup)"/>
        <defs>
            <radialGradient id="paint0_radial_1344_2829__sanup" cx="0" cy="0" r="1" gradientUnits="userSpaceOnUse" gradientTransform="translate(0.158281 8.83661) rotate(-90) scale(13.1925 14.4489)">
                <stop stop-color="#D3E6F6"/>
                <stop offset="0.07" stop-color="#CBE2F5"/>
                <stop offset="0.17" stop-color="#B5D6F1"/>
                <stop offset="0.25" stop-color="#A1CBED"/>
                <stop offset="0.34" stop-color="#8FBCE4"/>
                <stop offset="0.53" stop-color="#5F95CB"/>
                <stop offset="0.7" stop-color="#2F6EB3"/>
                <stop offset="0.82" stop-color="#205CA2"/>
                <stop offset="1" stop-color="#00367F"/>
            </radialGradient>
            <radialGradient id="paint1_radial_1344_2829__sanup" cx="0" cy="0" r="1" gradientUnits="userSpaceOnUse" gradientTransform="translate(11.3981 3.48113) scale(9.27667 9.27668)">
                <stop stop-color="#D3E6F6"/>
                <stop offset="0.07" stop-color="#CBE2F5"/>
                <stop offset="0.17" stop-color="#B5D6F1"/>
                <stop offset="0.25" stop-color="#A1CBED"/>
                <stop offset="0.34" stop-color="#8FBCE4"/>
                <stop offset="0.53" stop-color="#5F95CB"/>
                <stop offset="0.7" stop-color="#2F6EB3"/>
                <stop offset="0.82" stop-color="#205CA2"/>
                <stop offset="1" stop-color="#00367F"/>
            </radialGradient>
            <radialGradient id="paint2_radial_1344_2829__sanup" cx="0" cy="0" r="1" gradientUnits="userSpaceOnUse" gradientTransform="translate(19.8413 11.09) rotate(90) scale(13.1917 14.448)">
                <stop stop-color="#D3E6F6"/>
                <stop offset="0.07" stop-color="#CBE2F5"/>
                <stop offset="0.17" stop-color="#B5D6F1"/>
                <stop offset="0.25" stop-color="#A1CBED"/>
                <stop offset="0.34" stop-color="#8FBCE4"/>
                <stop offset="0.53" stop-color="#5F95CB"/>
                <stop offset="0.7" stop-color="#2F6EB3"/>
                <stop offset="0.82" stop-color="#205CA2"/>
                <stop offset="1" stop-color="#00367F"/>
            </radialGradient>
            <radialGradient id="paint3_radial_1344_2829__sanup" cx="0" cy="0" r="1" gradientUnits="userSpaceOnUse" gradientTransform="translate(9.06161 16.5019) rotate(180) scale(9.27836 9.27837)">
                <stop stop-color="#D3E6F6"/>
                <stop offset="0.07" stop-color="#CBE2F5"/>
                <stop offset="0.17" stop-color="#B5D6F1"/>
                <stop offset="0.25" stop-color="#A1CBED"/>
                <stop offset="0.34" stop-color="#8FBCE4"/>
                <stop offset="0.53" stop-color="#5F95CB"/>
                <stop offset="0.7" stop-color="#2F6EB3"/>
                <stop offset="0.82" stop-color="#205CA2"/>
                <stop offset="1" stop-color="#00367F"/>
            </radialGradient>
        </defs>
    </symbol>
    <symbol id="sc" width="20" height="20" viewBox="0 0 20 20" fill="none" xmlns="http://www.w3.org/2000/svg">
        <g clip-path="url(#clip0_1344_2911__sc)">
            <path d="M13.9128 4.13477C13.1863 4.13477 10.7625 5.91609 10.7625 5.91609C10.7625 5.91609 13.1863 7.69803 13.9128 7.69803C14.9254 7.69803 15.7694 7.01322 15.7694 5.91609C15.7694 4.81897 14.9254 4.13477 13.9128 4.13477Z" fill="#38D200"/>
            <path d="M5.67151 20.0003C6.39799 20.0003 8.82185 18.219 8.82185 18.219C8.82185 18.219 6.40015 16.437 5.67151 16.437C4.65894 16.437 3.81519 17.1218 3.81519 18.219C3.81519 19.3161 4.66048 20.0003 5.67151 20.0003Z" fill="#0473EA"/>
            <path d="M14.5459 10.1242L8.27171 5.95328L11.8973 3.4143C12.7346 2.82793 12.9948 1.67032 12.422 0.821933C12.1476 0.413128 11.722 0.130051 11.239 0.0349625C10.7559 -0.0601261 10.2548 0.0405606 9.84596 0.314878L9.81695 0.334629L5.48523 3.3964C5.07635 3.68525 4.74404 4.06942 4.51708 4.51563C4.29012 4.96185 4.17535 5.45666 4.18271 5.95722C4.19006 6.45779 4.31932 6.94902 4.5593 7.38837C4.79927 7.82772 5.14272 8.20196 5.55991 8.47867L15.3658 14.9778C16.4809 13.2607 16.2648 11.2395 14.5459 10.1242Z" fill="#0473EA"/>
            <path d="M4.52128 9.56055L15.3348 16.5127C15.748 16.7789 16.0386 17.1982 16.1428 17.6785C16.2469 18.1588 16.1561 18.6608 15.8903 19.0742V19.0742C15.6242 19.4874 15.2049 19.778 14.7246 19.8822C14.2443 19.9863 13.7422 19.8955 13.3288 19.6297L5.63507 14.6845C4.80821 14.1527 4.22638 13.3143 4.01752 12.3536C3.80866 11.3929 3.98986 10.3886 4.52128 9.56147V9.56055Z" fill="#38D200"/>
        </g>
        <defs>
            <clipPath id="clip0_1344_2911__sc">
                <rect width="20" height="20" fill="white"/>
            </clipPath>
        </defs>
    </symbol>
    <symbol id="woori" width="20" height="20" viewBox="0 0 20 20" fill="none" xmlns="http://www.w3.org/2000/svg">
        <g clip-path="url(#clip0_1344_2839__woori)">
            <path d="M20 10C20 11.9772 19.4139 13.91 18.3157 15.5542C17.2176 17.1983 15.6567 18.48 13.8304 19.2374C12.004 19.9947 9.99409 20.1936 8.0547 19.809C6.11531 19.4244 4.33345 18.4735 2.93432 17.0765C1.53519 15.6794 0.581586 13.8991 0.194016 11.9603C-0.193555 10.0215 0.00229476 8.01127 0.756836 6.18374C1.51138 4.35621 2.79073 2.79337 4.43322 1.69273C6.0757 0.592083 8.00761 0.00302328 9.98477 1.16023e-05C11.2993 -0.00199069 12.6013 0.255188 13.8163 0.756839C15.0313 1.25849 16.1355 1.99478 17.0657 2.92356C17.9959 3.85235 18.7338 4.9554 19.2373 6.16965C19.7408 7.38391 20 8.68552 20 10Z" fill="white"/>
            <path d="M9.98484 19.5357C11.8711 19.5372 13.7154 18.9792 15.2845 17.9324C16.8536 16.8855 18.077 15.3968 18.7998 13.6546C19.5227 11.9123 19.7127 9.99485 19.3456 8.14466C18.9785 6.29447 18.071 4.59472 16.7377 3.26041C15.4045 1.92609 13.7054 1.01717 11.8555 0.648629C10.0056 0.280085 8.088 0.468462 6.34519 1.18995C4.60237 1.91144 3.11269 3.13361 2.06459 4.70187C1.01649 6.27012 0.457035 8.11401 0.457034 10.0003C0.456034 11.2521 0.701744 12.4919 1.18011 13.6487C1.65848 14.8056 2.36013 15.8568 3.24497 16.7424C4.1298 17.6279 5.18049 18.3304 6.33696 18.8097C7.49342 19.289 8.73299 19.5357 9.98484 19.5357Z" fill="#0083CA"/>
            <mask id="mask0_1344_2839__woori" style="mask-type:luminance" maskUnits="userSpaceOnUse" x="0" y="0" width="20" height="20">
                <path d="M9.98484 19.5356C11.8693 19.5356 13.7114 18.9768 15.2782 17.9299C16.8451 16.8829 18.0663 15.3949 18.7874 13.6539C19.5085 11.9129 19.6972 9.99722 19.3296 8.14901C18.9619 6.30079 18.0545 4.60309 16.722 3.27061C15.3895 1.93812 13.6918 1.03069 11.8436 0.66306C9.99541 0.295428 8.07968 0.484105 6.3387 1.20524C4.59772 1.92638 3.1097 3.14758 2.06277 4.71442C1.01584 6.28126 0.457031 8.12337 0.457031 10.0078C0.459048 12.5341 1.46352 14.9564 3.24989 16.7427C5.03626 18.5291 7.45853 19.5336 9.98484 19.5356Z" fill="white"/>
            </mask>
            <g mask="url(#mask0_1344_2839__woori)">
                <path d="M10.0915 14.5998C14.288 14.5998 17.8675 15.7727 19.4136 17.4254C19.9274 16.2061 20.1866 14.8947 20.1752 13.5716C20.103 10.9382 19.006 8.43687 17.1179 6.5998C15.2297 4.76272 12.6992 3.73486 10.0648 3.73486C7.43039 3.73486 4.89994 4.76272 3.01175 6.5998C1.12356 8.43687 0.0266299 10.9382 -0.0456543 13.5716C-0.0395897 14.882 0.232485 16.1775 0.754055 17.3797C2.32298 15.7727 5.9102 14.5998 10.0915 14.5998Z" fill="#0083CA"/>
                <path d="M10.0915 14.6077C14.2728 14.6077 17.8447 15.773 19.3908 17.4104C19.8999 16.2057 20.159 14.9102 20.1524 13.6024C20.1524 10.928 19.09 8.36312 17.199 6.47204C15.3079 4.58097 12.743 3.51855 10.0686 3.51855C7.39425 3.51855 4.8294 4.58097 2.93833 6.47204C1.04725 8.36312 -0.0151367 10.928 -0.0151367 13.6024C-0.0140286 14.9133 0.258255 16.2098 0.784573 17.4104C2.36873 15.773 5.91786 14.6077 10.0915 14.6077Z" fill="#0085CB"/>
                <path d="M10.0914 14.6229C14.2574 14.6229 17.8294 15.7729 19.3602 17.4028C19.8758 16.2001 20.1352 14.9032 20.1218 13.5947C20.0497 10.9753 18.9585 8.48738 17.0803 6.66014C15.2021 4.83291 12.6851 3.81055 10.0647 3.81055C7.44431 3.81055 4.92729 4.83291 3.04908 6.66014C1.17086 8.48738 0.0796598 10.9753 0.00756988 13.5947C-0.00577247 14.9032 0.253609 16.2001 0.769185 17.4028C2.36858 15.7729 5.92533 14.6229 10.0914 14.6229Z" fill="#0086CD"/>
                <path d="M10.0915 14.6305C14.2499 14.6305 17.8067 15.7729 19.3375 17.3875C19.8475 16.1992 20.1068 14.9183 20.0991 13.6252C19.9981 11.0326 18.8971 8.57977 17.0271 6.78121C15.157 4.98265 12.6632 3.97803 10.0687 3.97803C7.47407 3.97803 4.9803 4.98265 3.11027 6.78121C1.24024 8.57977 0.139246 11.0326 0.038195 13.6252C0.0269053 14.9162 0.286355 16.1953 0.79981 17.3799C2.36874 15.7729 5.94072 14.6305 10.0915 14.6305Z" fill="#0088CE"/>
                <path d="M10.0914 14.6459C14.2345 14.6459 17.7837 15.7731 19.3145 17.3801C19.8238 16.2022 20.0831 14.9314 20.0761 13.6482C19.9752 11.0615 18.8767 8.61446 17.0109 6.82009C15.1452 5.02571 12.6571 4.02344 10.0685 4.02344C7.4799 4.02344 4.99186 5.02571 3.1261 6.82009C1.26034 8.61446 0.161818 11.0615 0.0608846 13.6482C0.0498499 14.9318 0.309356 16.2034 0.8225 17.3801C2.36858 15.7731 5.94818 14.6459 10.0914 14.6459Z" fill="#008ACF"/>
                <path d="M10.0838 14.6537C14.227 14.6537 17.7609 15.7732 19.2841 17.365C19.7974 16.1991 20.0571 14.9374 20.0457 13.6635C20.0457 8.41601 15.5751 4.09766 10.061 4.09766C4.54687 4.09766 0.0838016 8.41602 0.0838016 13.6712C0.0733151 14.9425 0.332912 16.2015 0.845417 17.365C2.41434 15.7732 5.95586 14.6537 10.0838 14.6537Z" fill="#008CD0"/>
                <path d="M10.084 14.661C14.2119 14.661 17.7458 15.7805 19.2614 17.3495C19.7704 16.1956 20.0299 14.9472 20.023 13.6861C20.023 8.47665 15.56 4.18115 10.0611 4.18115C4.56226 4.18115 0.114428 8.48426 0.114428 13.6861C0.106636 14.9473 0.36621 16.1959 0.876043 17.3495C2.42974 15.7805 5.96363 14.661 10.084 14.661Z" fill="#008ED2"/>
                <path d="M10.0839 14.6766C14.2042 14.6766 17.7 15.781 19.2233 17.3423C19.733 16.1967 19.9927 14.9556 19.9849 13.7017C19.9849 8.538 15.537 4.27295 10.0839 4.27295C4.63072 4.27295 0.182892 8.5456 0.182892 13.7093C0.179617 14.9603 0.439088 16.198 0.944507 17.3423C2.4525 15.781 5.97878 14.6766 10.0839 14.6766Z" fill="#008FD3"/>
                <path d="M10.0839 14.6839C14.189 14.6839 17.7 15.7807 19.2233 17.3267C19.7329 16.1946 19.9927 14.9659 19.9849 13.7243C19.9849 8.60627 15.5447 4.35645 10.0839 4.35645C4.62311 4.35645 0.182893 8.60627 0.182893 13.7243C0.179562 14.9654 0.439129 16.1932 0.944508 17.3267C2.46774 15.7807 5.9864 14.6839 10.0839 14.6839Z" fill="#0091D4"/>
                <path d="M10.0839 14.6989C14.1738 14.6989 17.7 15.7804 19.1852 17.3189C19.6941 16.1945 19.9539 14.9734 19.9468 13.7393C19.9468 8.6669 15.5218 4.43994 10.0458 4.43994C4.56979 4.43994 0.144807 8.6669 0.144807 13.7393C0.141467 14.973 0.401106 16.1933 0.906422 17.3189C2.49058 15.7804 5.99402 14.6989 10.0839 14.6989Z" fill="#0093D5"/>
                <path d="M10.0837 14.7067C14.1659 14.7067 17.6617 15.7806 19.1621 17.3038C19.6673 16.1917 19.9271 14.9838 19.9237 13.7623C19.9237 8.72804 15.5064 4.52393 10.0684 4.52393C4.63051 4.52393 0.213166 8.73566 0.213166 13.7623C0.209843 14.9838 0.469603 16.1917 0.974781 17.3038C2.50563 15.7806 6.00143 14.7067 10.0837 14.7067Z" fill="#0095D7"/>
                <path d="M10.0761 14.7144C14.1508 14.7144 17.639 15.7806 19.1317 17.2886C19.6405 16.1884 19.9005 14.9897 19.8934 13.7776C19.8934 8.78898 15.4912 4.63818 10.0609 4.63818C4.63059 4.63818 0.243678 8.82707 0.243678 13.7776C0.240666 14.9892 0.500511 16.1871 1.00529 17.2886C2.52852 15.7806 6.01672 14.7144 10.0761 14.7144Z" fill="#0097D8"/>
                <path d="M10.0762 14.7297C14.1432 14.7297 17.6162 15.7807 19.1089 17.2811C19.6133 16.1902 19.8733 15.0023 19.8706 13.8005C19.8706 8.85763 15.4836 4.66113 10.0685 4.66113C4.65347 4.66113 0.274191 8.82717 0.274191 13.8005C0.27146 15.0023 0.531395 16.1902 1.03581 17.2811C2.5438 15.7807 6.02438 14.7297 10.0762 14.7297Z" fill="#0099D9"/>
                <path d="M10.0763 14.7373C14.1281 14.7373 17.5934 15.7883 19.0862 17.2659C19.5912 16.186 19.8513 15.0079 19.8478 13.8158C19.8478 8.91857 15.4685 4.77539 10.0687 4.77539C4.66881 4.77539 0.297154 8.91857 0.297154 13.8158C0.293672 15.0079 0.553748 16.186 1.05877 17.2659C2.56677 15.7883 6.03211 14.7373 10.0763 14.7373Z" fill="#009BDA"/>
                <path d="M10.0761 14.7523C14.1127 14.7523 17.578 15.7881 19.0556 17.258C19.5597 16.1859 19.8198 15.0154 19.8172 13.8307C19.8172 8.97922 15.4531 4.85889 10.0685 4.85889C4.68388 4.85889 0.319833 8.97923 0.319833 13.8383C0.318078 15.0205 0.578179 16.1883 1.08145 17.258C2.58183 15.7881 6.03956 14.7523 10.0761 14.7523Z" fill="#009DDC"/>
                <path d="M10.0762 14.7601C14.1051 14.7601 17.5552 15.7883 19.0328 17.2429C19.5367 16.1843 19.797 15.0262 19.7944 13.8538C19.7944 9.04034 15.4379 4.94287 10.0685 4.94287C4.69915 4.94287 0.350342 9.04796 0.350342 13.8538C0.351068 15.0258 0.611157 16.1832 1.11196 17.2429C2.60472 15.7883 6.05483 14.7601 10.0762 14.7601Z" fill="#009FDD"/>
                <path d="M10.0762 14.7674C14.0899 14.7674 17.5324 15.788 19.01 17.2274C19.5149 16.18 19.7753 15.0315 19.7716 13.8687C19.7716 9.10864 15.4304 5.02637 10.0762 5.02637C4.72205 5.02637 0.380859 9.10864 0.380859 13.8687C0.380755 15.0311 0.640996 16.1788 1.14247 17.2274C2.62001 15.788 6.06249 14.7674 10.0762 14.7674Z" fill="#00A1DE"/>
                <path d="M10.0687 14.7831C14.0824 14.7831 17.5097 15.7884 18.9796 17.2202C19.4821 16.1828 19.7425 15.0447 19.7413 13.892C19.7413 9.16997 15.4077 5.11816 10.0611 5.11816C4.7146 5.11816 0.39624 9.16997 0.39624 13.892C0.397845 15.0444 0.658115 16.1818 1.15786 17.2202C2.63539 15.7884 6.07026 14.7831 10.0687 14.7831Z" fill="#00A3DF"/>
                <path d="M10.0685 14.7904C14.067 14.7904 17.4867 15.7881 18.9566 17.2047C19.4604 16.1785 19.721 15.0501 19.7182 13.9069C19.7182 9.2306 15.3998 5.20166 10.0685 5.20166C4.73723 5.20166 0.426514 9.2306 0.426514 13.9069C0.42746 15.0497 0.687879 16.1773 1.18813 17.2047C2.65805 15.7881 6.08529 14.7904 10.0685 14.7904Z" fill="#00A5E1"/>
                <path d="M10.0686 14.8058C14.0519 14.8058 17.4715 15.7883 18.9338 17.1973C19.4334 16.1805 19.6939 15.0629 19.6955 13.93C19.6955 9.29174 15.3847 5.28564 10.0686 5.28564C4.75257 5.28564 0.449463 9.29936 0.449463 13.93C0.451031 15.0629 0.711537 16.1805 1.21108 17.1973C2.67338 15.7883 6.09301 14.8058 10.0686 14.8058Z" fill="#00A7E2"/>
                <path d="M10.0684 14.8136C14.044 14.8136 17.4485 15.7961 18.9108 17.1823C19.4101 16.1762 19.6708 15.0686 19.6724 13.9454C19.6724 9.37571 15.3769 5.36963 10.076 5.36963C4.77519 5.36963 0.487305 9.36048 0.487305 13.9454C0.488923 15.0686 0.749549 16.1762 1.24892 17.1823C2.69599 15.8342 6.1004 14.8136 10.0684 14.8136Z" fill="#00A9E3"/>
                <path d="M10.0685 14.821C14.0289 14.821 17.4257 15.7959 18.8804 17.1668C19.3798 16.1743 19.6406 15.079 19.642 13.968C19.642 9.39828 15.3617 5.45312 10.0761 5.45312C4.79053 5.45312 0.510254 9.42113 0.510254 13.968C0.511665 15.079 0.772459 16.1743 1.27187 17.1668C2.71132 15.8339 6.10811 14.821 10.0685 14.821Z" fill="#00ABE5"/>
                <path d="M10.0686 14.8359C14.0214 14.8359 17.403 15.7956 18.8577 17.1588C19.3568 16.1745 19.6177 15.0866 19.6193 13.9829C19.6193 9.48178 15.3466 5.53662 10.0762 5.53662C4.80586 5.53662 0.533203 9.48178 0.533203 13.9829C0.534792 15.0866 0.795674 16.1745 1.29482 17.1588C2.73427 15.8336 6.12345 14.8359 10.0686 14.8359Z" fill="#00ADE6"/>
                <path d="M10.0611 14.8439C14.0062 14.8439 17.3878 15.7959 18.8349 17.1287C19.3307 16.154 19.5915 15.0768 19.5965 13.9832C19.5965 9.52779 15.339 5.60547 10.0763 5.60547C4.81352 5.60547 0.563721 9.5354 0.563721 13.9832C0.568937 15.0768 0.82975 16.1539 1.32534 17.1287C2.74956 15.834 6.13113 14.8439 10.0611 14.8439Z" fill="#00AFE7"/>
                <path d="M10.061 14.8591C13.9985 14.8591 17.3648 15.7959 18.8043 17.144C19.303 16.184 19.5642 15.1184 19.5659 14.0366C19.5659 9.62682 15.3161 5.71973 10.0686 5.71973C4.82105 5.71973 0.578857 9.62682 0.578857 14.0366C0.584061 15.1179 0.845041 16.1827 1.34047 17.144C2.77231 15.834 6.17674 14.8591 10.061 14.8591Z" fill="#00B2E9"/>
                <path d="M10.061 14.8668C13.9833 14.8668 17.342 15.796 18.7814 17.1517C19.2769 16.1987 19.538 15.1412 19.5431 14.0671C19.5431 9.70307 15.3085 5.81885 10.0762 5.81885C4.84389 5.81885 0.616943 9.70307 0.616943 14.0671C0.621986 15.1412 0.883078 16.1987 1.37856 17.1517C2.78755 15.8341 6.17673 14.8668 10.061 14.8668Z" fill="#00B4EA"/>
                <path d="M10.0611 14.8743C13.9682 14.8743 17.3192 15.7959 18.7587 17.1059C19.253 16.1661 19.5142 15.1213 19.5203 14.0594C19.5203 9.73346 15.2934 5.87207 10.0763 5.87207C4.85923 5.87207 0.639893 9.73346 0.639893 14.0594C0.645991 15.1213 0.907197 16.1661 1.40151 17.1059C2.8105 15.834 6.17683 14.8743 10.0611 14.8743Z" fill="#00B6EB"/>
                <path d="M10.0609 14.8894C13.9604 14.8894 17.2963 15.8033 18.7281 17.0981C19.2296 16.1611 19.4913 15.1144 19.4897 14.0516C19.4897 9.77135 15.2704 5.94043 10.0761 5.94043C4.88193 5.94043 0.662598 9.7485 0.662598 14.0516C0.664766 15.114 0.926204 16.1597 1.42421 17.0981C2.82558 15.8338 6.17669 14.8894 10.0609 14.8894Z" fill="#00B8ED"/>
                <path d="M10.0534 14.8968C13.9453 14.8968 17.2811 15.8032 18.7054 17.0827C19.1995 16.1648 19.461 15.1396 19.467 14.0972C19.467 9.86257 15.2552 6.04688 10.0686 6.04688C4.88203 6.04688 0.685547 9.85496 0.685547 14.0972C0.691478 15.1396 0.952988 16.1648 1.44716 17.0827C2.84092 15.8336 6.17678 14.8968 10.0534 14.8968Z" fill="#01BBEE"/>
                <path d="M10.0532 14.9123C13.9374 14.9123 17.2581 15.8034 18.6823 17.0676C19.1763 16.1606 19.438 15.1454 19.4439 14.1126C19.4439 9.92369 15.2474 6.13086 10.076 6.13086C4.90465 6.13086 0.723389 9.93892 0.723389 14.1126C0.729311 15.1454 0.990975 16.1606 1.485 17.0676C2.86353 15.8338 6.17655 14.9123 10.0532 14.9123Z" fill="#11BDF0"/>
                <path d="M10.0533 14.9201C13.9223 14.9201 17.2353 15.8036 18.6519 17.0602C19.1449 16.1638 19.4067 15.1587 19.4135 14.1356C19.4135 9.98483 15.2323 6.21484 10.0761 6.21484C4.91999 6.21484 0.746338 9.98485 0.746338 14.128C0.752219 15.1536 1.014 16.1614 1.50795 17.0602C2.87886 15.834 6.17665 14.9201 10.0533 14.9201Z" fill="#1AC0F1"/>
                <path d="M10.0534 14.9274C13.9071 14.9274 17.2126 15.8033 18.6292 17.0447C19.1221 16.1593 19.3841 15.164 19.3908 14.1506C19.3908 10.0455 15.2171 6.29834 10.0762 6.29834C4.93532 6.29834 0.769287 10.0455 0.769287 14.1506C0.77503 15.1641 1.03703 16.1597 1.5309 17.0447C2.90181 15.8337 6.17675 14.9274 10.0534 14.9274Z" fill="#1FC4F4"/>
                <path d="M10.0533 14.9584C13.907 14.9584 17.2048 15.8266 18.6138 17.0605C19.1067 16.1805 19.3688 15.1901 19.3754 14.1816C19.3754 10.1069 15.2094 6.375 10.0761 6.375C4.94283 6.375 0.784424 10.1069 0.784424 14.1816C0.796265 15.1894 1.05795 16.1786 1.54604 17.0605C2.90933 15.8343 6.17664 14.9584 10.0533 14.9584Z" fill="#32C5F4"/>
                <path d="M10.0532 14.9808C13.8994 14.9808 17.1972 15.8414 18.6062 17.0676C19.0954 16.1945 19.3573 15.2123 19.3678 14.2115C19.3678 10.1597 15.2094 6.45068 10.0761 6.45068C4.9428 6.45068 0.791992 10.1597 0.791992 14.2115C0.802488 15.2123 1.06438 16.1945 1.55361 17.0676C2.9169 15.8338 6.21469 14.9808 10.0532 14.9808Z" fill="#3FC7F4"/>
                <path d="M10.0534 15.0038C13.8614 15.0038 17.1897 15.8568 18.5911 17.0754C19.0834 16.2118 19.3456 15.2363 19.3527 14.2422C19.3527 10.2133 15.2019 6.53467 10.0762 6.53467C4.95055 6.53467 0.807373 10.2133 0.807373 14.2422C0.817766 15.2358 1.07979 16.2105 1.56899 17.0754C2.93228 15.834 6.22244 15.0038 10.0534 15.0038Z" fill="#4AC8F5"/>
                <path d="M10.0535 15.0267C13.8615 15.0267 17.1746 15.8797 18.5836 17.0906C19.0718 16.2309 19.3339 15.2613 19.3452 14.2727C19.3452 10.2742 15.202 6.61084 10.0839 6.61084C4.96589 6.61084 0.830322 10.2742 0.830322 14.2651C0.840673 15.2562 1.10275 16.2285 1.59194 17.0906C2.94 15.8797 6.23016 15.0267 10.0535 15.0267Z" fill="#54CAF5"/>
                <path d="M10.0534 15.0723C13.8615 15.0723 17.1669 15.9177 18.5682 17.121C19.0606 16.2685 19.3231 15.3028 19.3298 14.3183C19.3298 10.3503 15.1867 6.70215 10.0762 6.70215C4.96579 6.70215 0.845459 10.3274 0.845459 14.3107C0.859329 15.2941 1.1213 16.2582 1.60707 17.1134C2.94752 15.8948 6.23007 15.0723 10.0534 15.0723Z" fill="#5CCCF5"/>
                <path d="M10.0534 15.0724C13.8615 15.0724 17.1593 15.9178 18.5606 17.1135C19.0486 16.2647 19.3108 15.305 19.3222 14.326C19.3222 10.3808 15.1867 6.76318 10.0839 6.76318C4.98103 6.76318 0.845459 10.3809 0.845459 14.3108C0.856902 15.2898 1.11912 16.2495 1.60707 17.0983C2.95513 15.9178 6.23769 15.0724 10.0534 15.0724Z" fill="#64CDF6"/>
                <path d="M10.0532 15.0721C13.8613 15.0721 17.1515 15.9023 18.5452 17.0904C19.0332 16.2499 19.2956 15.2975 19.3069 14.3257C19.3069 10.411 15.1789 6.80859 10.0837 6.80859C4.98851 6.80859 0.868164 10.411 0.868164 14.3257C0.870191 15.2938 1.11924 16.2454 1.59171 17.0904C2.96261 15.9327 6.24516 15.0721 10.0532 15.0721Z" fill="#6CCFF6"/>
                <path d="M10.0534 15.1255C13.8615 15.1255 17.1364 15.9556 18.5378 17.1285C19.0255 16.2963 19.288 15.3513 19.2994 14.3867C19.2994 10.4948 15.1714 6.92285 10.0839 6.92285C4.99626 6.92285 0.845459 10.5025 0.845459 14.3867C0.85578 15.3514 1.11835 16.2967 1.60707 17.1285C2.97798 15.9556 6.24531 15.1255 10.0534 15.1255Z" fill="#73D1F6"/>
                <path d="M10.0534 15.1483C13.8615 15.1483 17.1288 15.9709 18.5225 17.1437C19.01 16.3169 19.2726 15.3769 19.2841 14.4172C19.2841 10.5482 15.1638 6.99902 10.0839 6.99902C5.00388 6.99902 0.845459 10.5482 0.845459 14.4172C0.857018 15.3769 1.11959 16.3169 1.60707 17.1437C2.9856 15.9709 6.25292 15.1483 10.0534 15.1483Z" fill="#7AD2F7"/>
                <path d="M10.0532 15.1717C13.8613 15.1717 17.121 15.9942 18.5148 17.1519C18.9857 16.3284 19.235 15.3968 19.2383 14.4481C19.2383 10.64 15.1256 7.07568 10.0532 7.07568C4.98084 7.07568 0.913818 10.6096 0.913818 14.4481C0.917064 15.3968 1.16637 16.3284 1.63736 17.1519C2.99304 15.9942 6.26036 15.1717 10.0532 15.1717Z" fill="#81D4F7"/>
                <path d="M10.0532 15.194C13.8613 15.194 17.1134 16.0089 18.4996 17.159C18.9866 16.3487 19.2495 15.4235 19.2612 14.4781C19.2612 10.67 15.1485 7.15137 10.0837 7.15137C5.01898 7.15137 0.944336 10.6624 0.944336 14.4705C0.955866 15.4206 1.21863 16.3508 1.70595 17.1666C3.0007 16.0089 6.2604 15.194 10.0532 15.194Z" fill="#88D6F8"/>
                <path d="M10.0533 15.2245C13.8614 15.2245 17.0983 16.0318 18.492 17.1742C18.9628 16.3617 19.2123 15.44 19.2155 14.501C19.2155 10.6929 15.1104 7.22754 10.0761 7.22754C5.04187 7.22754 0.936768 10.7157 0.936768 14.501C0.940037 15.44 1.18952 16.3617 1.66031 17.1742C3.01599 16.0318 6.26807 15.2245 10.0533 15.2245Z" fill="#8ED8F8"/>
                <path d="M10.0534 15.2476C13.8615 15.2476 17.0907 16.0092 18.4769 17.182C18.9608 16.3815 19.2236 15.4669 19.2385 14.5316C19.2385 10.7769 15.141 7.31152 10.0991 7.31152C5.05721 7.31152 0.959717 10.7769 0.959717 14.5316C0.970896 15.4675 1.23399 16.383 1.72133 17.182C3.02369 16.0472 6.27579 15.2476 10.0534 15.2476Z" fill="#94DAF8"/>
                <path d="M10.0532 15.2704C13.8613 15.2704 17.0829 16.032 18.431 17.1973C18.9167 16.4032 19.1798 15.4929 19.1926 14.5621C19.1926 10.8302 15.0951 7.3877 10.0532 7.3877C5.01131 7.3877 0.913818 10.8302 0.913818 14.5621C0.918394 15.4889 1.16802 16.3981 1.63736 17.1973C3.03112 16.0625 6.27559 15.2704 10.0532 15.2704Z" fill="#9BDCF9"/>
                <path d="M10.0534 15.2933C13.8615 15.2933 17.0755 16.0549 18.4312 17.2049C18.9004 16.4139 19.1501 15.5122 19.1547 14.5926C19.1547 10.8835 15.0649 7.46387 10.0154 7.46387C4.96585 7.46387 0.875977 10.8911 0.875977 14.5926C0.880585 15.5122 1.13033 16.4139 1.5995 17.2049C3.03895 16.0853 6.28343 15.2933 10.0534 15.2933Z" fill="#A1DDF9"/>
                <path d="M10.0534 15.3161C13.8615 15.3161 17.0603 16.0778 18.4312 17.2126C18.9002 16.4299 19.1501 15.5355 19.1547 14.6231C19.1547 10.9445 15.0725 7.54004 10.0154 7.54004C4.95823 7.54004 0.875977 10.9445 0.875977 14.6231C0.881452 15.5378 1.13123 16.4344 1.5995 17.2202C3.05418 16.1006 6.29105 15.3161 10.0534 15.3161Z" fill="#A7DFF9"/>
                <path d="M10.0534 15.339C13.8615 15.339 17.0526 16.1006 18.4312 17.2278C18.9127 16.4541 19.1758 15.5646 19.1928 14.6535C19.1928 10.9978 15.1181 7.61621 10.0534 7.61621C4.98866 7.61621 0.959717 10.9978 0.959717 14.6535C0.975901 15.5648 1.23913 16.4545 1.72133 17.2278C3.06177 16.1234 6.29102 15.3466 10.0534 15.339Z" fill="#ADE1FA"/>
                <path d="M10.0534 15.3692C13.8158 15.3692 17.0451 16.1308 18.4312 17.2351C18.8999 16.4663 19.1501 15.5841 19.1548 14.6837C19.1548 11.0508 15.0877 7.69971 10.0687 7.69971C5.04963 7.69971 0.990234 11.0584 0.990234 14.6761C0.991201 15.5784 1.23876 16.4633 1.70615 17.2351C3.06944 16.1384 6.29869 15.3692 10.0534 15.3692Z" fill="#B3E3FA"/>
                <path d="M10.0534 15.3925C13.8081 15.3925 17.0374 16.1541 18.4311 17.2432C18.8971 16.482 19.1448 15.6072 19.147 14.7147C19.147 11.1122 15.0876 7.77637 10.0762 7.77637C5.06478 7.77637 1.00537 11.1122 1.00537 14.707C1.01025 15.6051 1.26045 16.4847 1.72891 17.2508C3.07697 16.1617 6.30621 15.3925 10.0534 15.3925Z" fill="#B8E5FA"/>
                <path d="M10.0534 15.4152C13.8082 15.4152 17.0222 16.1768 18.4312 17.2583C18.8996 16.5005 19.1499 15.6282 19.1547 14.7373C19.1547 11.1654 15.0953 7.88281 10.0915 7.88281C5.08769 7.88281 1.03589 11.1958 1.03589 14.7373C1.04185 15.627 1.28929 16.4983 1.75181 17.2583C3.13033 16.1768 6.30626 15.4152 10.0534 15.4152Z" fill="#BEE7FB"/>
                <path d="M10.0533 15.4378C13.8005 15.4378 17.0145 16.1995 18.3854 17.2657C18.8478 16.5141 19.0954 15.6501 19.1013 14.7676C19.1013 11.2185 15.0495 7.91309 10.0533 7.91309C5.05711 7.91309 1.01294 11.2109 1.01294 14.7676C1.01526 15.6506 1.26314 16.5155 1.72886 17.2657C3.13023 16.1995 6.31378 15.4378 10.0533 15.4378Z" fill="#C4E9FB"/>
                <path d="M10.0535 15.4606C13.793 15.4606 17.007 16.2222 18.3703 17.2809C18.8352 16.5359 19.0831 15.6761 19.0863 14.798C19.0863 11.2793 15.0421 8.00439 10.0535 8.00439C5.06492 8.00439 1.02075 11.2793 1.02075 14.798C1.02785 15.6755 1.27547 16.5343 1.73667 17.2809C3.13043 16.2146 6.32158 15.4682 10.0535 15.4606Z" fill="#CAEBFC"/>
                <path d="M10.0534 15.4911C13.7929 15.4911 16.9993 16.2527 18.3626 17.2885C18.8238 16.5503 19.0716 15.6988 19.0785 14.8285C19.0785 11.3327 15.0344 8.08057 10.0534 8.08057C5.07244 8.08057 1.03589 11.3327 1.03589 14.8285C1.04286 15.6988 1.29065 16.5503 1.75181 17.2885C3.13033 16.2375 6.32149 15.4911 10.0534 15.4911Z" fill="#CFEDFC"/>
                <path d="M10.0533 15.5141C13.7852 15.5141 16.984 16.2758 18.3473 17.2963C18.8081 16.5664 19.056 15.7223 19.0632 14.8592C19.0632 11.3862 15.0267 8.16455 10.0533 8.16455C5.07997 8.16455 1.05103 11.3938 1.05103 14.8592C1.05654 15.7239 1.30174 16.5702 1.75934 17.3039C3.13025 16.2529 6.32902 15.5141 10.0533 15.5141Z" fill="#D5EFFC"/>
                <path d="M10.0533 15.537C13.7776 15.537 16.9763 16.2986 18.3396 17.3116C18.7984 16.5867 19.0438 15.7474 19.0479 14.8896C19.0479 11.4471 15.019 8.24072 10.0533 8.24072C5.08754 8.24072 1.05859 11.4471 1.05859 14.8896C1.06498 15.7482 1.31309 16.5875 1.77451 17.3116C3.13019 16.2681 6.33658 15.537 10.0533 15.537Z" fill="#DAF1FD"/>
                <path d="M10.0532 15.5599C13.7775 15.5599 16.9687 16.3215 18.3243 17.3192C18.7847 16.6031 19.0329 15.7713 19.0402 14.9201C19.0402 11.5004 15.0113 8.31689 10.0532 8.31689C5.09506 8.31689 1.07373 11.5004 1.07373 14.9125C1.07739 15.7656 1.32302 16.6001 1.78205 17.3192C3.13011 16.291 6.34411 15.5599 10.0532 15.5599Z" fill="#E0F3FD"/>
                <path d="M10.0533 15.5827C13.77 15.5827 16.9535 16.3062 18.3168 17.3344C18.7701 16.6184 19.0154 15.7903 19.0251 14.9429C19.0251 11.5614 15.0038 8.39307 10.0533 8.39307C5.10281 8.39307 1.08911 11.5614 1.08911 14.9429C1.09398 15.7911 1.33961 16.6204 1.79741 17.3344C3.13023 16.3062 6.34425 15.5903 10.0533 15.5827Z" fill="#E6F5FD"/>
                <path d="M10.0533 15.6127C13.7623 15.6127 16.9459 16.3286 18.3016 17.3416C18.7591 16.6359 19.0049 15.8139 19.0099 14.9729C19.0099 11.6142 14.9962 8.46875 10.0533 8.46875C5.1104 8.46875 1.09668 11.6142 1.09668 14.9729C1.10503 15.8134 1.35057 16.6345 1.805 17.3416C3.16829 16.3286 6.35183 15.6127 10.0533 15.6127Z" fill="#EBF7FE"/>
                <path d="M10.0534 15.6357C13.7625 15.6357 16.9079 16.344 18.2865 17.3494C18.746 16.6527 18.9946 15.8382 19.0024 15.0036C19.0024 11.6677 14.9887 8.55273 10.0534 8.55273C5.11815 8.55273 1.11206 11.6677 1.11206 15.0036C1.11783 15.8397 1.36368 16.6566 1.82036 17.357C3.17603 16.3441 6.35958 15.6357 10.0534 15.6357Z" fill="#F1FAFE"/>
                <path d="M10.0533 15.6586C13.7548 15.6586 16.9079 16.3669 18.2788 17.3646C18.7317 16.6709 18.9774 15.8625 18.9871 15.0341C18.9871 11.7287 14.981 8.62891 10.0533 8.62891C5.12568 8.62891 1.1272 11.7287 1.1272 15.0341C1.13421 15.8618 1.3773 16.6703 1.82789 17.3646C3.18357 16.3669 6.35949 15.6586 10.0533 15.6586Z" fill="#F7FCFE"/>
                <path d="M10.0533 15.6816C13.7471 15.6816 16.9078 16.3822 18.2635 17.3723C18.715 16.695 18.961 15.9015 18.9718 15.0875C18.9718 11.8049 14.9733 8.72803 10.0533 8.72803C5.13324 8.72803 1.13477 11.7745 1.13477 15.0875C1.14551 15.9015 1.39149 16.695 1.84306 17.3723C3.19112 16.3822 6.36705 15.6816 10.0533 15.6816Z" fill="white"/>
            </g>
            <path d="M9.98479 12.4068C7.01848 12.3804 4.07104 12.8807 1.27954 13.8843C2.02842 15.5677 3.24931 16.9978 4.79436 18.0015C6.33942 19.0052 8.14235 19.5394 9.98479 19.5394C11.8272 19.5394 13.6302 19.0052 15.1752 18.0015C16.7203 16.9978 17.9412 15.5677 18.69 13.8843C15.8985 12.8807 12.9511 12.3804 9.98479 12.4068Z" fill="#0083CA"/>
        </g>
        <defs>
            <clipPath id="clip0_1344_2839__woori">
                <rect width="20" height="20" fill="white"/>
            </clipPath>
        </defs>
    </symbol>
</svg>