<svg width="20" height="20" viewBox="0 0 20 20" fill="none" xmlns="http://www.w3.org/2000/svg">
<g clip-path="url(#clip0_1344_2917)">
<path fill-rule="evenodd" clip-rule="evenodd" d="M17.5797 7.13876C16.9335 6.16929 16.075 5.37792 15.0768 4.83158C14.0786 4.28523 12.9701 4 11.8451 4C10.7201 4 9.61157 4.28523 8.6134 4.83158C7.61522 5.37792 6.75673 6.16929 6.11055 7.13876L6.04346 7.24037H7.70326L7.72209 7.2193C8.25123 6.62656 8.89009 6.15418 9.59929 5.83128C10.3085 5.50837 11.073 5.34178 11.8457 5.34178C12.6184 5.34178 13.3829 5.50837 14.0921 5.83128C14.8013 6.15418 15.4402 6.62656 15.9693 7.2193L15.987 7.24037H17.6468L17.5797 7.13876Z" fill="#E60012"/>
<path d="M5.38441 13.6776L5.35381 13.7111C4.84292 14.2575 4.25316 14.5475 3.64574 14.5475C2.37676 14.5475 1.45504 13.545 1.45504 12.1634C1.45504 10.7817 2.37676 9.7755 3.64574 9.7755C4.25316 9.7755 4.84292 10.0655 5.35381 10.6132L5.38441 10.6466L6.20019 9.60821L6.179 9.57971C5.49978 8.73585 4.68518 8.32568 3.68459 8.32568C2.684 8.32568 1.76111 8.68132 1.09483 9.31701C0.375585 10.0122 -0.00463867 10.9924 -0.00463867 12.1547C-0.00463867 13.317 0.375585 14.2972 1.09483 14.9924C1.7564 15.6367 2.67458 15.9911 3.68459 15.9911C4.6946 15.9911 5.49978 15.5797 6.179 14.7358L6.20019 14.7086L5.38441 13.6776Z" fill="#004187"/>
<path d="M8.46624 8.44971H7.02539V15.8586H8.46624V8.44971Z" fill="#004187"/>
<path d="M14.1153 14.2461C13.801 14.4694 13.4347 14.5979 13.0559 14.6178C12.585 14.6178 12.379 14.3588 12.379 13.7826V9.85078H13.8481V8.45549H12.3743V6.14941L10.9617 6.94619V8.45549H9.74219V9.85078H10.9617V14.0329C10.9617 15.1717 11.6033 15.9511 12.5603 15.971C13.0094 15.9942 13.4549 15.876 13.8399 15.6314L13.854 15.6203L14.2013 14.1928L14.1153 14.2461Z" fill="#004187"/>
<path d="M16.7511 8.44971H15.3091V15.8586H16.7511V8.44971Z" fill="#004187"/>
<path d="M19.8763 7.52841C19.8763 7.66252 19.8385 7.79362 19.7677 7.90511C19.6969 8.0166 19.5962 8.10348 19.4785 8.15475C19.3608 8.20601 19.2312 8.21936 19.1063 8.19311C18.9814 8.16686 18.8666 8.10217 18.7766 8.00726C18.6866 7.91234 18.6254 7.79145 18.6007 7.65988C18.576 7.52832 18.5889 7.39199 18.6378 7.26816C18.6867 7.14432 18.7694 7.03855 18.8755 6.96422C18.9815 6.88989 19.1061 6.85034 19.2335 6.85059C19.3185 6.8489 19.4029 6.86529 19.4817 6.89877C19.5604 6.93225 19.632 6.98214 19.692 7.04543C19.752 7.10873 19.7993 7.18414 19.8309 7.26713C19.8626 7.35012 19.878 7.43899 19.8763 7.52841V7.52841ZM19.9999 7.52841C20.0001 7.36851 19.9553 7.21213 19.871 7.07908C19.7868 6.94603 19.6669 6.84228 19.5266 6.78097C19.3863 6.71967 19.2319 6.70357 19.0829 6.7347C18.9339 6.76584 18.7971 6.84281 18.6896 6.95587C18.5822 7.06894 18.5091 7.21301 18.4795 7.36985C18.45 7.52669 18.4653 7.68924 18.5235 7.83692C18.5817 7.9846 18.6803 8.11077 18.8067 8.19945C18.9331 8.28813 19.0816 8.33534 19.2335 8.3351C19.3347 8.33712 19.4352 8.31763 19.529 8.27781C19.6229 8.23798 19.7081 8.17863 19.7797 8.10332C19.8512 8.02801 19.9076 7.93827 19.9454 7.83949C19.9833 7.7407 20.0018 7.6349 19.9999 7.52841V7.52841ZM19.5831 7.33757C19.5844 7.30045 19.578 7.26349 19.5644 7.2292C19.5509 7.19492 19.5304 7.16413 19.5045 7.13895C19.4785 7.11376 19.4477 7.09477 19.4142 7.08329C19.3806 7.0718 19.3451 7.06809 19.31 7.0724H18.9428V7.9522H19.084V7.61267H19.2453L19.4089 7.9522H19.5773L19.4054 7.59656C19.4593 7.5824 19.5067 7.54864 19.5392 7.50125C19.5717 7.45385 19.5873 7.39588 19.5831 7.33757V7.33757ZM19.4395 7.33757C19.4395 7.42555 19.3819 7.46149 19.3053 7.46149H19.084V7.21366H19.3053C19.3221 7.21116 19.3392 7.21251 19.3555 7.21761C19.3717 7.2227 19.3867 7.23143 19.3995 7.2432C19.4122 7.25497 19.4224 7.26949 19.4293 7.28578C19.4362 7.30207 19.4397 7.31973 19.4395 7.33757Z" fill="#004187"/>
</g>
<defs>
<clipPath id="clip0_1344_2917">
<rect width="20" height="12" fill="white" transform="translate(0 4)"/>
</clipPath>
</defs>
</svg>
