<svg width="20" height="20" viewBox="0 0 20 20" fill="none" xmlns="http://www.w3.org/2000/svg">
<g clip-path="url(#clip0_1400_2653)">
<path d="M18.0583 8.19495H18.5306C18.5456 8.19495 18.5599 8.18902 18.5704 8.17847C18.581 8.16792 18.5869 8.15361 18.5869 8.13869V7.24808C18.5869 7.24074 18.5854 7.23347 18.5826 7.22671C18.5798 7.21994 18.5756 7.21381 18.5704 7.20867C18.5651 7.20353 18.5589 7.19949 18.5521 7.19678C18.5453 7.19406 18.538 7.19274 18.5306 7.19288H17.8672C17.0997 7.19288 16.6932 7.43809 16.4607 7.95929L15.0181 11.4931C14.9891 11.5904 14.9272 11.6748 14.843 11.7317C14.7588 11.7886 14.6575 11.8145 14.5564 11.8051V7.24808C14.5564 7.24074 14.5549 7.23347 14.5521 7.22671C14.5492 7.21994 14.5451 7.21381 14.5398 7.20867C14.5346 7.20353 14.5284 7.19949 14.5215 7.19678C14.5147 7.19406 14.5074 7.19274 14.5001 7.19288H13.4386C13.4312 7.19274 13.424 7.19406 13.4171 7.19678C13.4103 7.19949 13.4041 7.20353 13.3989 7.20867C13.3936 7.21381 13.3895 7.21994 13.3866 7.22671C13.3838 7.23347 13.3823 7.24074 13.3823 7.24808V12.7095C13.3826 12.7355 13.3931 12.7604 13.4116 12.7787C13.4301 12.797 13.455 12.8072 13.481 12.8072H14.671C15.4374 12.8072 15.7888 12.562 16.0202 12.0408L17.4447 8.55055C17.5594 8.30322 17.7239 8.19495 18.0583 8.19495Z" fill="#D71920"/>
<path d="M5.09947 10.0006C5.52407 9.82329 5.8765 9.42522 5.8765 8.76709C5.8765 7.78732 5.03578 7.19287 4.02204 7.19287H0.888461C0.873822 7.19287 0.859781 7.19869 0.84943 7.20904C0.839078 7.21939 0.833262 7.23343 0.833262 7.24807V8.13868C0.833121 8.14601 0.834444 8.15331 0.837155 8.16013C0.839866 8.16695 0.84391 8.17316 0.84905 8.1784C0.854189 8.18363 0.860322 8.18779 0.86709 8.19063C0.873857 8.19347 0.881122 8.19494 0.888461 8.19494H3.80549C4.27574 8.19494 4.59419 8.48261 4.59419 8.83184C4.59419 9.18108 4.27574 9.47405 3.80549 9.47405H2.07204V8.81486C2.07219 8.80743 2.07083 8.80005 2.06806 8.79316C2.06528 8.78627 2.06114 8.78001 2.05589 8.77475C2.05063 8.7695 2.04437 8.76536 2.03748 8.76259C2.03059 8.75981 2.02321 8.75845 2.01578 8.7586H0.888461C0.881122 8.7586 0.873857 8.76006 0.86709 8.7629C0.860322 8.76574 0.854189 8.7699 0.84905 8.77514C0.84391 8.78038 0.839866 8.78659 0.837155 8.79341C0.834444 8.80023 0.833121 8.80752 0.833262 8.81486V12.7499C0.833262 12.7645 0.839078 12.7786 0.84943 12.7889C0.859781 12.7993 0.873822 12.8051 0.888461 12.8051H3.97745C5.13238 12.8051 5.95929 12.2669 5.95929 11.1682C5.96166 10.9068 5.87911 10.6516 5.72407 10.441C5.56903 10.2305 5.34985 10.0759 5.09947 10.0006ZM3.866 11.8295H2.07204V10.5133H3.866C4.34792 10.5133 4.67487 10.8084 4.67487 11.1714C4.67487 11.5344 4.34792 11.8295 3.866 11.8295Z" fill="#D71920"/>
<path d="M19.156 12.7427L17.3376 10.418C17.3369 10.4166 17.3358 10.4155 17.3345 10.4148C17.3332 10.414 17.3317 10.4136 17.3302 10.4136C17.3287 10.4136 17.3272 10.414 17.3259 10.4148C17.3246 10.4155 17.3235 10.4166 17.3228 10.418L16.8334 11.6153C16.8315 11.6188 16.8306 11.6226 16.8306 11.6265C16.8306 11.6304 16.8315 11.6342 16.8334 11.6376L17.6285 12.6991C17.6515 12.7339 17.6832 12.762 17.7204 12.7806C17.7577 12.7992 17.7992 12.8077 17.8408 12.8053H19.121C19.1287 12.8065 19.1366 12.8054 19.1436 12.8019C19.1507 12.7985 19.1565 12.793 19.1603 12.7862C19.1642 12.7794 19.1658 12.7715 19.165 12.7638C19.1642 12.756 19.1611 12.7486 19.156 12.7427Z" fill="#D71920"/>
<path d="M7.94956 8.76074H6.88805C6.87313 8.76074 6.85882 8.76667 6.84826 8.77722C6.83771 8.78777 6.83179 8.80208 6.83179 8.817V12.752C6.83179 12.7594 6.83325 12.7666 6.83609 12.7734C6.83893 12.7802 6.84309 12.7863 6.84833 12.7914C6.85357 12.7966 6.85978 12.8006 6.8666 12.8033C6.87342 12.806 6.88071 12.8074 6.88805 12.8072H7.94956C7.9643 12.8072 7.97845 12.8014 7.98897 12.7911C7.99949 12.7808 8.00554 12.7668 8.00582 12.752V8.81488C8.00527 8.80033 7.9991 8.78656 7.98861 8.77646C7.97811 8.76637 7.96412 8.76073 7.94956 8.76074Z" fill="#D71920"/>
<path d="M12.3178 7.19288H11.2563C11.2491 7.19288 11.2419 7.19431 11.2352 7.19708C11.2285 7.19986 11.2224 7.20392 11.2173 7.20905C11.2122 7.21418 11.2081 7.22026 11.2053 7.22696C11.2025 7.23365 11.2011 7.24083 11.2011 7.24808V11.8051C11.0999 11.8145 10.9986 11.7886 10.9144 11.7317C10.8303 11.6748 10.7684 11.5904 10.7394 11.4931L9.29465 7.95929C9.06324 7.43809 8.65774 7.19288 7.88921 7.19288H6.88927C6.88193 7.19274 6.87464 7.19406 6.86782 7.19678C6.861 7.19949 6.85479 7.20353 6.84955 7.20867C6.84431 7.21381 6.84015 7.21994 6.83731 7.22671C6.83447 7.23347 6.83301 7.24074 6.83301 7.24808V8.13869C6.83301 8.15361 6.83893 8.16792 6.84949 8.17847C6.86004 8.18902 6.87435 8.19495 6.88927 8.19495H7.69708C8.03251 8.19495 8.19599 8.3011 8.31063 8.55055L9.73517 12.0408C9.96765 12.562 10.3179 12.8072 11.0854 12.8072H12.2743C12.3003 12.8072 12.3253 12.797 12.3437 12.7787C12.3622 12.7604 12.3727 12.7355 12.373 12.7095V7.24808C12.373 7.23344 12.3672 7.2194 12.3569 7.20905C12.3465 7.1987 12.3325 7.19288 12.3178 7.19288Z" fill="#D71920"/>
</g>
<defs>
<clipPath id="clip0_1400_2653">
<rect width="18.3333" height="5.61432" fill="white" transform="translate(0.833252 7.19287)"/>
</clipPath>
</defs>
</svg>
