<svg width="20" height="20" viewBox="0 0 20 20" fill="none" xmlns="http://www.w3.org/2000/svg">
<g clip-path="url(#clip0_1400_2654)">
<path d="M13.0937 11.8553C13.0471 11.5542 12.9678 11.2602 12.8575 10.9799C12.5371 10.1473 11.9876 9.44615 11.2863 8.97478C10.7323 8.61573 10.1002 8.42872 9.45729 8.43369C8.81436 8.43866 8.1847 8.63543 7.63543 9.00302C7.12371 9.3404 6.709 9.82985 6.43902 10.415C6.34712 10.6151 6.26985 10.8228 6.20796 11.0363C6.04083 11.5908 5.97697 12.1767 6.0202 12.7589C6.06343 13.3412 6.21285 13.9079 6.45956 14.4252C6.62834 14.7418 6.88602 14.9896 7.19383 15.1312C7.34746 15.2016 7.51402 15.2312 7.67997 15.2174C7.84592 15.2037 8.00659 15.1471 8.1489 15.0522C8.30549 14.9155 8.42242 14.7316 8.48536 14.5229C8.54829 14.3142 8.5545 14.0899 8.50321 13.8773C8.38394 13.3374 8.39634 12.7724 8.53915 12.2394C8.59584 12.0652 8.68704 11.9069 8.80616 11.7762C8.88015 11.6978 8.96509 11.633 9.05776 11.5842C9.25124 11.4772 9.4698 11.4378 9.68421 11.4712C9.87023 11.5154 10.0441 11.6076 10.1914 11.7402C10.3387 11.8728 10.4552 12.0419 10.5314 12.2337C10.674 12.6097 10.749 13.0125 10.7522 13.4199C10.7549 15.2593 10.5074 17.0888 10.018 18.8477C9.97175 19.0284 9.92554 19.2035 9.88446 19.3843C9.84338 19.565 9.78177 19.6949 9.88446 19.8305C9.92031 19.8865 9.9703 19.9297 10.0282 19.9547C10.2747 20.062 10.4698 19.8982 10.6341 19.7175C11.5669 18.6186 12.2542 17.2959 12.6418 15.8542C12.8032 15.3259 12.9318 14.7862 13.027 14.2388C13.1737 13.4489 13.1997 12.6377 13.104 11.8384" fill="#008375"/>
<path d="M19.995 3.48477C19.9931 3.42265 19.9797 3.3616 19.9557 3.30535C19.9317 3.2491 19.8975 3.19884 19.8552 3.15761C19.8129 3.11639 19.7634 3.08507 19.7098 3.06557C19.6561 3.04607 19.5994 3.03881 19.5431 3.04421C19.3065 3.08021 19.0773 3.16043 18.8653 3.28143C14.5396 4.98433 9.89452 5.46596 5.3557 4.68217C4.59062 4.55791 3.81526 4.39411 3.04505 4.25856C2.56238 4.17384 2.08484 4.05523 1.60217 4.01569C1.16575 3.92358 0.713825 4.01856 0.339014 4.28115C0.146475 4.51406 0.0270716 4.80885 -0.00158815 5.12206C-0.0302479 5.43528 0.033354 5.75033 0.179837 6.02077C0.506886 6.63689 0.981013 7.14279 1.55082 7.48363C2.07967 7.89587 2.70554 8.13124 3.35313 8.16141C5.06473 8.03715 6.77632 7.84888 8.48792 7.5966C11.3891 7.18429 14.4237 6.79456 17.1503 5.55762C18.0524 5.16302 18.9021 4.6368 19.6766 3.99309C19.8153 3.88013 20.0155 3.6881 20.0155 3.46782" fill="#008375"/>
<path d="M7.82544 1.88628C7.82544 2.37312 8.00126 2.84002 8.31422 3.18427C8.62718 3.52852 9.05165 3.72192 9.49425 3.72192C9.93684 3.72192 10.3613 3.52852 10.6743 3.18427C10.9872 2.84002 11.1631 2.37312 11.1631 1.88628C11.1628 1.73426 11.133 1.58406 11.0758 1.44572C10.932 1.11248 10.7677 0.948691 10.7882 0.547674C10.7882 0.0111028 10.1772 -0.0171379 9.83828 -0.0171379C9.46151 -0.0306405 9.08706 0.052523 8.74456 0.225745C8.47857 0.374656 8.25347 0.59886 8.09245 0.875275C7.92361 1.15741 7.83102 1.48644 7.82544 1.82416V1.86933" fill="#D50037"/>
</g>
<defs>
<clipPath id="clip0_1400_2654">
<rect width="20" height="20" fill="white"/>
</clipPath>
</defs>
</svg>
