<svg width="20" height="20" viewBox="0 0 20 20" fill="none" xmlns="http://www.w3.org/2000/svg">
<g clip-path="url(#clip0_1344_2975)">
<path d="M4.86663 0.552552C4.60048 0.684676 4.36329 0.868456 4.16888 1.09318C3.97448 1.3179 3.82674 1.57907 3.7343 1.86147L0.115634 12.7304C-0.0737189 13.2997 -0.0291889 13.921 0.23943 14.4574C0.508049 14.9939 0.978759 15.4017 1.54803 15.5912L13.4092 19.5735C13.9782 19.7609 14.5984 19.7155 15.134 19.4471C15.6696 19.1787 16.0773 18.7092 16.2678 18.1411L19.8849 7.27218C20.0736 6.70296 20.029 6.08219 19.7609 5.54578C19.4928 5.00936 19.0232 4.60102 18.4547 4.41016L6.59354 0.43123C6.31202 0.335992 6.01437 0.297673 5.71791 0.318501C5.42144 0.339329 5.13208 0.418888 4.86663 0.552552V0.552552Z" fill="white"/>
<path d="M8.0256 1.74143C10.1007 2.51073 11.6156 4.72725 11.4683 7.1438C11.4162 8.04456 11.1393 8.91791 10.6629 9.68415C10.0096 8.95256 9.19223 8.38616 8.27782 8.03134L7.74777 7.82327V12.8645L8.28554 12.6558C9.19826 12.2975 10.0129 11.7278 10.6626 10.9934C11.2985 12.0127 11.5797 13.2136 11.4624 14.4092C11.3452 15.6049 10.8361 16.7283 10.0143 17.6047L10.0195 17.6006L10.0143 17.6068L1.78447 14.8547C1.41165 14.732 1.10252 14.4668 0.924598 14.117C0.746676 13.7672 0.714426 13.3612 0.834891 12.9876L4.46282 2.11126C4.58145 1.74223 4.84178 1.43541 5.18657 1.25827C5.53136 1.08113 5.93238 1.04816 6.30147 1.16662L6.31321 1.17063L8.0256 1.74143Z" fill="#0092D8"/>
<path d="M5.9025 13.1692H5.08813V7.52197H5.9025V13.1692Z" fill="white"/>
<path d="M10.1879 10.3385C9.72953 9.79191 9.16748 9.34149 8.53418 9.01318V11.6681C9.16706 11.3373 9.72892 10.8855 10.1879 10.3385V10.3385Z" fill="#E43D30"/>
<path d="M18.1931 5.13316L10.636 2.61133C11.5862 3.64757 12.1575 4.975 12.257 6.37742C12.3564 7.77983 11.9781 9.1746 11.1836 10.3346C11.9587 11.4566 12.3434 12.8022 12.2786 14.1644C12.2138 15.5265 11.703 16.8295 10.8249 17.8729L13.6619 18.8203C13.8451 18.8805 14.0383 18.904 14.2305 18.8894C14.4227 18.8749 14.6102 18.8226 14.7822 18.7356C14.9542 18.6486 15.1074 18.5286 15.233 18.3823C15.3586 18.2361 15.4541 18.0666 15.5142 17.8834V17.8794L19.1421 7.00361C19.2626 6.6297 19.2305 6.22332 19.0528 5.87298C18.875 5.52264 18.566 5.25673 18.1931 5.13316V5.13316ZM16.1865 13.1524H15.1678L13.0686 10.3346L15.2024 7.50989H16.2365L14.0954 10.3346L16.1865 13.1524Z" fill="#004B9D"/>
</g>
<defs>
<clipPath id="clip0_1344_2975">
<rect width="20" height="20" fill="white"/>
</clipPath>
</defs>
</svg>
