<svg width="20" height="20" viewBox="0 0 20 20" fill="none" xmlns="http://www.w3.org/2000/svg">
<g clip-path="url(#clip0_1400_2648)">
<path d="M18.3334 15.9437C18.3333 16.2561 18.2716 16.5655 18.1519 16.8541C18.0322 17.1427 17.8568 17.4049 17.6358 17.6257C17.4148 17.8465 17.1524 18.0217 16.8637 18.1411C16.5749 18.2605 16.2655 18.3219 15.9531 18.3217H4.04742C3.4164 18.322 2.81112 18.0716 2.36468 17.6256C1.91823 17.1797 1.66719 16.5747 1.66675 15.9437V4.05558C1.66728 3.42465 1.91837 2.81977 2.36481 2.37395C2.81126 1.92812 3.41649 1.67787 4.04742 1.67822H15.9531C16.2655 1.67801 16.5749 1.73933 16.8636 1.85869C17.1523 1.97805 17.4146 2.15311 17.6357 2.37387C17.8567 2.59463 18.0321 2.85677 18.1518 3.14532C18.2715 3.43387 18.3332 3.74318 18.3334 4.05558V15.9437Z" fill="#FFE400"/>
<path d="M13.5749 11.6647C13.5001 11.0846 13.2101 10.5537 12.7623 10.1774C12.696 10.1191 12.6241 10.0648 12.5446 10.0002C12.6109 9.95044 12.6659 9.91233 12.7172 9.86959C13.0395 9.6028 13.2885 9.25824 13.4406 8.86847C13.5847 8.49991 13.6304 8.10019 13.5732 7.70863C13.5098 7.23232 13.2993 6.78769 12.9711 6.43677C12.7371 6.17628 12.4481 5.97115 12.125 5.8363C11.8112 5.70925 11.4754 5.64562 11.1369 5.64907H7.34316C7.317 5.64758 7.29078 5.64758 7.26462 5.64907C7.22301 5.65096 7.18381 5.6691 7.15543 5.69959C7.12705 5.73008 7.11176 5.77048 7.11285 5.81211C7.11285 5.83862 7.11285 5.8648 7.11285 5.89098V14.0878C7.11285 14.1289 7.11053 14.1703 7.11285 14.2114C7.11454 14.2454 7.12806 14.2777 7.15105 14.3027C7.17405 14.3278 7.20508 14.344 7.23877 14.3486C7.26483 14.3517 7.29109 14.3527 7.31731 14.3516H11.2462C11.6419 14.3531 12.0308 14.2491 12.3729 14.0503C12.8617 13.7757 13.239 13.3386 13.4393 12.8149C13.5839 12.4499 13.6307 12.0534 13.5749 11.6647ZM10.5556 11.9596H9.84677V8.04929H10.5477C10.5477 8.04929 10.545 8.0473 10.5477 8.0473V8.04929H10.5556V11.9596Z" fill="#1E1719"/>
</g>
<defs>
<clipPath id="clip0_1400_2648">
<rect width="16.6667" height="16.6438" fill="white" transform="translate(1.66675 1.67822)"/>
</clipPath>
</defs>
</svg>
