<svg width="20" height="20" viewBox="0 0 20 20" fill="none" xmlns="http://www.w3.org/2000/svg">
<g clip-path="url(#clip0_1344_2972)">
<path d="M19.6781 10.1837L19.5041 10.0769C18.9136 9.49879 18.0904 9.24769 16.9943 9.30966C16.0808 9.36523 15.3555 9.72105 14.802 10.0576C14.802 10.0491 14.802 10.0405 14.802 10.032C14.8083 9.73692 14.8297 9.44234 14.8662 9.14938C14.9038 8.85151 14.9256 8.55191 14.9314 8.25181C14.9414 7.9737 14.8944 7.69646 14.7933 7.43651C14.7809 7.40603 14.7592 7.38009 14.7312 7.36228C14.7031 7.34448 14.6701 7.33569 14.6367 7.33714C14.341 7.34355 13.7668 7.5423 13.6243 7.66304L13.5482 7.82653C13.5482 8.14709 13.4721 9.04574 13.3992 9.15473L13.3601 9.26158C13.2365 10.3836 13.2325 11.5153 13.3481 12.6382C13.3612 12.7343 13.5504 12.8807 13.6972 12.9331C13.844 12.9854 14.3594 12.8594 14.6487 12.7514L14.7574 12.7354C14.7794 12.7324 14.8005 12.7251 14.8196 12.714C14.8386 12.7029 14.8552 12.6881 14.8684 12.6706C14.8816 12.6531 14.891 12.6332 14.8963 12.612C14.9015 12.5908 14.9023 12.5688 14.8988 12.5473C14.8988 12.5473 14.9042 12.2684 14.9042 12.2684C15.1141 11.4329 15.9612 10.438 16.9617 10.2874C17.5282 10.1998 17.9751 10.3408 18.3275 10.7148C18.3753 10.7821 18.4786 11.3826 18.11 12.074C17.8316 12.5858 17.277 13.0154 16.5463 13.2857C15.8547 13.5432 15.0935 13.6479 14.1539 13.6148L13.2698 13.0303C12.526 12.5163 11.6006 11.8763 10.76 11.5632C10.6132 11.5087 10.3479 11.2929 10.1902 11.1636L10.1032 11.0941C9.61933 10.7116 8.69828 10.1089 7.95774 9.62488L7.55865 9.36202V9.27974C7.57932 9.25731 8.04365 8.98376 8.04365 8.98376C8.69611 8.60977 8.99515 8.42598 9.05931 8.33088C9.04626 8.34584 9.1463 8.28066 9.1463 8.28066L10.759 7.38416C12.3064 6.54749 14.0615 5.59863 14.9836 4.66152L15.0282 4.51833L15.0478 4.39118C15.1084 4.21877 15.1133 4.03218 15.0619 3.85691C15.0538 3.82771 15.038 3.80114 15.016 3.77993C14.994 3.75871 14.9667 3.74361 14.9369 3.73616C14.2181 3.66671 13.2894 4.08985 12.4445 4.86775C12.2892 5.00904 12.1142 5.12778 11.9247 5.22036L11.7953 5.29089C10.8644 5.81127 8.7657 7.09031 7.66305 7.78165C7.76733 6.37634 7.95432 4.97813 8.22307 3.59405L8.19263 3.42949L8.08388 3.21578L7.99798 3.06726L7.97297 3.06085C7.89134 3.021 7.80237 2.99771 7.71139 2.99239C7.6204 2.98707 7.52925 2.99981 7.44339 3.02986L7.2259 3.10786L6.93447 3.21472C6.90627 3.22013 6.88008 3.23291 6.85864 3.25171C6.83721 3.27052 6.82133 3.29465 6.81268 3.32157C6.28854 4.56749 5.85139 6.61908 5.75352 8.25609C4.9466 7.75862 4.11155 7.30661 3.25244 6.90224L3.2383 6.89476L3.18066 6.88301C3.01103 6.86057 2.80224 6.73769 2.60106 6.61801L2.20307 6.36477L1.59737 5.97796C1.60389 5.97796 1.43752 5.9427 1.43752 5.9427C1.17545 5.98651 0.676315 6.31882 0.525162 6.54322C0.506295 6.57218 0.496815 6.60609 0.497977 6.64045C0.50054 6.68846 0.509684 6.7359 0.525162 6.7815L0.552348 6.90331L0.580621 6.97704C0.872052 7.27089 1.60824 7.76135 2.33138 8.14389L3.1687 8.57985L4.44861 9.2712C4.44861 9.27654 4.66609 9.44109 4.66609 9.44109L4.81725 9.52658L4.84334 9.5426L2.51625 11.0728L1.29506 11.871C1.0663 11.9949 0.830688 12.1062 0.589321 12.2043C0.356308 12.2822 0.16026 12.4411 0.0379941 12.651L0.00537109 12.7204L0.0390816 12.7664L0.131513 12.8358L0.258742 12.9171L0.392496 13.0079L0.520813 13.0271C0.738298 13.0357 1.05583 12.9149 1.65283 12.6585C2.19654 12.4191 3.68958 11.5376 4.32573 11.1625L4.59759 11.0022C4.70633 11.0108 4.83356 10.9178 4.94339 10.8355C5.12316 10.7037 5.31586 10.5899 5.51864 10.4957C5.51864 10.4957 5.62086 10.4412 5.71003 10.3889C5.71003 10.4177 5.71003 10.4615 5.71003 10.4615C5.7383 12.3742 5.85139 13.7644 6.06344 14.8361V14.8565L6.0841 14.8992C6.19284 15.0509 6.30811 15.504 6.41033 15.9036L6.65283 16.7018C6.65283 16.7114 6.72242 16.7777 6.72242 16.7777C6.86053 16.8685 7.28136 17.0277 7.56409 16.9914L7.63369 16.9828L7.67827 16.8856C7.70142 16.7652 7.71235 16.6427 7.7109 16.5202C7.7109 16.3738 7.70002 16.2124 7.68588 16.0158L7.6674 15.7273C7.57823 14.397 7.49341 12.4672 7.49341 11.185C7.49341 11.1497 7.49341 11.1176 7.49341 11.0781C7.72286 11.2213 8.73417 11.8464 8.73417 11.8464C10.4534 12.9416 13.0502 14.5979 14.6193 15.036C14.6584 15.048 14.7001 15.0497 14.7401 15.0406C14.78 15.0316 14.8168 15.0123 14.8466 14.9847C14.8466 14.9847 15.0891 14.8319 15.0891 14.8319L15.1326 14.8137C15.2239 14.772 15.2848 14.6224 15.2946 14.46C16.618 14.3959 18.4634 13.8948 19.4497 12.6756C19.8039 12.234 19.9989 11.6894 20.0043 11.1272C20.0043 10.7223 19.889 10.3707 19.6781 10.1784" fill="#F8B500"/>
</g>
<defs>
<clipPath id="clip0_1344_2972">
<rect width="20" height="14" fill="white" transform="translate(0 3)"/>
</clipPath>
</defs>
</svg>
