<svg width="20" height="20" viewBox="0 0 20 20" fill="none" xmlns="http://www.w3.org/2000/svg">
<g clip-path="url(#clip0_1344_2835)">
<path d="M13.8994 0L9.99993 1.98133L6.10596 0L9.99993 7.49895L13.8994 0Z" fill="#FDB913"/>
<path d="M15.2626 5.79352L15.202 5.74336L17.9834 4.5618V0.618652L13.1669 2.68915C13.1669 2.68915 10.548 7.70518 10.4901 7.81943C11.5197 7.94239 12.4639 8.4588 13.1297 9.26301C13.7954 10.0672 14.1323 11.0984 14.0714 12.1457C14.0105 13.1929 13.5565 14.1771 12.8022 14.8968C12.048 15.6165 11.0504 16.0174 10.0137 16.0174C8.97698 16.0174 7.97944 15.6165 7.22515 14.8968C6.47087 14.1771 6.01686 13.1929 5.956 12.1457C5.89514 11.0984 6.23203 10.0672 6.89775 9.26301C7.56347 8.4588 8.50771 7.94239 9.53728 7.81943L6.86602 2.68915L2.02472 0.618652V4.57574L4.80338 5.75729L4.74279 5.80745C3.51573 6.89096 2.64468 8.32762 2.24605 9.92545C1.84742 11.5233 1.94019 13.2061 2.51196 14.7492C3.08374 16.2922 4.10729 17.622 5.44582 18.5607C6.78436 19.4993 8.37413 20.0023 10.0027 20.0023C11.6312 20.0023 13.221 19.4993 14.5595 18.5607C15.8981 17.622 16.9216 16.2922 17.4934 14.7492C18.0652 13.2061 18.158 11.5233 17.7593 9.92545C17.3607 8.32762 16.4896 6.89096 15.2626 5.80745V5.79352Z" fill="#FDB913"/>
</g>
<defs>
<clipPath id="clip0_1344_2835">
<rect width="16" height="20" fill="white" transform="translate(2)"/>
</clipPath>
</defs>
</svg>
