<svg width="20" height="20" viewBox="0 0 20 20" fill="none" xmlns="http://www.w3.org/2000/svg">
<g clip-path="url(#clip0_1344_2911)">
<path d="M13.9128 4.13477C13.1863 4.13477 10.7625 5.91609 10.7625 5.91609C10.7625 5.91609 13.1863 7.69803 13.9128 7.69803C14.9254 7.69803 15.7694 7.01322 15.7694 5.91609C15.7694 4.81897 14.9254 4.13477 13.9128 4.13477Z" fill="#38D200"/>
<path d="M5.67151 20.0003C6.39799 20.0003 8.82185 18.219 8.82185 18.219C8.82185 18.219 6.40015 16.437 5.67151 16.437C4.65894 16.437 3.81519 17.1218 3.81519 18.219C3.81519 19.3161 4.66048 20.0003 5.67151 20.0003Z" fill="#0473EA"/>
<path d="M14.5459 10.1242L8.27171 5.95328L11.8973 3.4143C12.7346 2.82793 12.9948 1.67032 12.422 0.821933C12.1476 0.413128 11.722 0.130051 11.239 0.0349625C10.7559 -0.0601261 10.2548 0.0405606 9.84596 0.314878L9.81695 0.334629L5.48523 3.3964C5.07635 3.68525 4.74404 4.06942 4.51708 4.51563C4.29012 4.96185 4.17535 5.45666 4.18271 5.95722C4.19006 6.45779 4.31932 6.94902 4.5593 7.38837C4.79927 7.82772 5.14272 8.20196 5.55991 8.47867L15.3658 14.9778C16.4809 13.2607 16.2648 11.2395 14.5459 10.1242Z" fill="#0473EA"/>
<path d="M4.52128 9.56055L15.3348 16.5127C15.748 16.7789 16.0386 17.1982 16.1428 17.6785C16.2469 18.1588 16.1561 18.6608 15.8903 19.0742V19.0742C15.6242 19.4874 15.2049 19.778 14.7246 19.8822C14.2443 19.9863 13.7422 19.8955 13.3288 19.6297L5.63507 14.6845C4.80821 14.1527 4.22638 13.3143 4.01752 12.3536C3.80866 11.3929 3.98986 10.3886 4.52128 9.56147V9.56055Z" fill="#38D200"/>
</g>
<defs>
<clipPath id="clip0_1344_2911">
<rect width="20" height="20" fill="white"/>
</clipPath>
</defs>
</svg>
