<svg width="20" height="20" viewBox="0 0 20 20" fill="none" xmlns="http://www.w3.org/2000/svg">
<g clip-path="url(#clip0_1344_2839)">
<path d="M20 10C20 11.9772 19.4139 13.91 18.3157 15.5542C17.2176 17.1983 15.6567 18.48 13.8304 19.2374C12.004 19.9947 9.99409 20.1936 8.0547 19.809C6.11531 19.4244 4.33345 18.4735 2.93432 17.0765C1.53519 15.6794 0.581586 13.8991 0.194016 11.9603C-0.193555 10.0215 0.00229476 8.01127 0.756836 6.18374C1.51138 4.35621 2.79073 2.79337 4.43322 1.69273C6.0757 0.592083 8.00761 0.00302328 9.98477 1.16023e-05C11.2993 -0.00199069 12.6013 0.255188 13.8163 0.756839C15.0313 1.25849 16.1355 1.99478 17.0657 2.92356C17.9959 3.85235 18.7338 4.9554 19.2373 6.16965C19.7408 7.38391 20 8.68552 20 10Z" fill="white"/>
<path d="M9.98484 19.5357C11.8711 19.5372 13.7154 18.9792 15.2845 17.9324C16.8536 16.8855 18.077 15.3968 18.7998 13.6546C19.5227 11.9123 19.7127 9.99485 19.3456 8.14466C18.9785 6.29447 18.071 4.59472 16.7377 3.26041C15.4045 1.92609 13.7054 1.01717 11.8555 0.648629C10.0056 0.280085 8.088 0.468462 6.34519 1.18995C4.60237 1.91144 3.11269 3.13361 2.06459 4.70187C1.01649 6.27012 0.457035 8.11401 0.457034 10.0003C0.456034 11.2521 0.701744 12.4919 1.18011 13.6487C1.65848 14.8056 2.36013 15.8568 3.24497 16.7424C4.1298 17.6279 5.18049 18.3304 6.33696 18.8097C7.49342 19.289 8.73299 19.5357 9.98484 19.5357Z" fill="#0083CA"/>
<mask id="mask0_1344_2839" style="mask-type:luminance" maskUnits="userSpaceOnUse" x="0" y="0" width="20" height="20">
<path d="M9.98484 19.5356C11.8693 19.5356 13.7114 18.9768 15.2782 17.9299C16.8451 16.8829 18.0663 15.3949 18.7874 13.6539C19.5085 11.9129 19.6972 9.99722 19.3296 8.14901C18.9619 6.30079 18.0545 4.60309 16.722 3.27061C15.3895 1.93812 13.6918 1.03069 11.8436 0.66306C9.99541 0.295428 8.07968 0.484105 6.3387 1.20524C4.59772 1.92638 3.1097 3.14758 2.06277 4.71442C1.01584 6.28126 0.457031 8.12337 0.457031 10.0078C0.459048 12.5341 1.46352 14.9564 3.24989 16.7427C5.03626 18.5291 7.45853 19.5336 9.98484 19.5356Z" fill="white"/>
</mask>
<g mask="url(#mask0_1344_2839)">
<path d="M10.0915 14.5998C14.288 14.5998 17.8675 15.7727 19.4136 17.4254C19.9274 16.2061 20.1866 14.8947 20.1752 13.5716C20.103 10.9382 19.006 8.43687 17.1179 6.5998C15.2297 4.76272 12.6992 3.73486 10.0648 3.73486C7.43039 3.73486 4.89994 4.76272 3.01175 6.5998C1.12356 8.43687 0.0266299 10.9382 -0.0456543 13.5716C-0.0395897 14.882 0.232485 16.1775 0.754055 17.3797C2.32298 15.7727 5.9102 14.5998 10.0915 14.5998Z" fill="#0083CA"/>
<path d="M10.0915 14.6077C14.2728 14.6077 17.8447 15.773 19.3908 17.4104C19.8999 16.2057 20.159 14.9102 20.1524 13.6024C20.1524 10.928 19.09 8.36312 17.199 6.47204C15.3079 4.58097 12.743 3.51855 10.0686 3.51855C7.39425 3.51855 4.8294 4.58097 2.93833 6.47204C1.04725 8.36312 -0.0151367 10.928 -0.0151367 13.6024C-0.0140286 14.9133 0.258255 16.2098 0.784573 17.4104C2.36873 15.773 5.91786 14.6077 10.0915 14.6077Z" fill="#0085CB"/>
<path d="M10.0914 14.6229C14.2574 14.6229 17.8294 15.7729 19.3602 17.4028C19.8758 16.2001 20.1352 14.9032 20.1218 13.5947C20.0497 10.9753 18.9585 8.48738 17.0803 6.66014C15.2021 4.83291 12.6851 3.81055 10.0647 3.81055C7.44431 3.81055 4.92729 4.83291 3.04908 6.66014C1.17086 8.48738 0.0796598 10.9753 0.00756988 13.5947C-0.00577247 14.9032 0.253609 16.2001 0.769185 17.4028C2.36858 15.7729 5.92533 14.6229 10.0914 14.6229Z" fill="#0086CD"/>
<path d="M10.0915 14.6305C14.2499 14.6305 17.8067 15.7729 19.3375 17.3875C19.8475 16.1992 20.1068 14.9183 20.0991 13.6252C19.9981 11.0326 18.8971 8.57977 17.0271 6.78121C15.157 4.98265 12.6632 3.97803 10.0687 3.97803C7.47407 3.97803 4.9803 4.98265 3.11027 6.78121C1.24024 8.57977 0.139246 11.0326 0.038195 13.6252C0.0269053 14.9162 0.286355 16.1953 0.79981 17.3799C2.36874 15.7729 5.94072 14.6305 10.0915 14.6305Z" fill="#0088CE"/>
<path d="M10.0914 14.6459C14.2345 14.6459 17.7837 15.7731 19.3145 17.3801C19.8238 16.2022 20.0831 14.9314 20.0761 13.6482C19.9752 11.0615 18.8767 8.61446 17.0109 6.82009C15.1452 5.02571 12.6571 4.02344 10.0685 4.02344C7.4799 4.02344 4.99186 5.02571 3.1261 6.82009C1.26034 8.61446 0.161818 11.0615 0.0608846 13.6482C0.0498499 14.9318 0.309356 16.2034 0.8225 17.3801C2.36858 15.7731 5.94818 14.6459 10.0914 14.6459Z" fill="#008ACF"/>
<path d="M10.0838 14.6537C14.227 14.6537 17.7609 15.7732 19.2841 17.365C19.7974 16.1991 20.0571 14.9374 20.0457 13.6635C20.0457 8.41601 15.5751 4.09766 10.061 4.09766C4.54687 4.09766 0.0838016 8.41602 0.0838016 13.6712C0.0733151 14.9425 0.332912 16.2015 0.845417 17.365C2.41434 15.7732 5.95586 14.6537 10.0838 14.6537Z" fill="#008CD0"/>
<path d="M10.084 14.661C14.2119 14.661 17.7458 15.7805 19.2614 17.3495C19.7704 16.1956 20.0299 14.9472 20.023 13.6861C20.023 8.47665 15.56 4.18115 10.0611 4.18115C4.56226 4.18115 0.114428 8.48426 0.114428 13.6861C0.106636 14.9473 0.36621 16.1959 0.876043 17.3495C2.42974 15.7805 5.96363 14.661 10.084 14.661Z" fill="#008ED2"/>
<path d="M10.0839 14.6766C14.2042 14.6766 17.7 15.781 19.2233 17.3423C19.733 16.1967 19.9927 14.9556 19.9849 13.7017C19.9849 8.538 15.537 4.27295 10.0839 4.27295C4.63072 4.27295 0.182892 8.5456 0.182892 13.7093C0.179617 14.9603 0.439088 16.198 0.944507 17.3423C2.4525 15.781 5.97878 14.6766 10.0839 14.6766Z" fill="#008FD3"/>
<path d="M10.0839 14.6839C14.189 14.6839 17.7 15.7807 19.2233 17.3267C19.7329 16.1946 19.9927 14.9659 19.9849 13.7243C19.9849 8.60627 15.5447 4.35645 10.0839 4.35645C4.62311 4.35645 0.182893 8.60627 0.182893 13.7243C0.179562 14.9654 0.439129 16.1932 0.944508 17.3267C2.46774 15.7807 5.9864 14.6839 10.0839 14.6839Z" fill="#0091D4"/>
<path d="M10.0839 14.6989C14.1738 14.6989 17.7 15.7804 19.1852 17.3189C19.6941 16.1945 19.9539 14.9734 19.9468 13.7393C19.9468 8.6669 15.5218 4.43994 10.0458 4.43994C4.56979 4.43994 0.144807 8.6669 0.144807 13.7393C0.141467 14.973 0.401106 16.1933 0.906422 17.3189C2.49058 15.7804 5.99402 14.6989 10.0839 14.6989Z" fill="#0093D5"/>
<path d="M10.0837 14.7067C14.1659 14.7067 17.6617 15.7806 19.1621 17.3038C19.6673 16.1917 19.9271 14.9838 19.9237 13.7623C19.9237 8.72804 15.5064 4.52393 10.0684 4.52393C4.63051 4.52393 0.213166 8.73566 0.213166 13.7623C0.209843 14.9838 0.469603 16.1917 0.974781 17.3038C2.50563 15.7806 6.00143 14.7067 10.0837 14.7067Z" fill="#0095D7"/>
<path d="M10.0761 14.7144C14.1508 14.7144 17.639 15.7806 19.1317 17.2886C19.6405 16.1884 19.9005 14.9897 19.8934 13.7776C19.8934 8.78898 15.4912 4.63818 10.0609 4.63818C4.63059 4.63818 0.243678 8.82707 0.243678 13.7776C0.240666 14.9892 0.500511 16.1871 1.00529 17.2886C2.52852 15.7806 6.01672 14.7144 10.0761 14.7144Z" fill="#0097D8"/>
<path d="M10.0762 14.7297C14.1432 14.7297 17.6162 15.7807 19.1089 17.2811C19.6133 16.1902 19.8733 15.0023 19.8706 13.8005C19.8706 8.85763 15.4836 4.66113 10.0685 4.66113C4.65347 4.66113 0.274191 8.82717 0.274191 13.8005C0.27146 15.0023 0.531395 16.1902 1.03581 17.2811C2.5438 15.7807 6.02438 14.7297 10.0762 14.7297Z" fill="#0099D9"/>
<path d="M10.0763 14.7373C14.1281 14.7373 17.5934 15.7883 19.0862 17.2659C19.5912 16.186 19.8513 15.0079 19.8478 13.8158C19.8478 8.91857 15.4685 4.77539 10.0687 4.77539C4.66881 4.77539 0.297154 8.91857 0.297154 13.8158C0.293672 15.0079 0.553748 16.186 1.05877 17.2659C2.56677 15.7883 6.03211 14.7373 10.0763 14.7373Z" fill="#009BDA"/>
<path d="M10.0761 14.7523C14.1127 14.7523 17.578 15.7881 19.0556 17.258C19.5597 16.1859 19.8198 15.0154 19.8172 13.8307C19.8172 8.97922 15.4531 4.85889 10.0685 4.85889C4.68388 4.85889 0.319833 8.97923 0.319833 13.8383C0.318078 15.0205 0.578179 16.1883 1.08145 17.258C2.58183 15.7881 6.03956 14.7523 10.0761 14.7523Z" fill="#009DDC"/>
<path d="M10.0762 14.7601C14.1051 14.7601 17.5552 15.7883 19.0328 17.2429C19.5367 16.1843 19.797 15.0262 19.7944 13.8538C19.7944 9.04034 15.4379 4.94287 10.0685 4.94287C4.69915 4.94287 0.350342 9.04796 0.350342 13.8538C0.351068 15.0258 0.611157 16.1832 1.11196 17.2429C2.60472 15.7883 6.05483 14.7601 10.0762 14.7601Z" fill="#009FDD"/>
<path d="M10.0762 14.7674C14.0899 14.7674 17.5324 15.788 19.01 17.2274C19.5149 16.18 19.7753 15.0315 19.7716 13.8687C19.7716 9.10864 15.4304 5.02637 10.0762 5.02637C4.72205 5.02637 0.380859 9.10864 0.380859 13.8687C0.380755 15.0311 0.640996 16.1788 1.14247 17.2274C2.62001 15.788 6.06249 14.7674 10.0762 14.7674Z" fill="#00A1DE"/>
<path d="M10.0687 14.7831C14.0824 14.7831 17.5097 15.7884 18.9796 17.2202C19.4821 16.1828 19.7425 15.0447 19.7413 13.892C19.7413 9.16997 15.4077 5.11816 10.0611 5.11816C4.7146 5.11816 0.39624 9.16997 0.39624 13.892C0.397845 15.0444 0.658115 16.1818 1.15786 17.2202C2.63539 15.7884 6.07026 14.7831 10.0687 14.7831Z" fill="#00A3DF"/>
<path d="M10.0685 14.7904C14.067 14.7904 17.4867 15.7881 18.9566 17.2047C19.4604 16.1785 19.721 15.0501 19.7182 13.9069C19.7182 9.2306 15.3998 5.20166 10.0685 5.20166C4.73723 5.20166 0.426514 9.2306 0.426514 13.9069C0.42746 15.0497 0.687879 16.1773 1.18813 17.2047C2.65805 15.7881 6.08529 14.7904 10.0685 14.7904Z" fill="#00A5E1"/>
<path d="M10.0686 14.8058C14.0519 14.8058 17.4715 15.7883 18.9338 17.1973C19.4334 16.1805 19.6939 15.0629 19.6955 13.93C19.6955 9.29174 15.3847 5.28564 10.0686 5.28564C4.75257 5.28564 0.449463 9.29936 0.449463 13.93C0.451031 15.0629 0.711537 16.1805 1.21108 17.1973C2.67338 15.7883 6.09301 14.8058 10.0686 14.8058Z" fill="#00A7E2"/>
<path d="M10.0684 14.8136C14.044 14.8136 17.4485 15.7961 18.9108 17.1823C19.4101 16.1762 19.6708 15.0686 19.6724 13.9454C19.6724 9.37571 15.3769 5.36963 10.076 5.36963C4.77519 5.36963 0.487305 9.36048 0.487305 13.9454C0.488923 15.0686 0.749549 16.1762 1.24892 17.1823C2.69599 15.8342 6.1004 14.8136 10.0684 14.8136Z" fill="#00A9E3"/>
<path d="M10.0685 14.821C14.0289 14.821 17.4257 15.7959 18.8804 17.1668C19.3798 16.1743 19.6406 15.079 19.642 13.968C19.642 9.39828 15.3617 5.45312 10.0761 5.45312C4.79053 5.45312 0.510254 9.42113 0.510254 13.968C0.511665 15.079 0.772459 16.1743 1.27187 17.1668C2.71132 15.8339 6.10811 14.821 10.0685 14.821Z" fill="#00ABE5"/>
<path d="M10.0686 14.8359C14.0214 14.8359 17.403 15.7956 18.8577 17.1588C19.3568 16.1745 19.6177 15.0866 19.6193 13.9829C19.6193 9.48178 15.3466 5.53662 10.0762 5.53662C4.80586 5.53662 0.533203 9.48178 0.533203 13.9829C0.534792 15.0866 0.795674 16.1745 1.29482 17.1588C2.73427 15.8336 6.12345 14.8359 10.0686 14.8359Z" fill="#00ADE6"/>
<path d="M10.0611 14.8439C14.0062 14.8439 17.3878 15.7959 18.8349 17.1287C19.3307 16.154 19.5915 15.0768 19.5965 13.9832C19.5965 9.52779 15.339 5.60547 10.0763 5.60547C4.81352 5.60547 0.563721 9.5354 0.563721 13.9832C0.568937 15.0768 0.82975 16.1539 1.32534 17.1287C2.74956 15.834 6.13113 14.8439 10.0611 14.8439Z" fill="#00AFE7"/>
<path d="M10.061 14.8591C13.9985 14.8591 17.3648 15.7959 18.8043 17.144C19.303 16.184 19.5642 15.1184 19.5659 14.0366C19.5659 9.62682 15.3161 5.71973 10.0686 5.71973C4.82105 5.71973 0.578857 9.62682 0.578857 14.0366C0.584061 15.1179 0.845041 16.1827 1.34047 17.144C2.77231 15.834 6.17674 14.8591 10.061 14.8591Z" fill="#00B2E9"/>
<path d="M10.061 14.8668C13.9833 14.8668 17.342 15.796 18.7814 17.1517C19.2769 16.1987 19.538 15.1412 19.5431 14.0671C19.5431 9.70307 15.3085 5.81885 10.0762 5.81885C4.84389 5.81885 0.616943 9.70307 0.616943 14.0671C0.621986 15.1412 0.883078 16.1987 1.37856 17.1517C2.78755 15.8341 6.17673 14.8668 10.061 14.8668Z" fill="#00B4EA"/>
<path d="M10.0611 14.8743C13.9682 14.8743 17.3192 15.7959 18.7587 17.1059C19.253 16.1661 19.5142 15.1213 19.5203 14.0594C19.5203 9.73346 15.2934 5.87207 10.0763 5.87207C4.85923 5.87207 0.639893 9.73346 0.639893 14.0594C0.645991 15.1213 0.907197 16.1661 1.40151 17.1059C2.8105 15.834 6.17683 14.8743 10.0611 14.8743Z" fill="#00B6EB"/>
<path d="M10.0609 14.8894C13.9604 14.8894 17.2963 15.8033 18.7281 17.0981C19.2296 16.1611 19.4913 15.1144 19.4897 14.0516C19.4897 9.77135 15.2704 5.94043 10.0761 5.94043C4.88193 5.94043 0.662598 9.7485 0.662598 14.0516C0.664766 15.114 0.926204 16.1597 1.42421 17.0981C2.82558 15.8338 6.17669 14.8894 10.0609 14.8894Z" fill="#00B8ED"/>
<path d="M10.0534 14.8968C13.9453 14.8968 17.2811 15.8032 18.7054 17.0827C19.1995 16.1648 19.461 15.1396 19.467 14.0972C19.467 9.86257 15.2552 6.04688 10.0686 6.04688C4.88203 6.04688 0.685547 9.85496 0.685547 14.0972C0.691478 15.1396 0.952988 16.1648 1.44716 17.0827C2.84092 15.8336 6.17678 14.8968 10.0534 14.8968Z" fill="#01BBEE"/>
<path d="M10.0532 14.9123C13.9374 14.9123 17.2581 15.8034 18.6823 17.0676C19.1763 16.1606 19.438 15.1454 19.4439 14.1126C19.4439 9.92369 15.2474 6.13086 10.076 6.13086C4.90465 6.13086 0.723389 9.93892 0.723389 14.1126C0.729311 15.1454 0.990975 16.1606 1.485 17.0676C2.86353 15.8338 6.17655 14.9123 10.0532 14.9123Z" fill="#11BDF0"/>
<path d="M10.0533 14.9201C13.9223 14.9201 17.2353 15.8036 18.6519 17.0602C19.1449 16.1638 19.4067 15.1587 19.4135 14.1356C19.4135 9.98483 15.2323 6.21484 10.0761 6.21484C4.91999 6.21484 0.746338 9.98485 0.746338 14.128C0.752219 15.1536 1.014 16.1614 1.50795 17.0602C2.87886 15.834 6.17665 14.9201 10.0533 14.9201Z" fill="#1AC0F1"/>
<path d="M10.0534 14.9274C13.9071 14.9274 17.2126 15.8033 18.6292 17.0447C19.1221 16.1593 19.3841 15.164 19.3908 14.1506C19.3908 10.0455 15.2171 6.29834 10.0762 6.29834C4.93532 6.29834 0.769287 10.0455 0.769287 14.1506C0.77503 15.1641 1.03703 16.1597 1.5309 17.0447C2.90181 15.8337 6.17675 14.9274 10.0534 14.9274Z" fill="#1FC4F4"/>
<path d="M10.0533 14.9584C13.907 14.9584 17.2048 15.8266 18.6138 17.0605C19.1067 16.1805 19.3688 15.1901 19.3754 14.1816C19.3754 10.1069 15.2094 6.375 10.0761 6.375C4.94283 6.375 0.784424 10.1069 0.784424 14.1816C0.796265 15.1894 1.05795 16.1786 1.54604 17.0605C2.90933 15.8343 6.17664 14.9584 10.0533 14.9584Z" fill="#32C5F4"/>
<path d="M10.0532 14.9808C13.8994 14.9808 17.1972 15.8414 18.6062 17.0676C19.0954 16.1945 19.3573 15.2123 19.3678 14.2115C19.3678 10.1597 15.2094 6.45068 10.0761 6.45068C4.9428 6.45068 0.791992 10.1597 0.791992 14.2115C0.802488 15.2123 1.06438 16.1945 1.55361 17.0676C2.9169 15.8338 6.21469 14.9808 10.0532 14.9808Z" fill="#3FC7F4"/>
<path d="M10.0534 15.0038C13.8614 15.0038 17.1897 15.8568 18.5911 17.0754C19.0834 16.2118 19.3456 15.2363 19.3527 14.2422C19.3527 10.2133 15.2019 6.53467 10.0762 6.53467C4.95055 6.53467 0.807373 10.2133 0.807373 14.2422C0.817766 15.2358 1.07979 16.2105 1.56899 17.0754C2.93228 15.834 6.22244 15.0038 10.0534 15.0038Z" fill="#4AC8F5"/>
<path d="M10.0535 15.0267C13.8615 15.0267 17.1746 15.8797 18.5836 17.0906C19.0718 16.2309 19.3339 15.2613 19.3452 14.2727C19.3452 10.2742 15.202 6.61084 10.0839 6.61084C4.96589 6.61084 0.830322 10.2742 0.830322 14.2651C0.840673 15.2562 1.10275 16.2285 1.59194 17.0906C2.94 15.8797 6.23016 15.0267 10.0535 15.0267Z" fill="#54CAF5"/>
<path d="M10.0534 15.0723C13.8615 15.0723 17.1669 15.9177 18.5682 17.121C19.0606 16.2685 19.3231 15.3028 19.3298 14.3183C19.3298 10.3503 15.1867 6.70215 10.0762 6.70215C4.96579 6.70215 0.845459 10.3274 0.845459 14.3107C0.859329 15.2941 1.1213 16.2582 1.60707 17.1134C2.94752 15.8948 6.23007 15.0723 10.0534 15.0723Z" fill="#5CCCF5"/>
<path d="M10.0534 15.0724C13.8615 15.0724 17.1593 15.9178 18.5606 17.1135C19.0486 16.2647 19.3108 15.305 19.3222 14.326C19.3222 10.3808 15.1867 6.76318 10.0839 6.76318C4.98103 6.76318 0.845459 10.3809 0.845459 14.3108C0.856902 15.2898 1.11912 16.2495 1.60707 17.0983C2.95513 15.9178 6.23769 15.0724 10.0534 15.0724Z" fill="#64CDF6"/>
<path d="M10.0532 15.0721C13.8613 15.0721 17.1515 15.9023 18.5452 17.0904C19.0332 16.2499 19.2956 15.2975 19.3069 14.3257C19.3069 10.411 15.1789 6.80859 10.0837 6.80859C4.98851 6.80859 0.868164 10.411 0.868164 14.3257C0.870191 15.2938 1.11924 16.2454 1.59171 17.0904C2.96261 15.9327 6.24516 15.0721 10.0532 15.0721Z" fill="#6CCFF6"/>
<path d="M10.0534 15.1255C13.8615 15.1255 17.1364 15.9556 18.5378 17.1285C19.0255 16.2963 19.288 15.3513 19.2994 14.3867C19.2994 10.4948 15.1714 6.92285 10.0839 6.92285C4.99626 6.92285 0.845459 10.5025 0.845459 14.3867C0.85578 15.3514 1.11835 16.2967 1.60707 17.1285C2.97798 15.9556 6.24531 15.1255 10.0534 15.1255Z" fill="#73D1F6"/>
<path d="M10.0534 15.1483C13.8615 15.1483 17.1288 15.9709 18.5225 17.1437C19.01 16.3169 19.2726 15.3769 19.2841 14.4172C19.2841 10.5482 15.1638 6.99902 10.0839 6.99902C5.00388 6.99902 0.845459 10.5482 0.845459 14.4172C0.857018 15.3769 1.11959 16.3169 1.60707 17.1437C2.9856 15.9709 6.25292 15.1483 10.0534 15.1483Z" fill="#7AD2F7"/>
<path d="M10.0532 15.1717C13.8613 15.1717 17.121 15.9942 18.5148 17.1519C18.9857 16.3284 19.235 15.3968 19.2383 14.4481C19.2383 10.64 15.1256 7.07568 10.0532 7.07568C4.98084 7.07568 0.913818 10.6096 0.913818 14.4481C0.917064 15.3968 1.16637 16.3284 1.63736 17.1519C2.99304 15.9942 6.26036 15.1717 10.0532 15.1717Z" fill="#81D4F7"/>
<path d="M10.0532 15.194C13.8613 15.194 17.1134 16.0089 18.4996 17.159C18.9866 16.3487 19.2495 15.4235 19.2612 14.4781C19.2612 10.67 15.1485 7.15137 10.0837 7.15137C5.01898 7.15137 0.944336 10.6624 0.944336 14.4705C0.955866 15.4206 1.21863 16.3508 1.70595 17.1666C3.0007 16.0089 6.2604 15.194 10.0532 15.194Z" fill="#88D6F8"/>
<path d="M10.0533 15.2245C13.8614 15.2245 17.0983 16.0318 18.492 17.1742C18.9628 16.3617 19.2123 15.44 19.2155 14.501C19.2155 10.6929 15.1104 7.22754 10.0761 7.22754C5.04187 7.22754 0.936768 10.7157 0.936768 14.501C0.940037 15.44 1.18952 16.3617 1.66031 17.1742C3.01599 16.0318 6.26807 15.2245 10.0533 15.2245Z" fill="#8ED8F8"/>
<path d="M10.0534 15.2476C13.8615 15.2476 17.0907 16.0092 18.4769 17.182C18.9608 16.3815 19.2236 15.4669 19.2385 14.5316C19.2385 10.7769 15.141 7.31152 10.0991 7.31152C5.05721 7.31152 0.959717 10.7769 0.959717 14.5316C0.970896 15.4675 1.23399 16.383 1.72133 17.182C3.02369 16.0472 6.27579 15.2476 10.0534 15.2476Z" fill="#94DAF8"/>
<path d="M10.0532 15.2704C13.8613 15.2704 17.0829 16.032 18.431 17.1973C18.9167 16.4032 19.1798 15.4929 19.1926 14.5621C19.1926 10.8302 15.0951 7.3877 10.0532 7.3877C5.01131 7.3877 0.913818 10.8302 0.913818 14.5621C0.918394 15.4889 1.16802 16.3981 1.63736 17.1973C3.03112 16.0625 6.27559 15.2704 10.0532 15.2704Z" fill="#9BDCF9"/>
<path d="M10.0534 15.2933C13.8615 15.2933 17.0755 16.0549 18.4312 17.2049C18.9004 16.4139 19.1501 15.5122 19.1547 14.5926C19.1547 10.8835 15.0649 7.46387 10.0154 7.46387C4.96585 7.46387 0.875977 10.8911 0.875977 14.5926C0.880585 15.5122 1.13033 16.4139 1.5995 17.2049C3.03895 16.0853 6.28343 15.2933 10.0534 15.2933Z" fill="#A1DDF9"/>
<path d="M10.0534 15.3161C13.8615 15.3161 17.0603 16.0778 18.4312 17.2126C18.9002 16.4299 19.1501 15.5355 19.1547 14.6231C19.1547 10.9445 15.0725 7.54004 10.0154 7.54004C4.95823 7.54004 0.875977 10.9445 0.875977 14.6231C0.881452 15.5378 1.13123 16.4344 1.5995 17.2202C3.05418 16.1006 6.29105 15.3161 10.0534 15.3161Z" fill="#A7DFF9"/>
<path d="M10.0534 15.339C13.8615 15.339 17.0526 16.1006 18.4312 17.2278C18.9127 16.4541 19.1758 15.5646 19.1928 14.6535C19.1928 10.9978 15.1181 7.61621 10.0534 7.61621C4.98866 7.61621 0.959717 10.9978 0.959717 14.6535C0.975901 15.5648 1.23913 16.4545 1.72133 17.2278C3.06177 16.1234 6.29102 15.3466 10.0534 15.339Z" fill="#ADE1FA"/>
<path d="M10.0534 15.3692C13.8158 15.3692 17.0451 16.1308 18.4312 17.2351C18.8999 16.4663 19.1501 15.5841 19.1548 14.6837C19.1548 11.0508 15.0877 7.69971 10.0687 7.69971C5.04963 7.69971 0.990234 11.0584 0.990234 14.6761C0.991201 15.5784 1.23876 16.4633 1.70615 17.2351C3.06944 16.1384 6.29869 15.3692 10.0534 15.3692Z" fill="#B3E3FA"/>
<path d="M10.0534 15.3925C13.8081 15.3925 17.0374 16.1541 18.4311 17.2432C18.8971 16.482 19.1448 15.6072 19.147 14.7147C19.147 11.1122 15.0876 7.77637 10.0762 7.77637C5.06478 7.77637 1.00537 11.1122 1.00537 14.707C1.01025 15.6051 1.26045 16.4847 1.72891 17.2508C3.07697 16.1617 6.30621 15.3925 10.0534 15.3925Z" fill="#B8E5FA"/>
<path d="M10.0534 15.4152C13.8082 15.4152 17.0222 16.1768 18.4312 17.2583C18.8996 16.5005 19.1499 15.6282 19.1547 14.7373C19.1547 11.1654 15.0953 7.88281 10.0915 7.88281C5.08769 7.88281 1.03589 11.1958 1.03589 14.7373C1.04185 15.627 1.28929 16.4983 1.75181 17.2583C3.13033 16.1768 6.30626 15.4152 10.0534 15.4152Z" fill="#BEE7FB"/>
<path d="M10.0533 15.4378C13.8005 15.4378 17.0145 16.1995 18.3854 17.2657C18.8478 16.5141 19.0954 15.6501 19.1013 14.7676C19.1013 11.2185 15.0495 7.91309 10.0533 7.91309C5.05711 7.91309 1.01294 11.2109 1.01294 14.7676C1.01526 15.6506 1.26314 16.5155 1.72886 17.2657C3.13023 16.1995 6.31378 15.4378 10.0533 15.4378Z" fill="#C4E9FB"/>
<path d="M10.0535 15.4606C13.793 15.4606 17.007 16.2222 18.3703 17.2809C18.8352 16.5359 19.0831 15.6761 19.0863 14.798C19.0863 11.2793 15.0421 8.00439 10.0535 8.00439C5.06492 8.00439 1.02075 11.2793 1.02075 14.798C1.02785 15.6755 1.27547 16.5343 1.73667 17.2809C3.13043 16.2146 6.32158 15.4682 10.0535 15.4606Z" fill="#CAEBFC"/>
<path d="M10.0534 15.4911C13.7929 15.4911 16.9993 16.2527 18.3626 17.2885C18.8238 16.5503 19.0716 15.6988 19.0785 14.8285C19.0785 11.3327 15.0344 8.08057 10.0534 8.08057C5.07244 8.08057 1.03589 11.3327 1.03589 14.8285C1.04286 15.6988 1.29065 16.5503 1.75181 17.2885C3.13033 16.2375 6.32149 15.4911 10.0534 15.4911Z" fill="#CFEDFC"/>
<path d="M10.0533 15.5141C13.7852 15.5141 16.984 16.2758 18.3473 17.2963C18.8081 16.5664 19.056 15.7223 19.0632 14.8592C19.0632 11.3862 15.0267 8.16455 10.0533 8.16455C5.07997 8.16455 1.05103 11.3938 1.05103 14.8592C1.05654 15.7239 1.30174 16.5702 1.75934 17.3039C3.13025 16.2529 6.32902 15.5141 10.0533 15.5141Z" fill="#D5EFFC"/>
<path d="M10.0533 15.537C13.7776 15.537 16.9763 16.2986 18.3396 17.3116C18.7984 16.5867 19.0438 15.7474 19.0479 14.8896C19.0479 11.4471 15.019 8.24072 10.0533 8.24072C5.08754 8.24072 1.05859 11.4471 1.05859 14.8896C1.06498 15.7482 1.31309 16.5875 1.77451 17.3116C3.13019 16.2681 6.33658 15.537 10.0533 15.537Z" fill="#DAF1FD"/>
<path d="M10.0532 15.5599C13.7775 15.5599 16.9687 16.3215 18.3243 17.3192C18.7847 16.6031 19.0329 15.7713 19.0402 14.9201C19.0402 11.5004 15.0113 8.31689 10.0532 8.31689C5.09506 8.31689 1.07373 11.5004 1.07373 14.9125C1.07739 15.7656 1.32302 16.6001 1.78205 17.3192C3.13011 16.291 6.34411 15.5599 10.0532 15.5599Z" fill="#E0F3FD"/>
<path d="M10.0533 15.5827C13.77 15.5827 16.9535 16.3062 18.3168 17.3344C18.7701 16.6184 19.0154 15.7903 19.0251 14.9429C19.0251 11.5614 15.0038 8.39307 10.0533 8.39307C5.10281 8.39307 1.08911 11.5614 1.08911 14.9429C1.09398 15.7911 1.33961 16.6204 1.79741 17.3344C3.13023 16.3062 6.34425 15.5903 10.0533 15.5827Z" fill="#E6F5FD"/>
<path d="M10.0533 15.6127C13.7623 15.6127 16.9459 16.3286 18.3016 17.3416C18.7591 16.6359 19.0049 15.8139 19.0099 14.9729C19.0099 11.6142 14.9962 8.46875 10.0533 8.46875C5.1104 8.46875 1.09668 11.6142 1.09668 14.9729C1.10503 15.8134 1.35057 16.6345 1.805 17.3416C3.16829 16.3286 6.35183 15.6127 10.0533 15.6127Z" fill="#EBF7FE"/>
<path d="M10.0534 15.6357C13.7625 15.6357 16.9079 16.344 18.2865 17.3494C18.746 16.6527 18.9946 15.8382 19.0024 15.0036C19.0024 11.6677 14.9887 8.55273 10.0534 8.55273C5.11815 8.55273 1.11206 11.6677 1.11206 15.0036C1.11783 15.8397 1.36368 16.6566 1.82036 17.357C3.17603 16.3441 6.35958 15.6357 10.0534 15.6357Z" fill="#F1FAFE"/>
<path d="M10.0533 15.6586C13.7548 15.6586 16.9079 16.3669 18.2788 17.3646C18.7317 16.6709 18.9774 15.8625 18.9871 15.0341C18.9871 11.7287 14.981 8.62891 10.0533 8.62891C5.12568 8.62891 1.1272 11.7287 1.1272 15.0341C1.13421 15.8618 1.3773 16.6703 1.82789 17.3646C3.18357 16.3669 6.35949 15.6586 10.0533 15.6586Z" fill="#F7FCFE"/>
<path d="M10.0533 15.6816C13.7471 15.6816 16.9078 16.3822 18.2635 17.3723C18.715 16.695 18.961 15.9015 18.9718 15.0875C18.9718 11.8049 14.9733 8.72803 10.0533 8.72803C5.13324 8.72803 1.13477 11.7745 1.13477 15.0875C1.14551 15.9015 1.39149 16.695 1.84306 17.3723C3.19112 16.3822 6.36705 15.6816 10.0533 15.6816Z" fill="white"/>
</g>
<path d="M9.98479 12.4068C7.01848 12.3804 4.07104 12.8807 1.27954 13.8843C2.02842 15.5677 3.24931 16.9978 4.79436 18.0015C6.33942 19.0052 8.14235 19.5394 9.98479 19.5394C11.8272 19.5394 13.6302 19.0052 15.1752 18.0015C16.7203 16.9978 17.9412 15.5677 18.69 13.8843C15.8985 12.8807 12.9511 12.3804 9.98479 12.4068Z" fill="#0083CA"/>
</g>
<defs>
<clipPath id="clip0_1344_2839">
<rect width="20" height="20" fill="white"/>
</clipPath>
</defs>
</svg>
