<svg width="24" height="24" viewBox="0 0 24 24" fill="none" xmlns="http://www.w3.org/2000/svg">
<path d="M17.3009 10.4998H23.1989C23.2701 10.4998 23.3399 10.5201 23.4 10.5584C23.4602 10.5966 23.5081 10.6512 23.5384 10.7158C23.5686 10.7803 23.5798 10.8521 23.5707 10.9228C23.5615 10.9934 23.5325 11.06 23.4869 11.1148L20.5379 14.6548C20.5027 14.697 20.4587 14.7309 20.4089 14.7542C20.3591 14.7775 20.3048 14.7896 20.2499 14.7896C20.1949 14.7896 20.1407 14.7775 20.0909 14.7542C20.0411 14.7309 19.9971 14.697 19.9619 14.6548L17.0129 11.1148C16.9673 11.06 16.9382 10.9934 16.9291 10.9228C16.92 10.8521 16.9312 10.7803 16.9614 10.7158C16.9916 10.6512 17.0396 10.5966 17.0997 10.5584C17.1599 10.5201 17.2296 10.4998 17.3009 10.4998V10.4998ZM0.800885 13.4998H6.69889C6.77014 13.4998 6.83991 13.4794 6.90003 13.4412C6.96015 13.4029 7.00813 13.3484 7.03835 13.2838C7.06857 13.2193 7.07978 13.1475 7.07066 13.0768C7.06155 13.0062 7.03249 12.9395 6.98689 12.8848L4.03788 9.34479C4.00269 9.30259 3.95865 9.26864 3.90888 9.24534C3.85912 9.22204 3.80484 9.20996 3.74988 9.20996C3.69493 9.20996 3.64065 9.22204 3.59089 9.24534C3.54112 9.26864 3.49708 9.30259 3.46189 9.34479L0.512885 12.8848C0.467282 12.9395 0.438221 13.0062 0.429106 13.0768C0.419992 13.1475 0.4312 13.2193 0.461419 13.2838C0.491638 13.3484 0.539617 13.4029 0.599737 13.4412C0.659857 13.4794 0.72963 13.4998 0.800885 13.4998V13.4998Z" fill="#858585"/>
<path fill-rule="evenodd" clip-rule="evenodd" d="M12 4.5001C9.67201 4.5001 7.59001 5.5606 6.21451 7.2271C6.15309 7.30671 6.07629 7.37316 5.98867 7.42249C5.90106 7.47183 5.80442 7.50304 5.7045 7.51427C5.60458 7.52551 5.50342 7.51653 5.40703 7.48789C5.31065 7.45924 5.22101 7.41151 5.14345 7.34753C5.06588 7.28354 5.00198 7.20462 4.95553 7.11544C4.90908 7.02626 4.88103 6.92865 4.87306 6.82842C4.86509 6.72819 4.87736 6.62737 4.90913 6.53198C4.9409 6.43658 4.99153 6.34854 5.05801 6.27311C6.1563 4.9434 7.6134 3.95712 9.25601 3.43159C10.8986 2.90606 12.6576 2.86338 14.3238 3.30864C15.9899 3.7539 17.4932 4.66835 18.6546 5.94324C19.8161 7.21812 20.587 8.79978 20.8755 10.5001H19.35C19.0037 8.80632 18.0831 7.28409 16.7438 6.19082C15.4046 5.09755 13.7288 4.50032 12 4.5001V4.5001ZM4.65001 13.5001C4.93398 14.887 5.60454 16.1653 6.58423 17.1873C7.56392 18.2093 8.81275 18.9332 10.1865 19.2755C11.5602 19.6178 13.0027 19.5645 14.3473 19.1217C15.692 18.6789 16.884 17.8646 17.7855 16.7731C17.8469 16.6935 17.9237 16.627 18.0113 16.5777C18.099 16.5284 18.1956 16.4972 18.2955 16.4859C18.3954 16.4747 18.4966 16.4837 18.593 16.5123C18.6894 16.541 18.779 16.5887 18.8566 16.6527C18.9341 16.7167 18.998 16.7956 19.0445 16.8848C19.0909 16.9739 19.119 17.0716 19.127 17.1718C19.1349 17.272 19.1227 17.3728 19.0909 17.4682C19.0591 17.5636 19.0085 17.6517 18.942 17.7271C17.8437 19.0568 16.3866 20.0431 14.744 20.5686C13.1014 21.0942 11.3424 21.1368 9.67625 20.6916C8.01009 20.2463 6.50687 19.3319 5.3454 18.057C4.18392 16.7821 3.41306 15.2004 3.12451 13.5001H4.65001Z" fill="#6A6A6A"/>
</svg>
