<svg width="24" height="24" viewBox="0 0 24 24" fill="none" xmlns="http://www.w3.org/2000/svg">
<path fill-rule="evenodd" clip-rule="evenodd" d="M6.96888 21.5311C6.89903 21.4615 6.84362 21.3787 6.80581 21.2876C6.768 21.1965 6.74854 21.0988 6.74854 21.0001C6.74854 20.9015 6.768 20.8038 6.80581 20.7127C6.84362 20.6216 6.89903 20.5388 6.96888 20.4691L15.4394 12.0001L6.96888 3.53112C6.82805 3.39029 6.74893 3.19929 6.74893 3.00012C6.74893 2.80096 6.82805 2.60995 6.96888 2.46912C7.10971 2.32829 7.30072 2.24918 7.49988 2.24918C7.69904 2.24918 7.89005 2.32829 8.03088 2.46912L17.0309 11.4691C17.1007 11.5388 17.1561 11.6216 17.1939 11.7127C17.2318 11.8038 17.2512 11.9015 17.2512 12.0001C17.2512 12.0988 17.2318 12.1965 17.1939 12.2876C17.1561 12.3787 17.1007 12.4615 17.0309 12.5311L8.03088 21.5311C7.96121 21.601 7.87845 21.6564 7.78733 21.6942C7.69621 21.732 7.59853 21.7515 7.49988 21.7515C7.40123 21.7515 7.30355 21.732 7.21243 21.6942C7.12131 21.6564 7.03855 21.601 6.96888 21.5311V21.5311Z" fill="black"/>
</svg>
