<svg width="24" height="24" viewBox="0 0 24 24" fill="none" xmlns="http://www.w3.org/2000/svg">
<path fill-rule="evenodd" clip-rule="evenodd" d="M2.46888 6.96912C2.53854 6.89928 2.62131 6.84386 2.71243 6.80605C2.80354 6.76824 2.90122 6.74878 2.99988 6.74878C3.09853 6.74878 3.19621 6.76824 3.28733 6.80605C3.37844 6.84386 3.46121 6.89928 3.53088 6.96912L11.9999 15.4396L20.4689 6.96912C20.6097 6.82829 20.8007 6.74918 20.9999 6.74918C21.199 6.74918 21.39 6.82829 21.5309 6.96912C21.6717 7.10995 21.7508 7.30096 21.7508 7.50012C21.7508 7.69929 21.6717 7.89029 21.5309 8.03112L12.5309 17.0311C12.4612 17.101 12.3784 17.1564 12.2873 17.1942C12.1962 17.232 12.0985 17.2515 11.9999 17.2515C11.9012 17.2515 11.8035 17.232 11.7124 17.1942C11.6213 17.1564 11.5385 17.101 11.4689 17.0311L2.46888 8.03112C2.39903 7.96145 2.34362 7.87869 2.30581 7.78757C2.268 7.69646 2.24854 7.59877 2.24854 7.50012C2.24854 7.40147 2.268 7.30379 2.30581 7.21267C2.34362 7.12156 2.39903 7.03879 2.46888 6.96912V6.96912Z" fill="black"/>
</svg>
