<svg width="24" height="24" viewBox="0 0 24 24" fill="none" xmlns="http://www.w3.org/2000/svg">
<path fill-rule="evenodd" clip-rule="evenodd" d="M21.5311 17.0309C21.4615 17.1007 21.3787 17.1561 21.2876 17.1939C21.1965 17.2318 21.0988 17.2512 21.0001 17.2512C20.9015 17.2512 20.8038 17.2318 20.7127 17.1939C20.6216 17.1561 20.5388 17.1007 20.4691 17.0309L12.0001 8.56038L3.53112 17.0309C3.39029 17.1717 3.19929 17.2508 3.00012 17.2508C2.80096 17.2508 2.60995 17.1717 2.46912 17.0309C2.32829 16.89 2.24918 16.699 2.24918 16.4999C2.24918 16.3007 2.32829 16.1097 2.46912 15.9689L11.4691 6.96888C11.5388 6.89903 11.6216 6.84362 11.7127 6.80581C11.8038 6.768 11.9015 6.74854 12.0001 6.74854C12.0988 6.74854 12.1965 6.768 12.2876 6.80581C12.3787 6.84362 12.4615 6.89903 12.5311 6.96888L21.5311 15.9689C21.601 16.0385 21.6564 16.1213 21.6942 16.2124C21.732 16.3035 21.7515 16.4012 21.7515 16.4999C21.7515 16.5985 21.732 16.6962 21.6942 16.7873C21.6564 16.8784 21.601 16.9612 21.5311 17.0309V17.0309Z" fill="black"/>
</svg>
