<svg width="20" height="20" viewBox="0 0 20 20" fill="none" xmlns="http://www.w3.org/2000/svg">
<path d="M20 0H0V20H20V0Z" fill="#0091D0"/>
<path d="M0 0L4.99894 5.00317L9.99788 0H0Z" fill="#0091D0"/>
<path d="M0 0V9.99788L4.99894 5.00317L0 0Z" fill="#009CD8"/>
<path d="M9.99788 9.99796L5.00317 4.99902L0 9.99796H9.99788Z" fill="#0091D0"/>
<path d="M9.99789 9.99788V0L5.00317 4.99894L9.99789 9.99788Z" fill="#0082C9"/>
<path d="M9.9978 0V9.99788L14.9967 5.00317L9.9978 0Z" fill="#0070BB"/>
<path d="M20.0001 9.99796L15.0011 4.99902L10.0022 9.99796H20.0001Z" fill="#004C98"/>
<path d="M0 10.002L4.99894 15.0009L9.99788 10.002H0Z" fill="#0082C9"/>
<path d="M0 10.002V19.9998L4.99894 15.0009L0 10.002Z" fill="#0070BB"/>
<path d="M9.99788 20.0002L5.00317 14.9971L0 20.0002H9.99788Z" fill="#0060AF"/>
<path d="M9.99789 19.9998V10.002L5.00317 14.9967L9.99789 19.9998Z" fill="#00529C"/>
<path d="M9.9978 10.002L14.9967 15.0009L19.9999 10.002H9.9978Z" fill="#1C378A"/>
<path d="M9.9978 10.002V19.9998L14.9967 15.0009L9.9978 10.002Z" fill="#004C98"/>
<path d="M20.0001 20.0002L15.0011 14.9971L10.0022 20.0002H20.0001Z" fill="#1C378A"/>
<path d="M19.9999 19.9998V10.002L15.001 14.9967L19.9999 19.9998Z" fill="#1C378A"/>
<path d="M9.9978 0L14.9967 5.00317L19.9999 0H9.9978Z" fill="#0060AF"/>
<path d="M19.9999 9.99788V0L15.001 4.99894L19.9999 9.99788Z" fill="#00529C"/>
<path d="M20 12.5019L13.5969 6.40332L3.87817 16.1432L7.42226 19.6915L13.5969 13.6099L20 19.9791V12.5019Z" fill="white"/>
</svg>
