<svg width="20" height="20" viewBox="0 0 20 20" fill="none" xmlns="http://www.w3.org/2000/svg">
<path d="M4.86663 0.239563C4.60048 0.371688 4.36329 0.555468 4.16888 0.780191C3.97448 1.00491 3.82674 1.26608 3.7343 1.54848L0.115634 12.4174C-0.0737189 12.9868 -0.0291889 13.608 0.23943 14.1445C0.508049 14.6809 0.978759 15.0888 1.54803 15.2782L13.4092 19.2605C13.9782 19.448 14.5984 19.4025 15.134 19.1341C15.6696 18.8657 16.0773 18.3962 16.2678 17.8281L19.8849 6.95919C20.0736 6.38997 20.029 5.7692 19.7609 5.23279C19.4928 4.69638 19.0232 4.28803 18.4547 4.09717L6.59354 0.118242C6.31202 0.0230041 6.01437 -0.0153149 5.71791 0.00551291C5.42144 0.0263407 5.13208 0.105899 4.86663 0.239563V0.239563Z" fill="white"/>
<path d="M8.0256 1.42844C10.1007 2.19774 11.6156 4.41426 11.4683 6.83082C11.4162 7.73157 11.1393 8.60493 10.6629 9.37117C10.0096 8.63958 9.19223 8.07317 8.27782 7.71835L7.74777 7.51028V12.5515L8.28554 12.3428C9.19826 11.9845 10.0129 11.4148 10.6626 10.6804C11.2985 11.6997 11.5797 12.9006 11.4624 14.0962C11.3452 15.2919 10.8361 16.4153 10.0143 17.2917L10.0195 17.2876L10.0143 17.2938L1.78447 14.5417C1.41165 14.4191 1.10252 14.1539 0.924598 13.804C0.746676 13.4542 0.714426 13.0482 0.834891 12.6746L4.46282 1.79827C4.58145 1.42924 4.84178 1.12243 5.18657 0.945285C5.53136 0.768143 5.93238 0.735175 6.30147 0.85363L6.31321 0.857644L8.0256 1.42844Z" fill="#0092D8"/>
<path d="M5.9025 12.8562H5.08813V7.20898H5.9025V12.8562Z" fill="white"/>
<path d="M10.1879 10.0255C9.72953 9.47892 9.16748 9.0285 8.53418 8.7002V11.3551C9.16706 11.0243 9.72892 10.5725 10.1879 10.0255V10.0255Z" fill="#E43D30"/>
<path d="M18.1931 4.82017L10.636 2.29834C11.5862 3.33459 12.1575 4.66202 12.257 6.06443C12.3564 7.46685 11.9781 8.86162 11.1836 10.0216C11.9587 11.1436 12.3434 12.4892 12.2786 13.8514C12.2138 15.2135 11.703 16.5166 10.8249 17.5599L13.6619 18.5073C13.8451 18.5675 14.0383 18.591 14.2305 18.5764C14.4227 18.5619 14.6102 18.5096 14.7822 18.4226C14.9542 18.3356 15.1074 18.2156 15.233 18.0693C15.3586 17.9231 15.4541 17.7536 15.5142 17.5704V17.5664L19.1421 6.69062C19.2626 6.31672 19.2305 5.91034 19.0528 5.56C18.875 5.20966 18.566 4.94374 18.1931 4.82017V4.82017ZM16.1865 12.8395H15.1678L13.0686 10.0216L15.2024 7.1969H16.2365L14.0954 10.0216L16.1865 12.8395Z" fill="#004B9D"/>
</svg>
