<svg width="20" height="14" viewBox="0 0 20 14" fill="none" xmlns="http://www.w3.org/2000/svg">
<g clip-path="url(#clip0_1197_2733)">
<path d="M19.6781 7.18373L19.5041 7.07687C18.9136 6.49879 18.0904 6.24769 16.9943 6.30966C16.0808 6.36523 15.3555 6.72105 14.802 7.05764C14.802 7.04909 14.802 7.04054 14.802 7.032C14.8083 6.73692 14.8297 6.44234 14.8662 6.14938C14.9038 5.85151 14.9256 5.55191 14.9314 5.25181C14.9414 4.9737 14.8944 4.69646 14.7933 4.43651C14.7809 4.40603 14.7592 4.38009 14.7312 4.36228C14.7031 4.34448 14.6701 4.33569 14.6367 4.33714C14.341 4.34355 13.7668 4.5423 13.6243 4.66304L13.5482 4.82653C13.5482 5.14709 13.4721 6.04574 13.3992 6.15473L13.3601 6.26158C13.2365 7.38363 13.2325 8.51529 13.3481 9.63816C13.3612 9.73433 13.5504 9.88072 13.6972 9.93308C13.844 9.98544 14.3594 9.85935 14.6487 9.75143L14.7574 9.7354C14.7794 9.73241 14.8005 9.72513 14.8196 9.714C14.8386 9.70288 14.8552 9.68812 14.8684 9.6706C14.8816 9.65308 14.891 9.63315 14.8963 9.61198C14.9015 9.59082 14.9023 9.56884 14.8988 9.54734C14.8988 9.54734 14.9042 9.26845 14.9042 9.26845C15.1141 8.43285 15.9612 7.43804 16.9617 7.28738C17.5282 7.19976 17.9751 7.3408 18.3275 7.71479C18.3753 7.78211 18.4786 8.38263 18.11 9.07397C17.8316 9.5858 17.277 10.0154 16.5463 10.2857C15.8547 10.5432 15.0935 10.6479 14.1539 10.6148L13.2698 10.0303C12.526 9.51635 11.6006 8.87629 10.76 8.56321C10.6132 8.50872 10.3479 8.29287 10.1902 8.16358L10.1032 8.09412C9.61933 7.71159 8.69828 7.10893 7.95774 6.62488L7.55865 6.36202V6.27974C7.57932 6.25731 8.04365 5.98376 8.04365 5.98376C8.69611 5.60977 8.99515 5.42598 9.05931 5.33088C9.04626 5.34584 9.1463 5.28066 9.1463 5.28066L10.759 4.38416C12.3064 3.54749 14.0615 2.59863 14.9836 1.66152L15.0282 1.51833L15.0478 1.39118C15.1084 1.21877 15.1133 1.03218 15.0619 0.856908C15.0538 0.827706 15.038 0.801141 15.016 0.779927C14.994 0.758713 14.9667 0.743611 14.9369 0.736164C14.2181 0.666709 13.2894 1.08985 12.4445 1.86775C12.2892 2.00904 12.1142 2.12778 11.9247 2.22036L11.7953 2.29089C10.8644 2.81127 8.7657 4.09031 7.66305 4.78165C7.76733 3.37634 7.95432 1.97813 8.22307 0.594048L8.19263 0.429492L8.08388 0.215784L7.99798 0.0672575L7.97297 0.0608466C7.89134 0.0209957 7.80237 -0.00228597 7.71139 -0.00760999C7.6204 -0.012934 7.52925 -0.000190465 7.44339 0.0298596L7.2259 0.107863L6.93447 0.214716C6.90627 0.220128 6.88008 0.232908 6.85864 0.251712C6.83721 0.270516 6.82133 0.294648 6.81268 0.32157C6.28854 1.56749 5.85139 3.61908 5.75352 5.25609C4.9466 4.75862 4.11155 4.30661 3.25244 3.90224L3.2383 3.89476L3.18066 3.88301C3.01103 3.86057 2.80224 3.73769 2.60106 3.61801L2.20307 3.36477L1.59737 2.97796C1.60389 2.97796 1.43752 2.9427 1.43752 2.9427C1.17545 2.98651 0.676315 3.31882 0.525162 3.54322C0.506295 3.57218 0.496815 3.60609 0.497977 3.64045C0.50054 3.68846 0.509684 3.7359 0.525162 3.7815L0.552348 3.90331L0.580621 3.97704C0.872052 4.27089 1.60824 4.76135 2.33138 5.14389L3.1687 5.57985L4.44861 6.2712C4.44861 6.27654 4.66609 6.44109 4.66609 6.44109L4.81725 6.52658L4.84334 6.5426L2.51625 8.07275L1.29506 8.87095C1.0663 8.99488 0.830688 9.10618 0.589321 9.20434C0.356308 9.28225 0.16026 9.44108 0.0379941 9.65099L0.00537109 9.72044L0.0390816 9.76639L0.131513 9.83584L0.258742 9.91705L0.392496 10.0079L0.520813 10.0271C0.738298 10.0357 1.05583 9.91491 1.65283 9.65846C2.19654 9.41911 3.68958 8.53757 4.32573 8.16251L4.59759 8.00223C4.70633 8.01078 4.83356 7.91781 4.94339 7.83554C5.12316 7.70375 5.31586 7.58992 5.51864 7.49574C5.51864 7.49574 5.62086 7.44125 5.71003 7.38889C5.71003 7.41774 5.71003 7.46155 5.71003 7.46155C5.7383 9.37423 5.85139 10.7644 6.06344 11.8361V11.8565L6.0841 11.8992C6.19284 12.0509 6.30811 12.504 6.41033 12.9036L6.65283 13.7018C6.65283 13.7114 6.72242 13.7777 6.72242 13.7777C6.86053 13.8685 7.28136 14.0277 7.56409 13.9914L7.63369 13.9828L7.67827 13.8856C7.70142 13.7652 7.71235 13.6427 7.7109 13.5202C7.7109 13.3738 7.70002 13.2124 7.68588 13.0158L7.6674 12.7273C7.57823 11.397 7.49341 9.4672 7.49341 8.18495C7.49341 8.14969 7.49341 8.11763 7.49341 8.0781C7.72286 8.22128 8.73417 8.84638 8.73417 8.84638C10.4534 9.94163 13.0502 11.5979 14.6193 12.036C14.6584 12.048 14.7001 12.0497 14.7401 12.0406C14.78 12.0316 14.8168 12.0123 14.8466 11.9847C14.8466 11.9847 15.0891 11.8319 15.0891 11.8319L15.1326 11.8137C15.2239 11.772 15.2848 11.6224 15.2946 11.46C16.618 11.3959 18.4634 10.8948 19.4497 9.67556C19.8039 9.23399 19.9989 8.68944 20.0043 8.12725C20.0043 7.72227 19.889 7.37072 19.6781 7.17839" fill="#F8B500"/>
</g>
<defs>
<clipPath id="clip0_1197_2733">
<rect width="20" height="14" fill="white"/>
</clipPath>
</defs>
</svg>
