<svg width="13" height="20" viewBox="0 0 13 20" fill="none" xmlns="http://www.w3.org/2000/svg">
<path d="M10.0976 4.13477C9.37113 4.13477 6.94727 5.91609 6.94727 5.91609C6.94727 5.91609 9.37113 7.69803 10.0976 7.69803C11.1102 7.69803 11.9542 7.01322 11.9542 5.91609C11.9542 4.81897 11.1102 4.13477 10.0976 4.13477Z" fill="#38D200"/>
<path d="M1.85632 20.0003C2.5828 20.0003 5.00666 18.219 5.00666 18.219C5.00666 18.219 2.58496 16.437 1.85632 16.437C0.843754 16.437 0 17.1218 0 18.219C0 19.3161 0.845297 20.0003 1.85632 20.0003Z" fill="#0473EA"/>
<path d="M10.7307 10.1242L4.45653 5.95328L8.08213 3.4143C8.91941 2.82793 9.17957 1.67032 8.60678 0.821933C8.33239 0.413128 7.90686 0.130051 7.42378 0.0349625C6.94069 -0.0601261 6.43962 0.0405606 6.03077 0.314878L6.00176 0.334629L1.67004 3.3964C1.26116 3.68525 0.928854 4.06942 0.701895 4.51563C0.474935 4.96185 0.360164 5.45666 0.36752 5.95722C0.374876 6.45779 0.504138 6.94902 0.744111 7.38837C0.984084 7.82772 1.32754 8.20196 1.74473 8.47867L11.5507 14.9778C12.6657 13.2607 12.4497 11.2395 10.7307 10.1242Z" fill="#0473EA"/>
<path d="M0.706096 9.56055L11.5197 16.5127C11.9328 16.7789 12.2234 17.1982 12.3276 17.6785C12.4318 18.1588 12.341 18.6608 12.0752 19.0742V19.0742C11.809 19.4874 11.3897 19.778 10.9094 19.8822C10.4291 19.9863 9.92706 19.8955 9.51366 19.6297L1.81989 14.6845C0.993021 14.1527 0.411195 13.3143 0.202334 12.3536C-0.00652782 11.3929 0.174673 10.3886 0.706096 9.56147V9.56055Z" fill="#38D200"/>
</svg>
