<svg width="40" height="40" viewBox="0 0 40 40" fill="none" xmlns="http://www.w3.org/2000/svg">
<circle cx="20" cy="20" r="20" fill="white"/>
<g clip-path="url(#clip0_1207_2945)">
<path d="M12.6867 32.4053C12.0434 32.7353 11.3134 32.157 11.4434 31.4187L12.8267 23.5353L6.95503 17.942C6.4067 17.4187 6.6917 16.462 7.4267 16.3587L15.59 15.1987L19.23 7.98701C19.5584 7.33701 20.4467 7.33701 20.775 7.98701L24.415 15.1987L32.5784 16.3587C33.3134 16.462 33.5984 17.4187 33.0484 17.942L27.1784 23.5353L28.5617 31.4187C28.6917 32.157 27.9617 32.7353 27.3184 32.4053L20 28.6453L12.685 32.4053H12.6867Z" fill="#FFAA00"/>
</g>
<defs>
<clipPath id="clip0_1207_2945">
<rect width="26.6667" height="26.6667" fill="white" transform="translate(6.66675 6.66699)"/>
</clipPath>
</defs>
</svg>
