<svg width="16" height="20" viewBox="0 0 16 20" fill="none" xmlns="http://www.w3.org/2000/svg">
<g clip-path="url(#clip0_1197_2735)">
<path d="M11.8994 0L7.99993 1.98133L4.10596 0L7.99993 7.49895L11.8994 0Z" fill="#FDB913"/>
<path d="M13.2626 5.79352L13.202 5.74336L15.9834 4.5618V0.618652L11.1669 2.68915C11.1669 2.68915 8.54795 7.70518 8.49012 7.81943C9.5197 7.94239 10.4639 8.4588 11.1297 9.26301C11.7954 10.0672 12.1323 11.0984 12.0714 12.1457C12.0105 13.1929 11.5565 14.1771 10.8022 14.8968C10.048 15.6165 9.05042 16.0174 8.0137 16.0174C6.97698 16.0174 5.97944 15.6165 5.22515 14.8968C4.47087 14.1771 4.01686 13.1929 3.956 12.1457C3.89514 11.0984 4.23203 10.0672 4.89775 9.26301C5.56347 8.4588 6.50771 7.94239 7.53728 7.81943L4.86602 2.68915L0.024716 0.618652V4.57574L2.80338 5.75729L2.74279 5.80745C1.51573 6.89096 0.644684 8.32762 0.246052 9.92545C-0.15258 11.5233 -0.0598129 13.2061 0.511963 14.7492C1.08374 16.2922 2.10729 17.622 3.44582 18.5607C4.78436 19.4993 6.37413 20.0023 8.00268 20.0023C9.63124 20.0023 11.221 19.4993 12.5595 18.5607C13.8981 17.622 14.9216 16.2922 15.4934 14.7492C16.0652 13.2061 16.158 11.5233 15.7593 9.92545C15.3607 8.32762 14.4896 6.89096 13.2626 5.80745V5.79352Z" fill="#FDB913"/>
</g>
<defs>
<clipPath id="clip0_1197_2735">
<rect width="16" height="20" fill="white"/>
</clipPath>
</defs>
</svg>
