<svg width="20" height="10" viewBox="0 0 20 10" fill="none" xmlns="http://www.w3.org/2000/svg">
<path d="M3.5487 3.54883H0V9.99838H3.5487V3.54883Z" fill="#00C4A6"/>
<mask id="mask0_1197_2840" style="mask-type:luminance" maskUnits="userSpaceOnUse" x="3" y="0" width="11" height="10">
<path d="M3.54858 3.5487C5.25854 3.55056 6.89793 4.23066 8.10705 5.43979C9.31617 6.64891 9.99628 8.2883 9.99814 9.99825H13.5468C13.5468 8.68527 13.2882 7.38513 12.7858 6.17209C12.2833 4.95904 11.5468 3.85684 10.6184 2.92842C9.68999 2 8.58779 1.26353 7.37475 0.761071C6.1617 0.258612 4.86157 0 3.54858 0V3.5487Z" fill="white"/>
</mask>
<g mask="url(#mask0_1197_2840)">
<path d="M13.5468 0.000976562H3.54858V9.99923H13.5468V0.000976562Z" fill="url(#paint0_linear_1197_2840)"/>
</g>
<path d="M20.0001 6.18643e-07V3.5487C18.2901 3.55056 16.6507 4.23066 15.4416 5.43979C14.2325 6.64891 13.5524 8.2883 13.5505 9.99826H9.99829C9.99829 8.68497 10.257 7.38455 10.7597 6.17127C11.2624 4.958 11.9992 3.85565 12.928 2.92718C13.8567 1.99871 14.9594 1.26232 16.1728 0.760063C17.3863 0.257811 18.6868 -0.00046135 20.0001 6.18643e-07Z" fill="#00C4A6"/>
<defs>
<linearGradient id="paint0_linear_1197_2840" x1="3.57456" y1="5.16339" x2="13.5616" y2="5.16339" gradientUnits="userSpaceOnUse">
<stop stop-color="#00C4A6"/>
<stop offset="0.11" stop-color="#0FC7A1"/>
<stop offset="0.31" stop-color="#38CE94"/>
<stop offset="0.6" stop-color="#78DB7F"/>
<stop offset="0.95" stop-color="#D1EB63"/>
<stop offset="1" stop-color="#DFEE5E"/>
</linearGradient>
</defs>
</svg>
