<svg width="20" height="18" viewBox="0 0 20 18" fill="none" xmlns="http://www.w3.org/2000/svg">
<path d="M3.51643 4.04395C3.12386 4.82158 3.52488 6.42663 4.01889 7.19957L10.8194 17.8751H5.85122C5.06701 17.8751 4.29877 17.4272 3.96348 16.9097L0.254677 11.0868C-0.0937559 10.543 -0.0759117 9.67804 0.254677 9.1568L3.51643 4.04395Z" fill="url(#paint0_radial_1197_2722)"/>
<path d="M6.38843 9.30338C6.20811 9.58513 6.04188 10.2595 6.31705 10.8061L4.01984 7.20057C3.52584 6.42763 3.12481 4.82259 3.51739 4.04495L3.92686 3.40443C4.29502 2.82027 4.98155 2.43896 5.84747 2.43896H10.7312L6.38843 9.30338Z" fill="url(#paint1_radial_1197_2722)"/>
<path d="M16.4827 13.8312C16.8743 13.0526 16.4752 11.4476 15.9812 10.6756L9.17969 0H14.1489C14.9331 0 15.7013 0.447047 16.0366 0.964531L19.7454 6.7874C20.0938 7.33118 20.076 8.19616 19.7454 8.71834L16.4827 13.8312Z" fill="url(#paint2_radial_1197_2722)"/>
<path d="M13.6125 8.57104C13.7938 8.28928 13.9581 7.6159 13.6839 7.06836L15.9811 10.6748C16.4751 11.4468 16.8743 13.0518 16.4826 13.8304L16.075 14.47C15.7059 15.0551 15.0194 15.4364 14.1535 15.4364H9.26978L13.6125 8.57104Z" fill="url(#paint3_radial_1197_2722)"/>
<defs>
<radialGradient id="paint0_radial_1197_2722" cx="0" cy="0" r="1" gradientUnits="userSpaceOnUse" gradientTransform="translate(0.158281 7.77411) rotate(-90) scale(13.1925 14.4489)">
<stop stop-color="#D3E6F6"/>
<stop offset="0.07" stop-color="#CBE2F5"/>
<stop offset="0.17" stop-color="#B5D6F1"/>
<stop offset="0.25" stop-color="#A1CBED"/>
<stop offset="0.34" stop-color="#8FBCE4"/>
<stop offset="0.53" stop-color="#5F95CB"/>
<stop offset="0.7" stop-color="#2F6EB3"/>
<stop offset="0.82" stop-color="#205CA2"/>
<stop offset="1" stop-color="#00367F"/>
</radialGradient>
<radialGradient id="paint1_radial_1197_2722" cx="0" cy="0" r="1" gradientUnits="userSpaceOnUse" gradientTransform="translate(11.3981 2.41863) scale(9.27667 9.27668)">
<stop stop-color="#D3E6F6"/>
<stop offset="0.07" stop-color="#CBE2F5"/>
<stop offset="0.17" stop-color="#B5D6F1"/>
<stop offset="0.25" stop-color="#A1CBED"/>
<stop offset="0.34" stop-color="#8FBCE4"/>
<stop offset="0.53" stop-color="#5F95CB"/>
<stop offset="0.7" stop-color="#2F6EB3"/>
<stop offset="0.82" stop-color="#205CA2"/>
<stop offset="1" stop-color="#00367F"/>
</radialGradient>
<radialGradient id="paint2_radial_1197_2722" cx="0" cy="0" r="1" gradientUnits="userSpaceOnUse" gradientTransform="translate(19.8413 10.0275) rotate(90) scale(13.1917 14.448)">
<stop stop-color="#D3E6F6"/>
<stop offset="0.07" stop-color="#CBE2F5"/>
<stop offset="0.17" stop-color="#B5D6F1"/>
<stop offset="0.25" stop-color="#A1CBED"/>
<stop offset="0.34" stop-color="#8FBCE4"/>
<stop offset="0.53" stop-color="#5F95CB"/>
<stop offset="0.7" stop-color="#2F6EB3"/>
<stop offset="0.82" stop-color="#205CA2"/>
<stop offset="1" stop-color="#00367F"/>
</radialGradient>
<radialGradient id="paint3_radial_1197_2722" cx="0" cy="0" r="1" gradientUnits="userSpaceOnUse" gradientTransform="translate(9.06161 15.4394) rotate(180) scale(9.27836 9.27837)">
<stop stop-color="#D3E6F6"/>
<stop offset="0.07" stop-color="#CBE2F5"/>
<stop offset="0.17" stop-color="#B5D6F1"/>
<stop offset="0.25" stop-color="#A1CBED"/>
<stop offset="0.34" stop-color="#8FBCE4"/>
<stop offset="0.53" stop-color="#5F95CB"/>
<stop offset="0.7" stop-color="#2F6EB3"/>
<stop offset="0.82" stop-color="#205CA2"/>
<stop offset="1" stop-color="#00367F"/>
</radialGradient>
</defs>
</svg>
