<svg width="20" height="12" viewBox="0 0 20 12" fill="none" xmlns="http://www.w3.org/2000/svg">
<g clip-path="url(#clip0_1197_2814)">
<path fill-rule="evenodd" clip-rule="evenodd" d="M17.5797 3.13876C16.9335 2.16929 16.075 1.37792 15.0768 0.831576C14.0786 0.285234 12.9701 0 11.8451 0C10.7201 0 9.61157 0.285234 8.6134 0.831576C7.61522 1.37792 6.75673 2.16929 6.11055 3.13876L6.04346 3.24037H7.70326L7.72209 3.2193C8.25123 2.62656 8.89009 2.15418 9.59929 1.83128C10.3085 1.50837 11.073 1.34178 11.8457 1.34178C12.6184 1.34178 13.3829 1.50837 14.0921 1.83128C14.8013 2.15418 15.4402 2.62656 15.9693 3.2193L15.987 3.24037H17.6468L17.5797 3.13876Z" fill="#E60012"/>
<path d="M5.38441 9.6776L5.35381 9.71106C4.84292 10.2575 4.25316 10.5475 3.64574 10.5475C2.37676 10.5475 1.45504 9.54501 1.45504 8.16335C1.45504 6.78169 2.37676 5.7755 3.64574 5.7755C4.25316 5.7755 4.84292 6.06546 5.35381 6.61317L5.38441 6.64663L6.20019 5.60821L6.179 5.57971C5.49978 4.73585 4.68518 4.32568 3.68459 4.32568C2.684 4.32568 1.76111 4.68132 1.09483 5.31701C0.375585 6.01218 -0.00463867 6.99235 -0.00463867 8.15468C-0.00463867 9.31701 0.375585 10.2972 1.09483 10.9924C1.7564 11.6367 2.67458 11.9911 3.68459 11.9911C4.6946 11.9911 5.49978 11.5797 6.179 10.7358L6.20019 10.7086L5.38441 9.6776Z" fill="#004187"/>
<path d="M8.46624 4.44971H7.02539V11.8586H8.46624V4.44971Z" fill="#004187"/>
<path d="M14.1153 10.2461C13.801 10.4694 13.4347 10.5979 13.0559 10.6178C12.585 10.6178 12.379 10.3588 12.379 9.78262V5.85078H13.8481V4.45549H12.3743V2.14941L10.9617 2.94619V4.45549H9.74219V5.85078H10.9617V10.0329C10.9617 11.1717 11.6033 11.9511 12.5603 11.971C13.0094 11.9942 13.4549 11.876 13.8399 11.6314L13.854 11.6203L14.2013 10.1928L14.1153 10.2461Z" fill="#004187"/>
<path d="M16.7511 4.44971H15.3091V11.8586H16.7511V4.44971Z" fill="#004187"/>
<path d="M19.8763 3.52841C19.8763 3.66252 19.8385 3.79362 19.7677 3.90511C19.6969 4.0166 19.5962 4.10348 19.4785 4.15475C19.3608 4.20601 19.2312 4.21936 19.1063 4.19311C18.9814 4.16686 18.8666 4.10217 18.7766 4.00726C18.6866 3.91234 18.6254 3.79145 18.6007 3.65988C18.576 3.52832 18.5889 3.39199 18.6378 3.26816C18.6867 3.14432 18.7694 3.03855 18.8755 2.96422C18.9815 2.88989 19.1061 2.85034 19.2335 2.85059C19.3185 2.8489 19.4029 2.86529 19.4817 2.89877C19.5604 2.93225 19.632 2.98214 19.692 3.04543C19.752 3.10873 19.7993 3.18414 19.8309 3.26713C19.8626 3.35012 19.878 3.43899 19.8763 3.52841V3.52841ZM19.9999 3.52841C20.0001 3.36851 19.9553 3.21213 19.871 3.07908C19.7868 2.94603 19.6669 2.84228 19.5266 2.78097C19.3863 2.71967 19.2319 2.70357 19.0829 2.7347C18.9339 2.76584 18.7971 2.84281 18.6896 2.95587C18.5822 3.06894 18.5091 3.21301 18.4795 3.36985C18.45 3.52669 18.4653 3.68924 18.5235 3.83692C18.5817 3.9846 18.6803 4.11077 18.8067 4.19945C18.9331 4.28813 19.0816 4.33534 19.2335 4.3351C19.3347 4.33712 19.4352 4.31763 19.529 4.27781C19.6229 4.23798 19.7081 4.17863 19.7797 4.10332C19.8512 4.02801 19.9076 3.93827 19.9454 3.83949C19.9833 3.7407 20.0018 3.6349 19.9999 3.52841V3.52841ZM19.5831 3.33757C19.5844 3.30045 19.578 3.26349 19.5644 3.2292C19.5509 3.19492 19.5304 3.16413 19.5045 3.13895C19.4785 3.11376 19.4477 3.09477 19.4142 3.08329C19.3806 3.0718 19.3451 3.06809 19.31 3.0724H18.9428V3.9522H19.084V3.61267H19.2453L19.4089 3.9522H19.5773L19.4054 3.59656C19.4593 3.5824 19.5067 3.54864 19.5392 3.50125C19.5717 3.45385 19.5873 3.39588 19.5831 3.33757V3.33757ZM19.4395 3.33757C19.4395 3.42555 19.3819 3.46149 19.3053 3.46149H19.084V3.21366H19.3053C19.3221 3.21116 19.3392 3.21251 19.3555 3.21761C19.3717 3.2227 19.3867 3.23143 19.3995 3.2432C19.4122 3.25497 19.4224 3.26949 19.4293 3.28578C19.4362 3.30207 19.4397 3.31973 19.4395 3.33757Z" fill="#004187"/>
</g>
<defs>
<clipPath id="clip0_1197_2814">
<rect width="20" height="12" fill="white"/>
</clipPath>
</defs>
</svg>
