<svg width="20" height="20" viewBox="0 0 20 20" fill="none" xmlns="http://www.w3.org/2000/svg">
<path d="M10.0985 7.63853C11.3346 6.09024 13.1297 5.77097 14.4327 6.51793C16.4315 7.66451 16.3809 11.7308 13.6533 14.2661C12.9777 14.8947 10.4815 16.8869 6.92687 16.0749C3.33546 15.2543 0.839888 12.1112 0.574898 8.69447L0.575702 8.69415C0.461261 7.60081 0.693681 6.36376 1.24304 5.17102C0.447509 6.61146 -0.00494539 8.26703 4.0781e-05 10.0292C0.016286 15.5521 4.50617 20.016 10.0292 20C15.5523 19.9839 20.016 15.4938 20 9.97101C19.9998 9.93417 19.9973 9.89734 19.9967 9.86051C19.6965 7.07364 18.1379 5.15847 15.1789 4.99972C15.0912 4.99506 15.0024 4.99264 14.9126 4.99264C13.3639 4.99264 11.5088 5.70462 10.0985 7.63853Z" fill="url(#paint0_linear_1197_2848)"/>
<path d="M9.97088 6.76242e-05C6.20986 0.0111659 2.94151 2.09788 1.24292 5.1712C0.693552 6.36394 0.461133 7.601 0.575573 8.69433C0.740036 10.2601 1.61808 11.5321 3.30791 11.9534C5.75411 12.5645 7.68721 11.1848 9.93959 7.86438C9.99163 7.78725 10.0447 7.71246 10.0983 7.63871C11.5905 5.59262 13.5804 4.91433 15.1788 4.9999C18.1377 5.15866 19.6964 7.07383 19.9966 9.86069C19.9213 4.39947 15.4724 0.000308321 10.0006 -1.33673e-05C9.9905 -1.33673e-05 9.98093 6.76242e-05 9.97088 6.76242e-05Z" fill="url(#paint1_linear_1197_2848)"/>
<path d="M10.0985 7.63861C10.0449 7.71236 9.99181 7.78715 9.93977 7.86428C7.68739 11.1847 5.75429 12.5644 3.30809 11.9533C1.61827 11.532 0.740218 10.26 0.575755 8.69423L0.574951 8.69455C0.839942 12.1113 3.33552 15.2544 6.92692 16.075C10.4816 16.887 12.9778 14.8948 13.6533 14.2662C16.3809 11.7309 16.4315 7.66459 14.4327 6.51801C13.9879 6.26299 13.4857 6.13223 12.9681 6.13223C11.9693 6.13223 10.9127 6.61886 10.0985 7.63861Z" fill="url(#paint2_linear_1197_2848)"/>
<defs>
<linearGradient id="paint0_linear_1197_2848" x1="16.1833" y1="4.05367" x2="3.08633" y2="17.2276" gradientUnits="userSpaceOnUse">
<stop stop-color="white"/>
<stop offset="0.1" stop-color="white"/>
<stop offset="0.763267" stop-color="#00A9DE"/>
<stop offset="1" stop-color="#00A9DE"/>
</linearGradient>
<linearGradient id="paint1_linear_1197_2848" x1="6.99844" y1="14.0131" x2="13.661" y2="2.05946" gradientUnits="userSpaceOnUse">
<stop stop-color="white"/>
<stop offset="1" stop-color="#00A9DE"/>
</linearGradient>
<linearGradient id="paint2_linear_1197_2848" x1="3.85225" y1="14.7653" x2="13.2144" y2="5.34824" gradientUnits="userSpaceOnUse">
<stop stop-color="white"/>
<stop offset="0.05" stop-color="white"/>
<stop offset="0.538844" stop-color="#00A9DE"/>
<stop offset="1" stop-color="#00A9DE"/>
</linearGradient>
</defs>
</svg>
