<svg width="0" height="0" fill="none" style="visibility: hidden; position: absolute;" aria-hidden="true">
    <symbol id="category_1" width="60" height="60" viewBox="0 0 60 60" fill="none" xmlns="http://www.w3.org/2000/svg">
        <path d="M60 13.9965C60 11.7927 58.207 9.99981 55.997 9.99981H4.00046C1.79046 9.99981 0 11.7927 0 13.9965V46.0073C0 48.2111 1.79046 50.0039 4.00046 50.0039H55.997C58.207 50.0039 60 48.2111 60 46.0073V13.9965Z" fill="#D1C9B4"/>
        <path d="M0 21.0928H60V14.4067H0V21.0928Z" fill="#7C6A51"/>
        <path d="M2.60217 29.0991H41.0325V23.708H2.60217V29.0991Z" fill="white"/>
        <path d="M45.3553 29.0991H55.8662V23.708H45.3553V29.0991Z" fill="white"/>
    </symbol>
    <symbol id="category_2" width="60" height="60" viewBox="0 0 60 60" fill="none" xmlns="http://www.w3.org/2000/svg">
        <path d="M59.0096 17.0057H15.1223L12.1353 12.2728H2.13755C0.961896 12.2728 0 13.2424 0 14.4232V15.22C0 16.4009 0.961896 17.3609 2.13755 17.3609H8.6571C8.50147 17.6009 8.51459 17.9273 8.72835 18.2921L20.0311 37.1374C20.4493 37.8478 21.4711 38.4238 22.2962 38.4238H48.995C49.8256 38.4238 50.7782 37.819 51.1325 37.0702L59.8703 18.3689C60.2209 17.6201 59.8365 17.0057 59.0096 17.0057Z" fill="#FDB813"/>
        <path d="M39.5991 27.7675V27.4411C39.5991 26.6155 38.9241 25.9435 38.099 25.9435H37.5291C36.704 25.9435 36.0271 26.6155 36.0271 27.4411V27.7675C36.0271 28.5931 36.704 29.2748 37.5291 29.2748H38.099C38.9241 29.2748 39.5991 28.5931 39.5991 27.7675ZM29.8807 31.4732H29.3126C28.4876 31.4732 27.8107 32.1453 27.8107 32.9709V33.2973C27.8107 34.1229 28.4876 34.7949 29.3126 34.7949H29.8807C30.7058 34.7949 31.3827 34.1229 31.3827 33.2973V32.9709C31.3827 32.1453 30.7058 31.4732 29.8807 31.4732ZM34.1465 27.7675V27.4411C34.1465 26.6155 33.4771 25.9435 32.6483 25.9435H32.0802C31.2495 25.9435 30.5801 26.6155 30.5801 27.4411V27.7675C30.5801 28.5931 31.2495 29.2748 32.0802 29.2748H32.6483C33.4771 29.2748 34.1465 28.5931 34.1465 27.7675ZM35.3334 31.4732H34.7633C33.9402 31.4732 33.267 32.1453 33.267 32.9709V33.2973C33.267 34.1229 33.9402 34.7949 34.7633 34.7949H35.3334C36.1584 34.7949 36.8353 34.1229 36.8353 33.2973V32.9709C36.8353 32.1453 36.1584 31.4732 35.3334 31.4732ZM40.7879 31.4732H40.2122C39.391 31.4732 38.7179 32.1453 38.7179 32.9709V33.2973C38.7179 34.1229 39.391 34.7949 40.2122 34.7949H40.7879C41.6129 34.7949 42.2898 34.1229 42.2898 33.2973V32.9709C42.2898 32.1453 41.6129 31.4732 40.7879 31.4732ZM51.6875 20.6633H51.1194C50.2925 20.6633 49.6175 21.345 49.6175 22.1706V22.497C49.6175 23.3226 50.2925 23.9946 51.1194 23.9946H51.6875C52.5125 23.9946 53.1895 23.3226 53.1895 22.497V22.1706C53.1895 21.345 52.5125 20.6633 51.6875 20.6633ZM49.0043 25.9435H48.4362C47.6093 25.9435 46.9343 26.6155 46.9343 27.4411V27.7675C46.9343 28.5931 47.6093 29.2748 48.4362 29.2748H49.0043C49.8294 29.2748 50.4988 28.5931 50.4988 27.7675V27.4411C50.4988 26.6155 49.8294 25.9435 49.0043 25.9435ZM45.0536 27.7675V27.4411C45.0536 26.6155 44.3786 25.9435 43.5536 25.9435H42.9835C42.1586 25.9435 41.4817 26.6155 41.4817 27.4411V27.7675C41.4817 28.5931 42.1586 29.2748 42.9835 29.2748H43.5536C44.3786 29.2748 45.0536 28.5931 45.0536 27.7675ZM46.2349 31.4732H45.6631C44.838 31.4732 44.1686 32.1453 44.1686 32.9709V33.2973C44.1686 34.1229 44.838 34.7949 45.6631 34.7949H46.2349C47.0636 34.7949 47.735 34.1229 47.735 33.2973V32.9709C47.735 32.1453 47.0636 31.4732 46.2349 31.4732ZM24.4281 31.4732H23.8619C23.0406 31.4732 22.3599 32.1453 22.3599 32.9709V33.2973C22.3599 34.1229 23.0406 34.7949 23.8619 34.7949H24.4281C25.2531 34.7949 25.9319 34.1229 25.9319 33.2973V32.9709C25.9319 32.1453 25.2531 31.4732 24.4281 31.4732ZM29.3126 23.9946H29.8807C30.7058 23.9946 31.3827 23.3226 31.3827 22.497V22.1706C31.3827 21.345 30.7058 20.6633 29.8807 20.6633H29.3126C28.4876 20.6633 27.8107 21.345 27.8107 22.1706V22.497C27.8107 23.3226 28.4876 23.9946 29.3126 23.9946ZM34.7633 23.9946H35.3334C36.1584 23.9946 36.8353 23.3226 36.8353 22.497V22.1706C36.8353 21.345 36.1584 20.6633 35.3334 20.6633H34.7633C33.9402 20.6633 33.267 21.345 33.267 22.1706V22.497C33.267 23.3226 33.9402 23.9946 34.7633 23.9946ZM40.2122 23.9946H40.7879C41.6129 23.9946 42.2898 23.3226 42.2898 22.497V22.1706C42.2898 21.345 41.6129 20.6633 40.7879 20.6633H40.2122C39.391 20.6633 38.7179 21.345 38.7179 22.1706V22.497C38.7179 23.3226 39.391 23.9946 40.2122 23.9946ZM45.6631 23.9946H46.2349C47.0636 23.9946 47.735 23.3226 47.735 22.497V22.1706C47.735 21.345 47.0636 20.6633 46.2349 20.6633H45.6631C44.838 20.6633 44.1686 21.345 44.1686 22.1706V22.497C44.1686 23.3226 44.838 23.9946 45.6631 23.9946ZM23.8619 23.9946H24.4281C25.2531 23.9946 25.9319 23.3226 25.9319 22.497V22.1706C25.9319 21.345 25.2531 20.6633 24.4281 20.6633H23.8619C23.0406 20.6633 22.3599 21.345 22.3599 22.1706V22.497C22.3599 23.3226 23.0406 23.9946 23.8619 23.9946ZM28.6957 27.7675V27.4411C28.6957 26.6155 28.0244 25.9435 27.1976 25.9435H26.6275C25.8026 25.9435 25.1294 26.6155 25.1294 27.4411V27.7675C25.1294 28.5931 25.8026 29.2748 26.6275 29.2748H27.1976C28.0244 29.2748 28.6957 28.5931 28.6957 27.7675ZM23.2468 27.7675V27.4411C23.2468 26.6155 22.568 25.9435 21.7467 25.9435H21.1749C20.3499 25.9435 19.673 26.6155 19.673 27.4411V27.7675C19.673 28.5931 20.3499 29.2748 21.1749 29.2748H21.7467C22.568 29.2748 23.2468 28.5931 23.2468 27.7675ZM20.4737 22.497V22.1706C20.4737 21.345 19.8005 20.6633 18.9792 20.6633H18.411C17.5842 20.6633 16.9092 21.345 16.9092 22.1706V22.497C16.9092 23.3226 17.5842 23.9946 18.411 23.9946H18.9792C19.8005 23.9946 20.4737 23.3226 20.4737 22.497Z" fill="#BC7708"/>
        <path d="M46.2669 40.92C44.3899 40.92 42.8673 42.4464 42.8673 44.3185C42.8673 46.2001 44.3899 47.7266 46.2669 47.7266C48.1456 47.7266 49.6701 46.2001 49.6701 44.3185C49.6701 42.4464 48.1456 40.92 46.2669 40.92ZM26.6051 40.92C24.7226 40.92 23.2037 42.4464 23.2037 44.3185C23.2037 46.2001 24.7226 47.7266 26.6051 47.7266C28.4839 47.7266 30.0065 46.2001 30.0065 44.3185C30.0065 42.4464 28.4839 40.92 26.6051 40.92Z" fill="#7C6A51"/>
    </symbol>
    <symbol id="category_3" width="60" height="60" viewBox="0 0 60 60" fill="none" xmlns="http://www.w3.org/2000/svg">
        <path d="M26.6091 10.5742C26.246 11.3785 25.8738 12.2172 25.6876 13.2742C25.2154 16.0086 25.1741 19.777 26.4654 22.1437C26.624 22.431 26.9227 22.5918 27.2306 22.5918C27.3708 22.5918 27.5121 22.5573 27.6477 22.4884C28.0705 22.2586 28.2233 21.7187 27.9912 21.3051C26.9147 19.3289 26.9997 15.9052 27.3995 13.5729C27.5477 12.7227 27.8625 12.0219 28.1969 11.2866C28.5507 10.4938 28.9195 9.6781 29.0873 8.67856C29.5755 5.9097 28.5048 3.1064 27.2743 0.49839C27.0686 0.0618067 26.5505 -0.122029 26.1162 0.0847736C25.6807 0.291576 25.4946 0.808583 25.6991 1.23368C26.4459 2.81917 27.8338 5.77183 27.3708 8.39133C27.2409 9.17258 26.9342 9.85044 26.6091 10.5742Z" fill="#D1C9B4"/>
        <path d="M20.3338 15.6982C20.6578 16.1233 20.9622 16.514 21.0967 16.9391C21.5309 18.3522 21.5826 20.2364 20.7198 21.2475C20.4096 21.6151 20.4533 22.1666 20.8198 22.4768C20.9841 22.6146 21.1851 22.6836 21.3839 22.6836C21.6275 22.6836 21.8733 22.5802 22.0468 22.3734C23.4243 20.7534 23.3186 18.2488 22.758 16.4221C22.5293 15.6983 22.095 15.1353 21.7148 14.6413C21.3988 14.2277 21.1024 13.8485 20.9829 13.4464C20.5716 12.1136 21.8136 10.3903 22.4811 9.4597C22.7603 9.06907 22.6707 8.51758 22.2823 8.24185C21.8929 7.96611 21.3483 8.04655 21.0691 8.43718C20.2246 9.62055 18.6541 11.8034 19.3193 13.9634C19.5376 14.6642 19.9592 15.2157 20.3338 15.6982Z" fill="#D1C9B4"/>
        <path d="M32.4534 15.4803C32.8785 15.9169 33.2772 16.342 33.4461 16.7785C33.9263 18.0883 34.0722 19.9955 32.882 21.0869C32.5293 21.4086 32.504 21.9601 32.8268 22.3163C33.0003 22.5001 33.2336 22.6035 33.4691 22.6035C33.6793 22.6035 33.8896 22.5231 34.055 22.3737C35.8829 20.6963 35.783 18.0768 35.0741 16.1582C34.7742 15.3884 34.209 14.8025 33.7104 14.274C33.3105 13.8604 32.9325 13.4582 32.7809 13.0676C32.2811 11.7579 33.9746 9.95407 34.7915 9.09239C35.1224 8.74772 35.1063 8.19628 34.7558 7.8631C34.4089 7.52991 33.8574 7.55287 33.5277 7.89754C32.3868 9.10389 30.2659 11.3557 31.1563 13.688C31.4309 14.4118 31.9525 14.9518 32.4534 15.4803Z" fill="#D1C9B4"/>
        <path d="M45.589 31.4267C41.1576 31.4267 37.5547 34.5402 37.5547 38.3776C37.5547 42.2034 41.1576 45.3284 45.589 45.3284C50.0203 45.3284 53.6255 42.2034 53.6255 38.3776C53.6255 34.5402 50.0203 31.4267 45.589 31.4267ZM45.589 48.5684C39.3734 48.5684 34.3159 43.9957 34.3159 38.3776C34.3159 32.7594 39.3734 28.1868 45.589 28.1868C51.8057 28.1868 56.8632 32.7594 56.8632 38.3776C56.8632 43.9957 51.8057 48.5684 45.589 48.5684Z" fill="#D64C21"/>
        <path d="M46.7917 25.9124V41.4111C46.7917 48.1322 41.2839 53.647 34.5525 53.647H20.8058C14.0744 53.647 8.56885 48.1322 8.56885 41.4111V25.9124H46.7917Z" fill="#F15A22"/>
        <path d="M3.13684 51.7164C7.01095 56.5648 16.5342 60 27.6774 60C38.8218 60 48.3462 56.5648 52.2226 51.7164H3.13684Z" fill="#7C6A51"/>
    </symbol>
    <symbol id="category_4" width="60" height="60" viewBox="0 0 60 60" fill="none" xmlns="http://www.w3.org/2000/svg">
        <path d="M57.1674 49.1438C57.1674 51.1194 55.5434 52.7422 53.5608 52.7422H6.08927C4.10663 52.7422 2.48267 51.1194 2.48267 49.1438V45.4749C2.48267 43.4993 4.10663 41.8647 6.08927 41.8647H53.5608C55.5434 41.8647 57.1674 43.4993 57.1674 45.4749V49.1438Z" fill="#F6C37A"/>
        <path d="M57.1708 47.0044H2.48486V43.2532H57.1708V47.0044Z" fill="#BF392C"/>
        <path d="M60 41.5825C60 43.2994 58.5077 44.6987 56.6791 44.6987H3.32085C1.49227 44.6987 0 43.2994 0 41.5825V40.6417C0 38.9249 1.49227 37.5255 3.32085 37.5255H56.6791C58.5077 37.5255 60 38.9249 60 40.6417V41.5825Z" fill="#BB6F39"/>
        <path d="M4.41815 33.4691C7.58849 29.8707 12.9625 28.2362 17.5663 27.4953C23.9999 26.4605 30.1477 28.4478 36.4143 29.8707C39.032 30.4704 41.6084 31.082 44.259 31.5406C47.0977 32.0345 49.9835 31.6111 52.7646 32.058C55.3269 32.4695 55.8937 33.8219 56.704 35.9033C57.3648 37.6084 55.7138 40.1132 54.3133 41.8888C52.7552 43.8644 51.003 41.5008 49.7989 40.3366C48.0267 38.6197 48.2008 37.9847 45.7207 38.8432C43.4641 39.631 43.0031 42.4533 40.7418 43.1354C38.2852 43.888 36.6601 41.5361 34.9232 40.0661C33.1381 38.5609 30.5781 37.0322 28.1616 38.2905C26.1166 39.3606 26.2342 42.5356 23.419 42.1828C20.0981 41.7595 14.73 34.598 12.1935 40.0897C11.1434 42.3592 10.1262 43.0177 7.34623 42.4533C4.48399 41.8535 4.41815 39.243 3.80078 36.8323C3.59029 35.9974 3.12932 34.9273 4.41815 33.4691Z" fill="#A4C553"/>
        <path d="M56.1949 34.3975H3.80554V30.6462H56.1949V34.3975Z" fill="#FDB813"/>
        <path d="M56.1949 31.3994H3.80554V27.6599H56.1949V31.3994Z" fill="#EAA213"/>
        <path d="M58.1599 29.894C56.1302 17.0881 44.3155 7.25719 30.0008 7.25719C15.6873 7.25719 3.87025 17.0881 1.84058 29.894H58.1599Z" fill="#F6C37A"/>
        <path d="M13.6341 18.3346C13.6341 18.7932 13.2601 19.1694 12.798 19.1694C12.3358 19.1694 11.9607 18.7932 11.9607 18.3346C11.9607 17.8642 12.3358 17.4996 12.798 17.4996C13.2601 17.4996 13.6341 17.8642 13.6341 18.3346Z" fill="#C98A11"/>
        <path d="M9.02553 23.1563C9.02553 23.6267 8.65042 24.0029 8.18946 24.0029C7.72614 24.0029 7.35217 23.6267 7.35217 23.1563C7.35217 22.6977 7.72614 22.3214 8.18946 22.3214C8.65042 22.3214 9.02553 22.6977 9.02553 23.1563Z" fill="#C98A11"/>
        <path d="M28.064 16.8643C28.064 17.323 27.6888 17.6992 27.2279 17.6992C26.7646 17.6992 26.3906 17.323 26.3906 16.8643C26.3906 16.4057 26.7646 16.0294 27.2279 16.0294C27.6888 16.0294 28.064 16.4057 28.064 16.8643Z" fill="#C98A11"/>
        <path d="M19.7724 22.4737C19.7724 22.944 19.3996 23.3086 18.9363 23.3086C18.4741 23.3086 18.099 22.944 18.099 22.4737C18.099 22.015 18.4741 21.6387 18.9363 21.6387C19.3996 21.6387 19.7724 22.015 19.7724 22.4737Z" fill="#C98A11"/>
        <path d="M20.2334 13.8775C20.2334 14.3361 19.8595 14.7124 19.3973 14.7124C18.9328 14.7124 18.5601 14.3361 18.5601 13.8775C18.5601 13.4189 18.9328 13.0426 19.3973 13.0426C19.8595 13.0426 20.2334 13.4189 20.2334 13.8775Z" fill="#C98A11"/>
        <path d="M30.3675 25.4605C30.3675 25.9191 29.9923 26.2954 29.5314 26.2954C29.0681 26.2954 28.6941 25.9191 28.6941 25.4605C28.6941 25.0019 29.0681 24.6256 29.5314 24.6256C29.9923 24.6256 30.3675 25.0019 30.3675 25.4605Z" fill="#C98A11"/>
        <path d="M15.0133 26.2251C15.0133 26.6955 14.6405 27.0718 14.1772 27.0718C13.715 27.0718 13.3411 26.6955 13.3411 26.2251C13.3411 25.7665 13.715 25.3902 14.1772 25.3902C14.6405 25.3902 15.0133 25.7665 15.0133 26.2251Z" fill="#C98A11"/>
        <path d="M35.7393 19.3223C35.7393 19.7809 35.3653 20.1572 34.9043 20.1572C34.441 20.1572 34.0659 19.7809 34.0659 19.3223C34.0659 18.8637 34.441 18.4874 34.9043 18.4874C35.3653 18.4874 35.7393 18.8637 35.7393 19.3223Z" fill="#C98A11"/>
        <path d="M27.6736 9.57377C27.6736 10.0441 27.2996 10.4204 26.8375 10.4204C26.3742 10.4204 26.0002 10.0441 26.0002 9.57377C26.0002 9.11515 26.3742 8.73884 26.8375 8.73884C27.2996 8.73884 27.6736 9.11515 27.6736 9.57377Z" fill="#C98A11"/>
        <path d="M39.5777 12.96C39.5777 13.4186 39.2037 13.7949 38.7416 13.7949C38.2782 13.7949 37.9043 13.4186 37.9043 12.96C37.9043 12.4896 38.2782 12.1251 38.7416 12.1251C39.2037 12.1251 39.5777 12.4896 39.5777 12.96Z" fill="#C98A11"/>
        <path d="M33.438 11.8784C33.438 12.3488 33.064 12.7251 32.6019 12.7251C32.1386 12.7251 31.7646 12.3488 31.7646 11.8784C31.7646 11.4198 32.1386 11.0435 32.6019 11.0435C33.064 11.0435 33.438 11.4198 33.438 11.8784Z" fill="#C98A11"/>
        <path d="M44.3401 20.1694C44.3401 20.6398 43.965 21.0161 43.5052 21.0161C43.0407 21.0161 42.6667 20.6398 42.6667 20.1694C42.6667 19.7108 43.0407 19.3345 43.5052 19.3345C43.965 19.3345 44.3401 19.7108 44.3401 20.1694Z" fill="#C98A11"/>
        <path d="M45.4115 14.3365C45.4115 14.8068 45.0387 15.1831 44.5754 15.1831C44.1121 15.1831 43.7382 14.8068 43.7382 14.3365C43.7382 13.8778 44.1121 13.5015 44.5754 13.5015C45.0387 13.5015 45.4115 13.8778 45.4115 14.3365Z" fill="#C98A11"/>
        <path d="M54.0123 23.2378C54.0123 23.7081 53.6383 24.0845 53.1762 24.0845C52.7128 24.0845 52.3401 23.7081 52.3401 23.2378C52.3401 22.7792 52.7128 22.4028 53.1762 22.4028C53.6383 22.4028 54.0123 22.7792 54.0123 23.2378Z" fill="#C98A11"/>
        <path d="M42.7185 25.8487C42.7185 26.319 42.3458 26.6953 41.8824 26.6953C41.4191 26.6953 41.0452 26.319 41.0452 25.8487C41.0452 25.3901 41.4191 25.0137 41.8824 25.0137C42.3458 25.0137 42.7185 25.3901 42.7185 25.8487Z" fill="#C98A11"/>
        <path d="M49.0978 19.8634C49.0978 20.3337 48.7227 20.6982 48.2617 20.6982C47.7972 20.6982 47.4244 20.3337 47.4244 19.8634C47.4244 19.4048 47.7972 19.0284 48.2617 19.0284C48.7227 19.0284 49.0978 19.4048 49.0978 19.8634Z" fill="#C98A11"/>
    </symbol>
    <symbol id="category_5" width="60" height="60" viewBox="0 0 60 60" fill="none" xmlns="http://www.w3.org/2000/svg">
        <path d="M29.9984 15.086L10.3949 29.2352V52.5418C10.3949 55.504 12.8222 57.9399 15.7861 57.9399H24.5469V43.8206H35.4554V57.9399H44.2107C47.1746 57.9399 49.6019 55.504 49.6019 52.5418V29.2352L29.9984 15.086Z" fill="#FDB813"/>
        <path d="M58.8879 22.905L51.6683 17.7049C50.4664 16.8282 40.5772 9.69318 39.3758 8.83155L32.2588 3.69197C31.0602 2.83034 30.0579 2.10481 30.0494 2.08969L30.0104 2.05943H29.9891L29.9504 2.08969C29.9382 2.10481 28.943 2.83034 27.744 3.69197L1.11534 22.905C-0.0866591 23.7818 -0.36146 25.4747 0.508398 26.6689L1.51884 28.0899C2.10285 28.8911 3.0568 29.2388 3.98357 29.1481L29.9921 10.3735H29.995H30.0069L56.0197 29.1481C56.9456 29.2388 57.9005 28.8911 58.4776 28.0899L59.494 26.6689C60.3584 25.4747 60.0887 23.7818 58.8879 22.905Z" fill="#7C6A51"/>
        <path d="M49.4795 13.4444V4.87379C49.4795 3.39246 48.271 2.18324 46.7879 2.18324H44.2557C42.7733 2.18324 41.5645 3.39246 41.5645 4.87379V7.7155C41.5645 9.19684 40.577 9.71077 39.3755 8.84918L51.6681 17.707C50.4661 16.8454 49.4795 14.9257 49.4795 13.4444Z" fill="#7C6A51"/>
    </symbol>
    <symbol id="category_6" width="60" height="60" viewBox="0 0 60 60" fill="none" xmlns="http://www.w3.org/2000/svg">
        <path d="M49.3742 47.5989C47.2773 49.8456 43.8185 53.0189 39.6793 54.212C39.4825 54.2628 39.3149 54.3644 39.155 54.4659C38.5648 53.8693 37.7372 53.5012 36.8259 53.5012C35.0286 53.5012 33.5688 54.9482 33.5688 56.7379C33.5688 58.5403 35.0286 60 36.8259 60C38.2805 60 39.5003 59.0353 39.9191 57.7279L40.1755 57.7661C40.3393 57.7661 40.5106 57.7534 40.6731 57.7026C46.3862 56.0779 50.778 51.5846 53.587 48.3479C53.6225 48.3098 48.1848 47.2435 49.3742 47.5989Z" fill="#B7B19F"/>
        <path d="M30.007 -0.000236455C16.9398 -0.000236455 5.47852 10.8404 5.47852 23.187C5.47852 23.226 9.13843 23.3428 9.13843 23.187C9.13843 11.9829 20.1543 3.60896 30.007 3.60896C39.8584 3.60896 50.873 11.9829 50.873 23.187C50.873 23.3558 54.5329 23.226 54.5329 23.187C54.5329 10.8404 43.069 -0.000236455 30.007 -0.000236455Z" fill="#C1BAA7"/>
        <path d="M57.592 28.8484C57.0527 26.7298 56.2335 24.8422 55.1947 23.2885L50.7649 23.3784C50.7649 23.3784 49.1663 24.2901 49.0713 25.5613C48.9416 27.3332 48.0582 39.1845 47.6037 45.2964C47.4958 46.773 49.3872 48.2239 49.3872 48.2239L53.903 48.4294C54.9841 47.1326 55.7006 46.0026 56.4479 44.2307C57.3916 41.9709 58.0259 39.39 58.2326 36.6166C58.4432 33.856 58.1967 31.2109 57.592 28.8484ZM9.08617 23.7124C9.12212 23.5711 9.17601 23.2758 9.17601 23.2758H5.54613L5.57058 23.4042C4.90547 23.417 4.80269 23.6352 4.80269 23.6352C3.76136 25.2017 2.94218 27.0892 2.40289 29.1822C1.80455 31.5576 1.55803 34.2026 1.76603 36.9504C1.97019 39.7238 2.60322 42.3047 3.5521 44.5517C4.39056 46.5419 5.48583 48.2881 6.75057 49.6748H6.75829C6.75829 49.6748 7.6391 49.6106 8.22204 49.5721C8.78186 49.5207 9.14266 49.187 9.14266 48.622L9.25563 48.6476C11.2317 48.8916 12.5401 47.5819 12.395 45.6174C11.9405 39.5312 11.0533 27.667 10.9236 25.9207C10.826 24.5854 10.2097 23.8022 9.08617 23.7124Z" fill="#F15A22"/>
        <path d="M10.9236 25.9209C10.826 24.5856 10.2097 23.8024 9.08618 23.7125C9.12213 23.5713 9.17602 23.2759 9.17602 23.2759H8.2349C5.1366 34.2028 8.21819 46.1826 9.05151 49.0459C9.10544 48.9303 9.14267 48.7891 9.14267 48.6222L9.25565 48.6478C11.2317 48.8917 12.5402 47.5821 12.3951 45.6176C11.9405 39.5314 11.0533 27.6672 10.9236 25.9209Z" fill="#BF3D16"/>
        <path d="M49.0756 25.5453C48.9459 27.3172 48.0638 39.181 47.608 45.2799C47.5001 46.7564 49.3927 48.2201 49.3927 48.2201C49.3927 48.2201 49.878 48.2458 50.5264 48.2715C51.5664 44.4196 54.1562 33.2491 52.288 23.3368L50.7691 23.3626C50.7691 23.3626 49.1706 24.2742 49.0756 25.5453Z" fill="#BF3D16"/>
    </symbol>
    <symbol id="category_7" width="60" height="60" viewBox="0 0 60 60" fill="none" xmlns="http://www.w3.org/2000/svg">
        <path d="M53.1481 30.1507H6.85783C6.4162 30.1507 6.05737 30.5056 6.05737 30.9525V59.1059C6.05737 59.5528 6.4162 59.9077 6.85783 59.9077H53.1481C53.5924 59.9077 53.946 59.5528 53.946 59.1059V30.9525C53.946 30.5056 53.5924 30.1507 53.1481 30.1507Z" fill="#FAAB18"/>
        <path d="M53.1481 30.1516H6.85783C6.4162 30.1516 6.05737 30.5065 6.05737 30.9534V32.9512H53.946V30.9534C53.946 30.5065 53.5924 30.1516 53.1481 30.1516Z" fill="#E8940F"/>
        <path d="M57.1422 18.572H2.86058C2.4137 18.572 2.0575 18.9269 2.0575 19.3737V30.0333C2.0575 30.4801 2.4137 30.835 2.86058 30.835H57.1422C57.5838 30.835 57.9426 30.4801 57.9426 30.0333V19.3737C57.9426 18.9269 57.5838 18.572 57.1422 18.572Z" fill="#FDB813"/>
        <path d="M32.2458 15.7063C33.5627 10.5935 35.8655 4.95491 38.1407 4.95491C38.4719 4.95491 38.8149 5.05996 39.1935 5.30969C40.1477 5.91429 40.2765 6.47949 40.2909 6.84751C40.3816 9.43679 35.2294 13.4851 32.2458 15.7063ZM15.054 6.7293C14.5585 5.15207 14.983 3.94278 16.3999 2.97016C16.9388 2.589 17.4619 2.40501 18.0034 2.40501C21.7336 2.40501 26.1958 10.8958 28.5932 17.2572C23.8207 16.2452 16.4196 11.093 15.054 6.7293ZM40.4815 3.27244C39.7192 2.78612 38.928 2.53645 38.1407 2.53645C33.9229 2.53645 31.3454 9.63395 30.0718 14.4708C27.8387 9.05563 23.3108 -0.000235473 18.0034 -0.000235473C16.969 -0.000235473 15.9688 0.328354 15.029 0.985532C12.7539 2.56276 11.9508 4.86291 12.7591 7.45219C14.1274 11.829 20.0656 16.5607 25.2587 18.6899H32.2668C32.4337 18.5585 32.6138 18.4402 32.8004 18.2956C37.6583 14.7206 42.8277 10.5803 42.6975 6.7687C42.6607 5.79608 42.2507 4.40278 40.4815 3.27244Z" fill="#F15A22"/>
        <path d="M25.0117 18.5845V60H33.9914V18.5845H25.0117Z" fill="#F15A22"/>
    </symbol>
    <symbol id="category_8" width="60" height="60" viewBox="0 0 60 60" fill="none" xmlns="http://www.w3.org/2000/svg">
        <g clip-path="url(#clip0_1344_3017__category_8)">
            <path d="M58.942 1.06072C57.525 -0.358702 55.2353 -0.358702 53.8246 1.06072L38.663 16.2261L5.26805 8.00838L0 13.2751L27.4719 27.432L16.5313 38.3764L8.11555 37.5547L3.7465 41.9375L13.4483 46.5568L18.0689 56.2686L22.4392 51.8983L21.6324 43.4689L32.5769 32.5369L46.7226 60.0039L51.9893 54.7495L43.7778 21.3434L58.942 6.17805C60.3527 4.77108 60.3527 2.48014 58.942 1.06072Z" fill="#4BA7C4"/>
        </g>
        <defs>
            <clipPath id="clip0_1344_3017__category_8">
                <rect width="60" height="60" fill="white"/>
            </clipPath>
        </defs>
    </symbol>
</svg>