<svg width="60" height="60" viewBox="0 0 60 60" fill="none" xmlns="http://www.w3.org/2000/svg">
<path d="M49.3742 47.5989C47.2773 49.8456 43.8185 53.0189 39.6793 54.212C39.4825 54.2628 39.3149 54.3644 39.155 54.4659C38.5648 53.8693 37.7372 53.5012 36.8259 53.5012C35.0286 53.5012 33.5688 54.9482 33.5688 56.7379C33.5688 58.5403 35.0286 60 36.8259 60C38.2805 60 39.5003 59.0353 39.9191 57.7279L40.1755 57.7661C40.3393 57.7661 40.5106 57.7534 40.6731 57.7026C46.3862 56.0779 50.778 51.5846 53.587 48.3479C53.6225 48.3098 48.1848 47.2435 49.3742 47.5989Z" fill="#B7B19F"/>
<path d="M30.007 -0.000236455C16.9398 -0.000236455 5.47852 10.8404 5.47852 23.187C5.47852 23.226 9.13843 23.3428 9.13843 23.187C9.13843 11.9829 20.1543 3.60896 30.007 3.60896C39.8584 3.60896 50.873 11.9829 50.873 23.187C50.873 23.3558 54.5329 23.226 54.5329 23.187C54.5329 10.8404 43.069 -0.000236455 30.007 -0.000236455Z" fill="#C1BAA7"/>
<path d="M57.592 28.8484C57.0527 26.7298 56.2335 24.8422 55.1947 23.2885L50.7649 23.3784C50.7649 23.3784 49.1663 24.2901 49.0713 25.5613C48.9416 27.3332 48.0582 39.1845 47.6037 45.2964C47.4958 46.773 49.3872 48.2239 49.3872 48.2239L53.903 48.4294C54.9841 47.1326 55.7006 46.0026 56.4479 44.2307C57.3916 41.9709 58.0259 39.39 58.2326 36.6166C58.4432 33.856 58.1967 31.2109 57.592 28.8484ZM9.08617 23.7124C9.12212 23.5711 9.17601 23.2758 9.17601 23.2758H5.54613L5.57058 23.4042C4.90547 23.417 4.80269 23.6352 4.80269 23.6352C3.76136 25.2017 2.94218 27.0892 2.40289 29.1822C1.80455 31.5576 1.55803 34.2026 1.76603 36.9504C1.97019 39.7238 2.60322 42.3047 3.5521 44.5517C4.39056 46.5419 5.48583 48.2881 6.75057 49.6748H6.75829C6.75829 49.6748 7.6391 49.6106 8.22204 49.5721C8.78186 49.5207 9.14266 49.187 9.14266 48.622L9.25563 48.6476C11.2317 48.8916 12.5401 47.5819 12.395 45.6174C11.9405 39.5312 11.0533 27.667 10.9236 25.9207C10.826 24.5854 10.2097 23.8022 9.08617 23.7124Z" fill="#F15A22"/>
<path d="M10.9236 25.9209C10.826 24.5856 10.2097 23.8024 9.08618 23.7125C9.12213 23.5713 9.17602 23.2759 9.17602 23.2759H8.2349C5.1366 34.2028 8.21819 46.1826 9.05151 49.0459C9.10544 48.9303 9.14267 48.7891 9.14267 48.6222L9.25565 48.6478C11.2317 48.8917 12.5402 47.5821 12.3951 45.6176C11.9405 39.5314 11.0533 27.6672 10.9236 25.9209Z" fill="#BF3D16"/>
<path d="M49.0756 25.5453C48.9459 27.3172 48.0638 39.181 47.608 45.2799C47.5001 46.7564 49.3927 48.2201 49.3927 48.2201C49.3927 48.2201 49.878 48.2458 50.5264 48.2715C51.5664 44.4196 54.1562 33.2491 52.288 23.3368L50.7691 23.3626C50.7691 23.3626 49.1706 24.2742 49.0756 25.5453Z" fill="#BF3D16"/>
</svg>
