<svg width="60" height="60" viewBox="0 0 60 60" fill="none" xmlns="http://www.w3.org/2000/svg">
<path d="M26.6091 10.5742C26.246 11.3785 25.8738 12.2172 25.6876 13.2742C25.2154 16.0086 25.1741 19.777 26.4654 22.1437C26.624 22.431 26.9227 22.5918 27.2306 22.5918C27.3708 22.5918 27.5121 22.5573 27.6477 22.4884C28.0705 22.2586 28.2233 21.7187 27.9912 21.3051C26.9147 19.3289 26.9997 15.9052 27.3995 13.5729C27.5477 12.7227 27.8625 12.0219 28.1969 11.2866C28.5507 10.4938 28.9195 9.6781 29.0873 8.67856C29.5755 5.9097 28.5048 3.1064 27.2743 0.49839C27.0686 0.0618067 26.5505 -0.122029 26.1162 0.0847736C25.6807 0.291576 25.4946 0.808583 25.6991 1.23368C26.4459 2.81917 27.8338 5.77183 27.3708 8.39133C27.2409 9.17258 26.9342 9.85044 26.6091 10.5742Z" fill="#D1C9B4"/>
<path d="M20.3338 15.6982C20.6578 16.1233 20.9622 16.514 21.0967 16.9391C21.5309 18.3522 21.5826 20.2364 20.7198 21.2475C20.4096 21.6151 20.4533 22.1666 20.8198 22.4768C20.9841 22.6146 21.1851 22.6836 21.3839 22.6836C21.6275 22.6836 21.8733 22.5802 22.0468 22.3734C23.4243 20.7534 23.3186 18.2488 22.758 16.4221C22.5293 15.6983 22.095 15.1353 21.7148 14.6413C21.3988 14.2277 21.1024 13.8485 20.9829 13.4464C20.5716 12.1136 21.8136 10.3903 22.4811 9.4597C22.7603 9.06907 22.6707 8.51758 22.2823 8.24185C21.8929 7.96611 21.3483 8.04655 21.0691 8.43718C20.2246 9.62055 18.6541 11.8034 19.3193 13.9634C19.5376 14.6642 19.9592 15.2157 20.3338 15.6982Z" fill="#D1C9B4"/>
<path d="M32.4534 15.4803C32.8785 15.9169 33.2772 16.342 33.4461 16.7785C33.9263 18.0883 34.0722 19.9955 32.882 21.0869C32.5293 21.4086 32.504 21.9601 32.8268 22.3163C33.0003 22.5001 33.2336 22.6035 33.4691 22.6035C33.6793 22.6035 33.8896 22.5231 34.055 22.3737C35.8829 20.6963 35.783 18.0768 35.0741 16.1582C34.7742 15.3884 34.209 14.8025 33.7104 14.274C33.3105 13.8604 32.9325 13.4582 32.7809 13.0676C32.2811 11.7579 33.9746 9.95407 34.7915 9.09239C35.1224 8.74772 35.1063 8.19628 34.7558 7.8631C34.4089 7.52991 33.8574 7.55287 33.5277 7.89754C32.3868 9.10389 30.2659 11.3557 31.1563 13.688C31.4309 14.4118 31.9525 14.9518 32.4534 15.4803Z" fill="#D1C9B4"/>
<path d="M45.589 31.4267C41.1576 31.4267 37.5547 34.5402 37.5547 38.3776C37.5547 42.2034 41.1576 45.3284 45.589 45.3284C50.0203 45.3284 53.6255 42.2034 53.6255 38.3776C53.6255 34.5402 50.0203 31.4267 45.589 31.4267ZM45.589 48.5684C39.3734 48.5684 34.3159 43.9957 34.3159 38.3776C34.3159 32.7594 39.3734 28.1868 45.589 28.1868C51.8057 28.1868 56.8632 32.7594 56.8632 38.3776C56.8632 43.9957 51.8057 48.5684 45.589 48.5684Z" fill="#D64C21"/>
<path d="M46.7917 25.9124V41.4111C46.7917 48.1322 41.2839 53.647 34.5525 53.647H20.8058C14.0744 53.647 8.56885 48.1322 8.56885 41.4111V25.9124H46.7917Z" fill="#F15A22"/>
<path d="M3.13684 51.7164C7.01095 56.5648 16.5342 60 27.6774 60C38.8218 60 48.3462 56.5648 52.2226 51.7164H3.13684Z" fill="#7C6A51"/>
</svg>
