<svg width="60" height="60" viewBox="0 0 60 60" fill="none" xmlns="http://www.w3.org/2000/svg">
<path d="M57.1674 49.1438C57.1674 51.1194 55.5434 52.7422 53.5608 52.7422H6.08927C4.10663 52.7422 2.48267 51.1194 2.48267 49.1438V45.4749C2.48267 43.4993 4.10663 41.8647 6.08927 41.8647H53.5608C55.5434 41.8647 57.1674 43.4993 57.1674 45.4749V49.1438Z" fill="#F6C37A"/>
<path d="M57.1708 47.0044H2.48486V43.2532H57.1708V47.0044Z" fill="#BF392C"/>
<path d="M60 41.5825C60 43.2994 58.5077 44.6987 56.6791 44.6987H3.32085C1.49227 44.6987 0 43.2994 0 41.5825V40.6417C0 38.9249 1.49227 37.5255 3.32085 37.5255H56.6791C58.5077 37.5255 60 38.9249 60 40.6417V41.5825Z" fill="#BB6F39"/>
<path d="M4.41815 33.4691C7.58849 29.8707 12.9625 28.2362 17.5663 27.4953C23.9999 26.4605 30.1477 28.4478 36.4143 29.8707C39.032 30.4704 41.6084 31.082 44.259 31.5406C47.0977 32.0345 49.9835 31.6111 52.7646 32.058C55.3269 32.4695 55.8937 33.8219 56.704 35.9033C57.3648 37.6084 55.7138 40.1132 54.3133 41.8888C52.7552 43.8644 51.003 41.5008 49.7989 40.3366C48.0267 38.6197 48.2008 37.9847 45.7207 38.8432C43.4641 39.631 43.0031 42.4533 40.7418 43.1354C38.2852 43.888 36.6601 41.5361 34.9232 40.0661C33.1381 38.5609 30.5781 37.0322 28.1616 38.2905C26.1166 39.3606 26.2342 42.5356 23.419 42.1828C20.0981 41.7595 14.73 34.598 12.1935 40.0897C11.1434 42.3592 10.1262 43.0177 7.34623 42.4533C4.48399 41.8535 4.41815 39.243 3.80078 36.8323C3.59029 35.9974 3.12932 34.9273 4.41815 33.4691Z" fill="#A4C553"/>
<path d="M56.1949 34.3975H3.80554V30.6462H56.1949V34.3975Z" fill="#FDB813"/>
<path d="M56.1949 31.3994H3.80554V27.6599H56.1949V31.3994Z" fill="#EAA213"/>
<path d="M58.1599 29.894C56.1302 17.0881 44.3155 7.25719 30.0008 7.25719C15.6873 7.25719 3.87025 17.0881 1.84058 29.894H58.1599Z" fill="#F6C37A"/>
<path d="M13.6341 18.3346C13.6341 18.7932 13.2601 19.1694 12.798 19.1694C12.3358 19.1694 11.9607 18.7932 11.9607 18.3346C11.9607 17.8642 12.3358 17.4996 12.798 17.4996C13.2601 17.4996 13.6341 17.8642 13.6341 18.3346Z" fill="#C98A11"/>
<path d="M9.02553 23.1563C9.02553 23.6267 8.65042 24.0029 8.18946 24.0029C7.72614 24.0029 7.35217 23.6267 7.35217 23.1563C7.35217 22.6977 7.72614 22.3214 8.18946 22.3214C8.65042 22.3214 9.02553 22.6977 9.02553 23.1563Z" fill="#C98A11"/>
<path d="M28.064 16.8643C28.064 17.323 27.6888 17.6992 27.2279 17.6992C26.7646 17.6992 26.3906 17.323 26.3906 16.8643C26.3906 16.4057 26.7646 16.0294 27.2279 16.0294C27.6888 16.0294 28.064 16.4057 28.064 16.8643Z" fill="#C98A11"/>
<path d="M19.7724 22.4737C19.7724 22.944 19.3996 23.3086 18.9363 23.3086C18.4741 23.3086 18.099 22.944 18.099 22.4737C18.099 22.015 18.4741 21.6387 18.9363 21.6387C19.3996 21.6387 19.7724 22.015 19.7724 22.4737Z" fill="#C98A11"/>
<path d="M20.2334 13.8775C20.2334 14.3361 19.8595 14.7124 19.3973 14.7124C18.9328 14.7124 18.5601 14.3361 18.5601 13.8775C18.5601 13.4189 18.9328 13.0426 19.3973 13.0426C19.8595 13.0426 20.2334 13.4189 20.2334 13.8775Z" fill="#C98A11"/>
<path d="M30.3675 25.4605C30.3675 25.9191 29.9923 26.2954 29.5314 26.2954C29.0681 26.2954 28.6941 25.9191 28.6941 25.4605C28.6941 25.0019 29.0681 24.6256 29.5314 24.6256C29.9923 24.6256 30.3675 25.0019 30.3675 25.4605Z" fill="#C98A11"/>
<path d="M15.0133 26.2251C15.0133 26.6955 14.6405 27.0718 14.1772 27.0718C13.715 27.0718 13.3411 26.6955 13.3411 26.2251C13.3411 25.7665 13.715 25.3902 14.1772 25.3902C14.6405 25.3902 15.0133 25.7665 15.0133 26.2251Z" fill="#C98A11"/>
<path d="M35.7393 19.3223C35.7393 19.7809 35.3653 20.1572 34.9043 20.1572C34.441 20.1572 34.0659 19.7809 34.0659 19.3223C34.0659 18.8637 34.441 18.4874 34.9043 18.4874C35.3653 18.4874 35.7393 18.8637 35.7393 19.3223Z" fill="#C98A11"/>
<path d="M27.6736 9.57377C27.6736 10.0441 27.2996 10.4204 26.8375 10.4204C26.3742 10.4204 26.0002 10.0441 26.0002 9.57377C26.0002 9.11515 26.3742 8.73884 26.8375 8.73884C27.2996 8.73884 27.6736 9.11515 27.6736 9.57377Z" fill="#C98A11"/>
<path d="M39.5777 12.96C39.5777 13.4186 39.2037 13.7949 38.7416 13.7949C38.2782 13.7949 37.9043 13.4186 37.9043 12.96C37.9043 12.4896 38.2782 12.1251 38.7416 12.1251C39.2037 12.1251 39.5777 12.4896 39.5777 12.96Z" fill="#C98A11"/>
<path d="M33.438 11.8784C33.438 12.3488 33.064 12.7251 32.6019 12.7251C32.1386 12.7251 31.7646 12.3488 31.7646 11.8784C31.7646 11.4198 32.1386 11.0435 32.6019 11.0435C33.064 11.0435 33.438 11.4198 33.438 11.8784Z" fill="#C98A11"/>
<path d="M44.3401 20.1694C44.3401 20.6398 43.965 21.0161 43.5052 21.0161C43.0407 21.0161 42.6667 20.6398 42.6667 20.1694C42.6667 19.7108 43.0407 19.3345 43.5052 19.3345C43.965 19.3345 44.3401 19.7108 44.3401 20.1694Z" fill="#C98A11"/>
<path d="M45.4115 14.3365C45.4115 14.8068 45.0387 15.1831 44.5754 15.1831C44.1121 15.1831 43.7382 14.8068 43.7382 14.3365C43.7382 13.8778 44.1121 13.5015 44.5754 13.5015C45.0387 13.5015 45.4115 13.8778 45.4115 14.3365Z" fill="#C98A11"/>
<path d="M54.0123 23.2378C54.0123 23.7081 53.6383 24.0845 53.1762 24.0845C52.7128 24.0845 52.3401 23.7081 52.3401 23.2378C52.3401 22.7792 52.7128 22.4028 53.1762 22.4028C53.6383 22.4028 54.0123 22.7792 54.0123 23.2378Z" fill="#C98A11"/>
<path d="M42.7185 25.8487C42.7185 26.319 42.3458 26.6953 41.8824 26.6953C41.4191 26.6953 41.0452 26.319 41.0452 25.8487C41.0452 25.3901 41.4191 25.0137 41.8824 25.0137C42.3458 25.0137 42.7185 25.3901 42.7185 25.8487Z" fill="#C98A11"/>
<path d="M49.0978 19.8634C49.0978 20.3337 48.7227 20.6982 48.2617 20.6982C47.7972 20.6982 47.4244 20.3337 47.4244 19.8634C47.4244 19.4048 47.7972 19.0284 48.2617 19.0284C48.7227 19.0284 49.0978 19.4048 49.0978 19.8634Z" fill="#C98A11"/>
</svg>
