<svg width="60" height="60" viewBox="0 0 60 60" fill="none" xmlns="http://www.w3.org/2000/svg">
<path d="M29.9984 15.086L10.3949 29.2352V52.5418C10.3949 55.504 12.8222 57.9399 15.7861 57.9399H24.5469V43.8206H35.4554V57.9399H44.2107C47.1746 57.9399 49.6019 55.504 49.6019 52.5418V29.2352L29.9984 15.086Z" fill="#FDB813"/>
<path d="M58.8879 22.905L51.6683 17.7049C50.4664 16.8282 40.5772 9.69318 39.3758 8.83155L32.2588 3.69197C31.0602 2.83034 30.0579 2.10481 30.0494 2.08969L30.0104 2.05943H29.9891L29.9504 2.08969C29.9382 2.10481 28.943 2.83034 27.744 3.69197L1.11534 22.905C-0.0866591 23.7818 -0.36146 25.4747 0.508398 26.6689L1.51884 28.0899C2.10285 28.8911 3.0568 29.2388 3.98357 29.1481L29.9921 10.3735H29.995H30.0069L56.0197 29.1481C56.9456 29.2388 57.9005 28.8911 58.4776 28.0899L59.494 26.6689C60.3584 25.4747 60.0887 23.7818 58.8879 22.905Z" fill="#7C6A51"/>
<path d="M49.4795 13.4444V4.87379C49.4795 3.39246 48.271 2.18324 46.7879 2.18324H44.2557C42.7733 2.18324 41.5645 3.39246 41.5645 4.87379V7.7155C41.5645 9.19684 40.577 9.71077 39.3755 8.84918L51.6681 17.707C50.4661 16.8454 49.4795 14.9257 49.4795 13.4444Z" fill="#7C6A51"/>
</svg>
