<svg width="60" height="60" viewBox="0 0 60 60" fill="none" xmlns="http://www.w3.org/2000/svg">
<path d="M53.1481 30.1507H6.85783C6.4162 30.1507 6.05737 30.5056 6.05737 30.9525V59.1059C6.05737 59.5528 6.4162 59.9077 6.85783 59.9077H53.1481C53.5924 59.9077 53.946 59.5528 53.946 59.1059V30.9525C53.946 30.5056 53.5924 30.1507 53.1481 30.1507Z" fill="#FAAB18"/>
<path d="M53.1481 30.1516H6.85783C6.4162 30.1516 6.05737 30.5065 6.05737 30.9534V32.9512H53.946V30.9534C53.946 30.5065 53.5924 30.1516 53.1481 30.1516Z" fill="#E8940F"/>
<path d="M57.1422 18.572H2.86058C2.4137 18.572 2.0575 18.9269 2.0575 19.3737V30.0333C2.0575 30.4801 2.4137 30.835 2.86058 30.835H57.1422C57.5838 30.835 57.9426 30.4801 57.9426 30.0333V19.3737C57.9426 18.9269 57.5838 18.572 57.1422 18.572Z" fill="#FDB813"/>
<path d="M32.2458 15.7063C33.5627 10.5935 35.8655 4.95491 38.1407 4.95491C38.4719 4.95491 38.8149 5.05996 39.1935 5.30969C40.1477 5.91429 40.2765 6.47949 40.2909 6.84751C40.3816 9.43679 35.2294 13.4851 32.2458 15.7063ZM15.054 6.7293C14.5585 5.15207 14.983 3.94278 16.3999 2.97016C16.9388 2.589 17.4619 2.40501 18.0034 2.40501C21.7336 2.40501 26.1958 10.8958 28.5932 17.2572C23.8207 16.2452 16.4196 11.093 15.054 6.7293ZM40.4815 3.27244C39.7192 2.78612 38.928 2.53645 38.1407 2.53645C33.9229 2.53645 31.3454 9.63395 30.0718 14.4708C27.8387 9.05563 23.3108 -0.000235473 18.0034 -0.000235473C16.969 -0.000235473 15.9688 0.328354 15.029 0.985532C12.7539 2.56276 11.9508 4.86291 12.7591 7.45219C14.1274 11.829 20.0656 16.5607 25.2587 18.6899H32.2668C32.4337 18.5585 32.6138 18.4402 32.8004 18.2956C37.6583 14.7206 42.8277 10.5803 42.6975 6.7687C42.6607 5.79608 42.2507 4.40278 40.4815 3.27244Z" fill="#F15A22"/>
<path d="M25.0117 18.5845V60H33.9914V18.5845H25.0117Z" fill="#F15A22"/>
</svg>
