<svg width="60" height="60" viewBox="0 0 60 60" fill="none" xmlns="http://www.w3.org/2000/svg">
<path d="M59.0096 17.0057H15.1223L12.1353 12.2728H2.13755C0.961896 12.2728 0 13.2424 0 14.4232V15.22C0 16.4009 0.961896 17.3609 2.13755 17.3609H8.6571C8.50147 17.6009 8.51459 17.9273 8.72835 18.2921L20.0311 37.1374C20.4493 37.8478 21.4711 38.4238 22.2962 38.4238H48.995C49.8256 38.4238 50.7782 37.819 51.1325 37.0702L59.8703 18.3689C60.2209 17.6201 59.8365 17.0057 59.0096 17.0057Z" fill="#FDB813"/>
<path d="M39.5991 27.7675V27.4411C39.5991 26.6155 38.9241 25.9435 38.099 25.9435H37.5291C36.704 25.9435 36.0271 26.6155 36.0271 27.4411V27.7675C36.0271 28.5931 36.704 29.2748 37.5291 29.2748H38.099C38.9241 29.2748 39.5991 28.5931 39.5991 27.7675ZM29.8807 31.4732H29.3126C28.4876 31.4732 27.8107 32.1453 27.8107 32.9709V33.2973C27.8107 34.1229 28.4876 34.7949 29.3126 34.7949H29.8807C30.7058 34.7949 31.3827 34.1229 31.3827 33.2973V32.9709C31.3827 32.1453 30.7058 31.4732 29.8807 31.4732ZM34.1465 27.7675V27.4411C34.1465 26.6155 33.4771 25.9435 32.6483 25.9435H32.0802C31.2495 25.9435 30.5801 26.6155 30.5801 27.4411V27.7675C30.5801 28.5931 31.2495 29.2748 32.0802 29.2748H32.6483C33.4771 29.2748 34.1465 28.5931 34.1465 27.7675ZM35.3334 31.4732H34.7633C33.9402 31.4732 33.267 32.1453 33.267 32.9709V33.2973C33.267 34.1229 33.9402 34.7949 34.7633 34.7949H35.3334C36.1584 34.7949 36.8353 34.1229 36.8353 33.2973V32.9709C36.8353 32.1453 36.1584 31.4732 35.3334 31.4732ZM40.7879 31.4732H40.2122C39.391 31.4732 38.7179 32.1453 38.7179 32.9709V33.2973C38.7179 34.1229 39.391 34.7949 40.2122 34.7949H40.7879C41.6129 34.7949 42.2898 34.1229 42.2898 33.2973V32.9709C42.2898 32.1453 41.6129 31.4732 40.7879 31.4732ZM51.6875 20.6633H51.1194C50.2925 20.6633 49.6175 21.345 49.6175 22.1706V22.497C49.6175 23.3226 50.2925 23.9946 51.1194 23.9946H51.6875C52.5125 23.9946 53.1895 23.3226 53.1895 22.497V22.1706C53.1895 21.345 52.5125 20.6633 51.6875 20.6633ZM49.0043 25.9435H48.4362C47.6093 25.9435 46.9343 26.6155 46.9343 27.4411V27.7675C46.9343 28.5931 47.6093 29.2748 48.4362 29.2748H49.0043C49.8294 29.2748 50.4988 28.5931 50.4988 27.7675V27.4411C50.4988 26.6155 49.8294 25.9435 49.0043 25.9435ZM45.0536 27.7675V27.4411C45.0536 26.6155 44.3786 25.9435 43.5536 25.9435H42.9835C42.1586 25.9435 41.4817 26.6155 41.4817 27.4411V27.7675C41.4817 28.5931 42.1586 29.2748 42.9835 29.2748H43.5536C44.3786 29.2748 45.0536 28.5931 45.0536 27.7675ZM46.2349 31.4732H45.6631C44.838 31.4732 44.1686 32.1453 44.1686 32.9709V33.2973C44.1686 34.1229 44.838 34.7949 45.6631 34.7949H46.2349C47.0636 34.7949 47.735 34.1229 47.735 33.2973V32.9709C47.735 32.1453 47.0636 31.4732 46.2349 31.4732ZM24.4281 31.4732H23.8619C23.0406 31.4732 22.3599 32.1453 22.3599 32.9709V33.2973C22.3599 34.1229 23.0406 34.7949 23.8619 34.7949H24.4281C25.2531 34.7949 25.9319 34.1229 25.9319 33.2973V32.9709C25.9319 32.1453 25.2531 31.4732 24.4281 31.4732ZM29.3126 23.9946H29.8807C30.7058 23.9946 31.3827 23.3226 31.3827 22.497V22.1706C31.3827 21.345 30.7058 20.6633 29.8807 20.6633H29.3126C28.4876 20.6633 27.8107 21.345 27.8107 22.1706V22.497C27.8107 23.3226 28.4876 23.9946 29.3126 23.9946ZM34.7633 23.9946H35.3334C36.1584 23.9946 36.8353 23.3226 36.8353 22.497V22.1706C36.8353 21.345 36.1584 20.6633 35.3334 20.6633H34.7633C33.9402 20.6633 33.267 21.345 33.267 22.1706V22.497C33.267 23.3226 33.9402 23.9946 34.7633 23.9946ZM40.2122 23.9946H40.7879C41.6129 23.9946 42.2898 23.3226 42.2898 22.497V22.1706C42.2898 21.345 41.6129 20.6633 40.7879 20.6633H40.2122C39.391 20.6633 38.7179 21.345 38.7179 22.1706V22.497C38.7179 23.3226 39.391 23.9946 40.2122 23.9946ZM45.6631 23.9946H46.2349C47.0636 23.9946 47.735 23.3226 47.735 22.497V22.1706C47.735 21.345 47.0636 20.6633 46.2349 20.6633H45.6631C44.838 20.6633 44.1686 21.345 44.1686 22.1706V22.497C44.1686 23.3226 44.838 23.9946 45.6631 23.9946ZM23.8619 23.9946H24.4281C25.2531 23.9946 25.9319 23.3226 25.9319 22.497V22.1706C25.9319 21.345 25.2531 20.6633 24.4281 20.6633H23.8619C23.0406 20.6633 22.3599 21.345 22.3599 22.1706V22.497C22.3599 23.3226 23.0406 23.9946 23.8619 23.9946ZM28.6957 27.7675V27.4411C28.6957 26.6155 28.0244 25.9435 27.1976 25.9435H26.6275C25.8026 25.9435 25.1294 26.6155 25.1294 27.4411V27.7675C25.1294 28.5931 25.8026 29.2748 26.6275 29.2748H27.1976C28.0244 29.2748 28.6957 28.5931 28.6957 27.7675ZM23.2468 27.7675V27.4411C23.2468 26.6155 22.568 25.9435 21.7467 25.9435H21.1749C20.3499 25.9435 19.673 26.6155 19.673 27.4411V27.7675C19.673 28.5931 20.3499 29.2748 21.1749 29.2748H21.7467C22.568 29.2748 23.2468 28.5931 23.2468 27.7675ZM20.4737 22.497V22.1706C20.4737 21.345 19.8005 20.6633 18.9792 20.6633H18.411C17.5842 20.6633 16.9092 21.345 16.9092 22.1706V22.497C16.9092 23.3226 17.5842 23.9946 18.411 23.9946H18.9792C19.8005 23.9946 20.4737 23.3226 20.4737 22.497Z" fill="#BC7708"/>
<path d="M46.2669 40.92C44.3899 40.92 42.8673 42.4464 42.8673 44.3185C42.8673 46.2001 44.3899 47.7266 46.2669 47.7266C48.1456 47.7266 49.6701 46.2001 49.6701 44.3185C49.6701 42.4464 48.1456 40.92 46.2669 40.92ZM26.6051 40.92C24.7226 40.92 23.2037 42.4464 23.2037 44.3185C23.2037 46.2001 24.7226 47.7266 26.6051 47.7266C28.4839 47.7266 30.0065 46.2001 30.0065 44.3185C30.0065 42.4464 28.4839 40.92 26.6051 40.92Z" fill="#7C6A51"/>
</svg>
