<svg width="114" height="145" viewBox="0 0 114 145" fill="none" xmlns="http://www.w3.org/2000/svg">
<path d="M28.9129 25.3645C28.9129 28.8796 25.4682 27.9852 20.2215 27.9852C14.9748 27.9852 9.91296 28.8796 9.91296 25.3645C9.91296 21.8495 14.1663 19 19.413 19C24.6597 19 28.9129 21.8495 28.9129 25.3645Z" fill="#FFAA00"/>
<path d="M9.91323 120.027C9.91323 116.512 13.358 117.406 18.6047 117.406C23.8514 117.406 28.9132 116.512 28.9132 120.027C28.9132 123.542 24.6599 126.391 19.4132 126.391C14.1665 126.391 9.91323 123.542 9.91323 120.027Z" fill="#FFAA00"/>
<rect x="4.95667" y="38" width="28.913" height="9.91303" rx="3" fill="#FFAA00"/>
<path d="M4.95667 100.478C4.95667 98.8209 6.29981 97.4778 7.95667 97.4778H30.8697C32.5265 97.4778 33.8697 98.8209 33.8697 100.478V104.391C33.8697 106.048 32.5265 107.391 30.8697 107.391H7.95666C6.29981 107.391 4.95667 106.048 4.95667 104.391V100.478Z" fill="#FFAA00"/>
<rect y="57.8262" width="38.826" height="9.91303" rx="3" fill="#FFAA00"/>
<rect y="77.6516" width="38.826" height="9.91303" rx="3" fill="#FFAA00"/>
<path d="M41.3401 75.3271C39.9517 73.6088 39.9517 70.8228 41.3401 69.1045L80.3411 20.8362C81.0367 19.9753 81.9894 19.5096 82.9726 19.5499L105.808 20.485C108.917 20.6124 110.404 25.2714 108.204 27.9939L58.1632 89.9252C56.7748 91.6435 54.5238 91.6435 53.1354 89.9252L41.3401 75.3271Z" fill="#FFAA00"/>
<path d="M41.3401 69.4605C39.9517 71.1788 39.9517 73.9647 41.3401 75.6831L80.3411 123.951C81.0367 124.812 81.9894 125.278 82.9726 125.238L105.808 124.303C108.917 124.175 110.404 119.516 108.204 116.794L58.1632 54.8624C56.7748 53.1441 54.5238 53.1441 53.1354 54.8624L41.3401 69.4605Z" fill="#FFAA00"/>
</svg>
