<svg width="76" height="145" viewBox="0 0 76 145" fill="none" xmlns="http://www.w3.org/2000/svg">
<path d="M3.34011 75.3271C1.9517 73.6088 1.9517 70.8228 3.34011 69.1045L42.3411 20.8362C43.0367 19.9753 43.9894 19.5096 44.9726 19.5499L67.8075 20.485C70.9168 20.6124 72.4037 25.2714 70.2039 27.9939L20.1632 89.9252C18.7748 91.6435 16.5238 91.6435 15.1354 89.9252L3.34011 75.3271Z" fill="#FFAA00"/>
<path d="M3.34011 69.4605C1.9517 71.1788 1.9517 73.9647 3.34011 75.6831L42.3411 123.951C43.0367 124.812 43.9894 125.278 44.9726 125.238L67.8075 124.303C70.9168 124.175 72.4037 119.516 70.2039 116.794L20.1632 54.8624C18.7748 53.1441 16.5238 53.1441 15.1354 54.8624L3.34011 69.4605Z" fill="#FFAA00"/>
</svg>
