<svg width="112" height="59" viewBox="0 0 112 59" fill="none" xmlns="http://www.w3.org/2000/svg">
<path d="M0.701 18.957H14.75C15.548 15.849 15.947 13.266 15.947 11.208V10.893H5.489V1.38H27.035V10.578C27.035 13.182 26.657 15.975 25.901 18.957H38.501C39.131 16.101 39.446 13.518 39.446 11.208V10.893H28.925V1.38H50.597V10.578C50.597 13.266 50.324 16.059 49.778 18.957H55.889V27.84H34.091V30.675H50.156V46.803H17.9V47.937C17.9 48.189 17.984 48.399 18.152 48.567C18.362 48.735 18.635 48.819 18.971 48.819H50.849V58.017H14.939C12.293 58.017 10.214 57.387 8.702 56.127C7.19 54.867 6.434 53.019 6.434 50.583V40.251H38.69V38.235H6.434V30.675H22.562V27.84H0.701V18.957ZM99.9063 0.371997H111.372V31.431H99.9063V0.371997ZM60.7203 24.249L64.6893 23.997C68.5953 23.703 71.7243 23.283 74.0763 22.737C76.4703 22.191 78.2763 21.477 79.4943 20.595L61.6653 20.721V13.035H81.6363V10.515H62.1063V2.262H92.6613V12.972C92.6613 18.894 90.4143 23.451 85.9203 26.643C81.4263 29.835 74.4753 31.809 65.0673 32.565L60.7203 32.88V24.249ZM77.4783 58.017C74.6643 58.017 72.4593 57.345 70.8633 56.001C69.3093 54.699 68.5323 52.767 68.5323 50.205V33.951H79.9983V37.794H99.9063V33.951H111.372V58.017H77.4783ZM79.9983 47.748C79.9983 48.252 80.1453 48.651 80.4393 48.945C80.7753 49.239 81.2583 49.386 81.8883 49.386H99.9063V45.732H79.9983V47.748Z" fill="#FFAA00"/>
</svg>
